<svg width="24" height="24" viewBox="0 0 24 24" fill="none" xmlns="http://www.w3.org/2000/svg">
<g clip-path="url(#clip0_48_22)">
<path fill-rule="evenodd" clip-rule="evenodd" d="M7.99701 20C8.54621 20 8.99143 19.553 8.99143 19.0017C8.99143 18.4503 8.54621 18.0033 7.99701 18.0033H5.98883V5.99668H7.99701C8.54621 5.99668 8.99143 5.54971 8.99143 4.99834C8.99143 4.44698 8.54621 4 7.99701 4H5.98884C4.89044 4 4 4.89394 4 5.99668L4 18.0033C4 19.1061 4.89043 20 5.98883 20H7.99701ZM13.4801 8.74983L11.2001 11.0389H19.0056C19.5548 11.0389 20 11.4859 20 12.0373C20 12.5886 19.5548 13.0356 19.0056 13.0356H11.2001L13.4801 15.3247C13.8685 15.7145 13.8685 16.3467 13.4801 16.7365C13.0918 17.1264 12.4622 17.1264 12.0738 16.7365L8.79933 13.4491C8.02264 12.6694 8.02264 11.4051 8.79933 10.6254L12.0738 7.33797C12.4622 6.94809 13.0918 6.94809 13.4801 7.33797C13.8685 7.72785 13.8685 8.35996 13.4801 8.74983Z" fill="#8CA3B8"/>
</g>
<defs>
<clipPath id="clip0_48_22">
<rect width="24" height="24" fill="white"/>
</clipPath>
</defs>
</svg>
