<svg width="18" height="13" viewBox="0 0 18 13" fill="none" xmlns="http://www.w3.org/2000/svg">
<path d="M6 6.06006C6 4.37568 7.31563 3.06006 9 3.06006C10.6562 3.06006 12 4.37568 12 6.06006C12 7.71631 10.6562 9.06006 9 9.06006C7.31563 9.06006 6 7.71631 6 6.06006ZM0 2.06006C0 0.955371 0.895313 0.0600586 2 0.0600586H16C17.1031 0.0600586 18 0.955371 18 2.06006V10.0601C18 11.1632 17.1031 12.0601 16 12.0601H2C0.895313 12.0601 0 11.1632 0 10.0601V2.06006ZM1.5 3.56006V8.56006C2.60469 8.56006 3.5 9.45693 3.5 10.5601H14.5C14.5 9.45693 15.3969 8.56006 16.5 8.56006V3.56006C15.3969 3.56006 14.5 2.66318 14.5 1.56006H3.5C3.5 2.66318 2.60469 3.56006 1.5 3.56006Z" fill="#8CA3B8"/>
</svg>
