<svg width="16" height="14" viewBox="0 0 16 14" fill="none" xmlns="http://www.w3.org/2000/svg">
<path d="M9.33333 13.9999L7.46667 11.6666H4C3.82319 11.6666 3.65362 11.5963 3.5286 11.4713C3.40357 11.3463 3.33333 11.1767 3.33333 10.9999V3.73525C3.33333 3.55844 3.40357 3.38887 3.5286 3.26385C3.65362 3.13882 3.82319 3.06859 4 3.06859H14.6667C14.8435 3.06859 15.013 3.13882 15.1381 3.26385C15.2631 3.38887 15.3333 3.55844 15.3333 3.73525V10.9999C15.3333 11.1767 15.2631 11.3463 15.1381 11.4713C15.013 11.5963 14.8435 11.6666 14.6667 11.6666H11.2L9.33333 13.9999ZM10.5593 10.3333H14V4.40192H4.66667V10.3333H8.10733L9.33333 11.8653L10.5593 10.3333ZM1.33333 0.333252H12.6667V1.66659H2V8.99992H0.666667V0.999919C0.666667 0.823108 0.736904 0.653538 0.861929 0.528514C0.986953 0.40349 1.15652 0.333252 1.33333 0.333252Z" fill="#8CA3B8"/>
</svg>
