<svg width="16" height="13" viewBox="0 0 16 13" fill="none" xmlns="http://www.w3.org/2000/svg">
<path d="M3.24867 6.44762e-09H12.7513C12.8565 -1.46222e-05 12.9602 0.0248636 13.054 0.0726012C13.1477 0.120339 13.2288 0.18958 13.2907 0.274667L15.8393 3.77867C15.8846 3.84101 15.9069 3.91714 15.9025 3.99408C15.898 4.07102 15.8669 4.14402 15.8147 4.20067L8.24467 12.4013C8.18469 12.4662 8.10144 12.5045 8.0132 12.508C7.92495 12.5115 7.83892 12.4799 7.774 12.42C7.76933 12.416 5.24067 9.67667 0.185333 4.20067C0.133069 4.14402 0.102049 4.07102 0.0975512 3.99408C0.0930539 3.91714 0.115358 3.84101 0.160667 3.77867L2.70933 0.274667C2.77119 0.18958 2.8523 0.120339 2.94603 0.0726012C3.03977 0.0248636 3.14347 -1.46222e-05 3.24867 6.44762e-09ZM3.58867 1.33333L1.722 3.9L8 10.7L14.278 3.9L12.4113 1.33333H3.58867Z" fill="#8CA3B8"/>
</svg>
