<svg width="16" height="16" viewBox="0 0 16 16" fill="none" xmlns="http://www.w3.org/2000/svg">
<path d="M0.5 7.99998C0.5 7.35123 0.5825 6.72273 0.737 6.12198C1.15135 6.14377 1.56365 6.05055 1.92833 5.85264C2.29301 5.65472 2.59586 5.35983 2.8034 5.00054C3.01095 4.64126 3.1151 4.23158 3.10436 3.8168C3.09361 3.40202 2.96837 2.99829 2.7425 2.65023C3.64921 1.75816 4.7681 1.11161 5.99375 0.771484C6.18199 1.14159 6.46898 1.45238 6.82294 1.66947C7.1769 1.88655 7.58402 2.00145 7.99925 2.00145C8.41448 2.00145 8.8216 1.88655 9.17556 1.66947C9.52952 1.45238 9.81651 1.14159 10.0048 0.771484C11.2304 1.11161 12.3493 1.75816 13.256 2.65023C13.0299 2.99835 12.9045 3.40224 12.8936 3.81721C12.8828 4.23218 12.987 4.64206 13.1946 5.00149C13.4023 5.36093 13.7054 5.65591 14.0703 5.8538C14.4352 6.05168 14.8477 6.14476 15.2623 6.12273C15.4167 6.72273 15.4993 7.35123 15.4993 7.99998C15.4993 8.64873 15.4167 9.27723 15.2623 9.87799C14.8478 9.85606 14.4354 9.94917 14.0706 10.147C13.7059 10.3449 13.4029 10.6398 13.1953 10.9991C12.9876 11.3584 12.8834 11.7681 12.8941 12.183C12.9048 12.5978 13.0301 13.0016 13.256 13.3497C12.3493 14.2418 11.2304 14.8884 10.0048 15.2285C9.81651 14.8584 9.52952 14.5476 9.17556 14.3305C8.8216 14.1134 8.41448 13.9985 7.99925 13.9985C7.58402 13.9985 7.1769 14.1134 6.82294 14.3305C6.46898 14.5476 6.18199 14.8584 5.99375 15.2285C4.7681 14.8884 3.64921 14.2418 2.7425 13.3497C2.96863 13.0016 3.09405 12.5977 3.10488 12.1828C3.11571 11.7678 3.01152 11.3579 2.80386 10.9985C2.59619 10.639 2.29314 10.3441 1.92823 10.1462C1.56332 9.94829 1.15078 9.85521 0.73625 9.87724C0.5825 9.27798 0.5 8.64948 0.5 7.99998ZM4.103 10.25C4.5755 11.0682 4.7105 12.0095 4.526 12.893C4.832 13.1105 5.1575 13.2987 5.49875 13.4555C6.18625 12.8396 7.07699 12.4993 8 12.5C8.945 12.5 9.8285 12.8532 10.5013 13.4555C10.8425 13.2987 11.168 13.1105 11.474 12.893C11.2846 11.99 11.4352 11.0488 11.897 10.25C12.358 9.45076 13.0978 8.84985 13.9745 8.56248C14.0092 8.18829 14.0092 7.81168 13.9745 7.43748C13.0975 7.15028 12.3574 6.54935 11.8962 5.74998C11.4345 4.95118 11.2838 4.01001 11.4733 3.10698C11.1673 2.88943 10.8417 2.7011 10.5005 2.54448C9.81319 3.16018 8.92276 3.50044 8 3.49998C7.07699 3.50063 6.18625 3.16036 5.49875 2.54448C5.1576 2.7011 4.83192 2.88943 4.526 3.10698C4.71542 4.01001 4.56479 4.95118 4.103 5.74998C3.64203 6.5492 2.90224 7.15012 2.0255 7.43748C1.99081 7.81168 1.99081 8.18829 2.0255 8.56248C2.90252 8.84969 3.6426 9.45062 4.10375 10.25H4.103ZM8 10.25C7.40326 10.25 6.83097 10.0129 6.40901 9.59097C5.98705 9.16902 5.75 8.59672 5.75 7.99998C5.75 7.40325 5.98705 6.83095 6.40901 6.40899C6.83097 5.98704 7.40326 5.74998 8 5.74998C8.59674 5.74998 9.16903 5.98704 9.59099 6.40899C10.0129 6.83095 10.25 7.40325 10.25 7.99998C10.25 8.59672 10.0129 9.16902 9.59099 9.59097C9.16903 10.0129 8.59674 10.25 8 10.25ZM8 8.74998C8.19891 8.74998 8.38968 8.67097 8.53033 8.53031C8.67098 8.38966 8.75 8.1989 8.75 7.99998C8.75 7.80107 8.67098 7.61031 8.53033 7.46965C8.38968 7.329 8.19891 7.24998 8 7.24998C7.80109 7.24998 7.61032 7.329 7.46967 7.46965C7.32902 7.61031 7.25 7.80107 7.25 7.99998C7.25 8.1989 7.32902 8.38966 7.46967 8.53031C7.61032 8.67097 7.80109 8.74998 8 8.74998Z" fill="#8CA3B8"/>
</svg>
