<svg width="18" height="16" viewBox="0 0 18 16" fill="none" xmlns="http://www.w3.org/2000/svg">
<path d="M1.35 5.52505C1.35 5.89911 1.04766 6.20005 0.675 6.20005C0.302344 6.20005 0 5.89911 0 5.52505V3.27505C0 1.90817 1.10812 0.800049 2.475 0.800049H15.525C16.8919 0.800049 18 1.90817 18 3.27505V5.52505C18 5.89911 17.6991 6.20005 17.325 6.20005C16.9509 6.20005 16.65 5.89911 16.65 5.52505V3.27505C16.65 2.65377 16.1466 2.15005 15.525 2.15005H2.475C1.85372 2.15005 1.35 2.65377 1.35 3.27505V5.52505ZM13.05 3.50005H14.4V13.4C14.4 14.3929 13.5928 15.2 12.6 15.2H5.4C4.40719 15.2 3.6 14.3929 3.6 13.4V3.50005H4.95V13.4C4.95 13.6475 5.1525 13.85 5.4 13.85H12.6C12.8475 13.85 13.05 13.6475 13.05 13.4V3.50005ZM9 10.7C7.48406 10.7 6.3 9.69317 6.3 8.45005C6.3 7.20692 7.48406 6.20005 9 6.20005C10.4906 6.20005 11.7 7.20692 11.7 8.45005C11.7 9.69317 10.4906 10.7 9 10.7Z" fill="#8CA3B8"/>
</svg>
