<svg width="30" height="30" viewBox="0 0 30 30" fill="none" xmlns="http://www.w3.org/2000/svg">
<rect width="30" height="30" rx="4" fill="#072537"/>
<path d="M14.968 20.6951C11.2795 20.6951 8.63126 18.3548 8.63126 15.0243C8.63126 11.6937 11.2525 9.3049 14.968 9.3049C17.1164 9.3049 18.871 10.0505 19.9849 11.3466C20.4655 11.9059 21.118 12.3387 21.8555 12.3387V12.3387C23.1761 12.3387 24.1177 11.0475 23.3653 9.96218C21.6484 7.48581 18.5996 6 14.9708 6C9.25655 6 5 9.82147 5 15.0243C5 20.227 9.28359 24 14.9708 24C18.5937 24 21.6549 22.519 23.368 20.0513C24.1256 18.9599 23.1751 17.6642 21.8465 17.6642V17.6642C21.1128 17.6642 20.4606 18.0882 19.9784 18.6413C18.8525 19.9325 17.0993 20.6951 14.968 20.6951Z" fill="white"/>
</svg>
