<svg width="18" height="18" viewBox="0 0 18 18" fill="none" xmlns="http://www.w3.org/2000/svg">
<path d="M17.7297 11.1771C16.5277 15.9986 11.6443 18.9329 6.82225 17.7306C2.00223 16.5285 -0.932029 11.6449 0.270513 6.82378C1.472 2.00177 6.35537 -0.932704 11.1759 0.269311C15.9976 1.47133 18.9317 6.35553 17.7296 11.1772L17.7296 11.1771H17.7297Z" fill="#F7931A"/>
<path d="M12.9685 7.71751C13.1477 6.5198 12.2358 5.87599 10.9889 5.44651L11.3934 3.82411L10.4058 3.57803L10.0121 5.1577C9.75242 5.09295 9.48579 5.03193 9.22078 4.97145L9.61741 3.38134L8.63042 3.13525L8.2257 4.75712C8.01085 4.7082 7.79982 4.65986 7.59509 4.60891L7.59623 4.60381L6.23431 4.26372L5.9716 5.31854C5.9716 5.31854 6.70431 5.48649 6.68887 5.49683C7.0888 5.59665 7.16112 5.86139 7.14911 6.07122L6.68834 7.91951C6.71588 7.92651 6.7516 7.93663 6.79102 7.95246C6.75807 7.94428 6.72301 7.93535 6.68663 7.92664L6.04079 10.5158C5.99192 10.6373 5.86786 10.8197 5.58826 10.7504C5.59815 10.7648 4.87045 10.5713 4.87045 10.5713L4.38013 11.7018L5.66533 12.0222C5.90442 12.0821 6.13872 12.1449 6.36945 12.2039L5.96077 13.8449L6.94723 14.0909L7.35195 12.4674C7.62144 12.5405 7.88297 12.608 8.139 12.6716L7.73564 14.2875L8.72329 14.5336L9.13192 12.8957C10.816 13.2144 12.0823 13.0859 12.6153 11.5627C13.0448 10.3363 12.5939 9.62892 11.7079 9.16763C12.3532 9.01881 12.8393 8.59438 12.9689 7.71764L12.9686 7.71742L12.9685 7.71751ZM10.7121 10.8816C10.4069 12.108 8.34202 11.4451 7.67256 11.2788L8.21488 9.10477C8.8843 9.27189 11.0311 9.60262 10.7121 10.8816H10.7121ZM11.0175 7.69973C10.7391 8.81526 9.02049 8.24852 8.46299 8.10956L8.95468 6.13783C9.51218 6.2768 11.3075 6.53617 11.0176 7.69973H11.0175Z" fill="white"/>
</svg>
