<svg width="16" height="16" viewBox="0 0 16 16" fill="none" xmlns="http://www.w3.org/2000/svg">
<path d="M15.5222 3.71021C15.2281 3.55788 14.8731 3.57799 14.6014 3.76852L11.7458 5.76963C11.5444 5.91024 11.4958 6.18769 11.6364 6.38852C11.7528 6.58966 12.0528 6.63688 12.2556 6.49799L15.1111 4.49799V11.6063L12.2556 9.6091C12.0537 9.46891 11.7772 9.5171 11.6367 9.71849C11.4961 9.91944 11.5447 10.1968 11.7461 10.3374L14.6016 12.3368C14.7544 12.4436 14.9333 12.4975 15.1122 12.4975C15.2524 12.4975 15.3933 12.4641 15.5227 12.3969C15.8167 12.2424 16 11.9174 16 11.5841V4.49799C16 4.16466 15.8167 3.86466 15.5222 3.71021ZM8.88889 2.72021H1.77778C0.795833 2.72021 0 3.51605 0 4.49799V11.6091C0 12.591 0.795833 13.3869 1.77778 13.3869H8.88889C9.87083 13.3869 10.6667 12.591 10.6667 11.6091V4.49799C10.6667 3.51605 9.86944 2.72021 8.88889 2.72021ZM9.77778 11.6091C9.77778 12.0991 9.37889 12.498 8.88889 12.498H1.77778C1.28778 12.498 0.888889 12.0991 0.888889 11.6091V4.49799C0.888889 4.00799 1.28778 3.6091 1.77778 3.6091H8.88889C9.37889 3.6091 9.77778 4.00799 9.77778 4.49799V11.6091Z" fill="white"/>
</svg>
