<svg width="16" height="16" viewBox="0 0 16 16" fill="none" xmlns="http://www.w3.org/2000/svg">
<path d="M13.4827 7.20259C12.9715 7.20259 12.376 7.31647 11.702 7.56209C10.8653 4.34759 7.84025 1.6001 7.19775 1.6001C6.918 1.6001 6.661 1.80005 6.607 2.0921C5.9625 5.5946 4.77925 7.1571 4.36825 7.5896C4.0555 7.47215 3.28675 7.2026 2.515 7.2026C0.207 7.2026 0 9.2646 0 9.8451C0 11.8991 1.67575 14.4001 4.7775 14.4001C6.11875 14.4001 7.18925 13.9366 7.9775 13.2473C8.766 13.9356 9.83525 14.4001 11.175 14.4001C14.3 14.4001 15.9775 11.8976 15.9775 9.8451C16.0003 9.2626 15.7928 7.20259 13.4827 7.20259ZM7.58525 3.2846C8.4325 4.04209 9.79125 5.50484 10.4253 7.46959C9.75975 7.25604 9.263 7.19959 8.91275 7.19959C8.56975 7.19959 8.2745 7.26207 8.00425 7.35317C7.73025 7.26259 7.42775 7.20259 7.08275 7.20259C6.7655 7.20259 6.417 7.24664 6.0375 7.33742C6.50275 6.52759 7.13275 5.23009 7.58525 3.2846ZM1.20075 9.84509C1.20075 9.26409 1.35958 8.40035 2.515 8.40035C3.27625 8.40035 4.002 8.72059 4.7985 9.07084C5.63925 8.70109 6.3175 8.40035 7.0815 8.40035C8.237 8.40035 8.39625 9.26384 8.39625 9.84509C8.39625 10.3391 7.91875 13.2001 4.79875 13.2001C1.66475 13.2001 1.20075 10.3276 1.20075 9.84509ZM14.7778 9.84509C14.7778 10.3356 14.302 13.2001 11.1753 13.2001C10.0298 13.2001 9.25375 12.7738 8.76675 12.3531C9.29725 11.5721 9.5745 10.6731 9.5745 9.84309C9.5745 9.10534 9.34823 8.62084 9.2455 8.42484C9.9655 8.51512 10.5785 8.80709 11.1753 9.06934C12.014 8.70084 12.6963 8.39909 13.4603 8.39909C14.6428 8.40009 14.7778 9.26759 14.7778 9.84509Z" fill="white"/>
</svg>
