<svg width="83" height="38" viewBox="0 0 83 38" fill="none" xmlns="http://www.w3.org/2000/svg">
<g clip-path="url(#clip0_4841_14348)">
<path d="M5.09699 20.4048H0.812618V32.832H3.15523V29.274H5.09178C5.678 29.2752 6.25871 29.1616 6.80076 28.9399C7.34281 28.7181 7.83559 28.3925 8.25095 27.9815C8.66632 27.5706 8.99613 27.0824 9.22158 26.5448C9.44702 26.0072 9.56367 25.4308 9.56486 24.8484C9.56606 24.2661 9.45178 23.6892 9.22855 23.1507C9.00532 22.6122 8.67751 22.1227 8.26384 21.71C7.85017 21.2974 7.35873 20.9698 6.8176 20.7458C6.27646 20.5219 5.69622 20.406 5.11 20.4048H5.09699ZM4.9252 27.1278H3.14221V22.551H4.9252C5.23439 22.5407 5.54252 22.5922 5.83123 22.7027C6.11995 22.8131 6.38335 22.9801 6.60575 23.1937C6.82815 23.4074 7.00501 23.6633 7.1258 23.9462C7.24658 24.2292 7.30883 24.5333 7.30883 24.8407C7.30883 25.148 7.24658 25.4522 7.1258 25.7352C7.00501 26.0181 6.82815 26.274 6.60575 26.4876C6.38335 26.7013 6.11995 26.8683 5.83123 26.9787C5.54252 27.0891 5.23439 27.1407 4.9252 27.1304V27.1278Z" fill="white"/>
<path d="M18.4133 24.0662C18.0102 23.6159 17.5136 23.2579 16.9577 23.0169C16.4019 22.7758 15.8 22.6574 15.1935 22.6698C12.6557 22.6698 10.222 24.56 10.222 27.8621C10.222 31.115 12.7416 33.0336 15.1675 33.0336C15.7885 33.0406 16.4032 32.9096 16.9666 32.6501C17.53 32.3906 18.0279 32.0092 18.4237 31.5339V32.8267H20.7377V22.8767H18.4133V24.0662ZM15.5345 30.9262C14.9178 30.9468 14.3088 30.7841 13.7856 30.4591C13.2623 30.1341 12.8485 29.6614 12.5971 29.1016C12.3456 28.5417 12.2679 27.9201 12.374 27.3162C12.48 26.7122 12.7649 26.1534 13.1923 25.7111C13.6197 25.2689 14.1701 24.9633 14.7732 24.8334C15.3763 24.7035 16.0047 24.7553 16.578 24.982C17.1514 25.2088 17.6437 25.6002 17.9919 26.1063C18.3402 26.6125 18.5286 27.2102 18.5331 27.8233C18.5331 29.548 17.2498 30.9262 15.5345 30.9262Z" fill="white"/>
<path d="M26.9171 29.5791L24.1242 22.8716H21.6566L25.7692 32.3381L23.6609 37.4295H26.0087L31.9901 22.8716H29.5564L26.9171 29.5791Z" fill="white"/>
<path d="M68.5686 10.4003H68.5035L65.8147 1.27515H61.4705V12.7818H64.3493L64.1879 3.34118H64.2504L67.1396 12.7818H71.3068V1.27515H68.4098L68.5686 10.4003Z" fill="white"/>
<path d="M15.9145 2.35341L15.9796 2.35083L17.5413 12.9008H20.683L18.5278 1.27515H13.322L11.1512 12.9008H14.3137L15.9145 2.35341Z" fill="white"/>
<path d="M31.0035 1.27515L29.5589 10.165H29.4938L28.0518 1.27515H23.2781L23.0204 12.9008H25.9487L26.0242 2.44909H26.0866L28.0414 12.9008H31.0113L32.9661 2.45167L33.0312 2.44909L33.104 12.9008H36.0323L35.7746 1.27515H31.0035Z" fill="white"/>
<path d="M5.04489 13.356C7.16105 13.356 8.90238 12.6398 9.18089 10.6978C9.28512 10.0673 9.28071 9.42377 9.16788 8.79471C8.67333 6.35891 4.22237 5.63231 3.90222 4.27219C3.85669 4.07171 3.85226 3.86417 3.8892 3.66195C3.9725 3.28701 4.22758 2.88622 4.95899 2.88622C5.10278 2.87279 5.2478 2.89055 5.38399 2.93828C5.52019 2.98601 5.64433 3.06257 5.7478 3.16266C5.85128 3.26275 5.93163 3.38398 5.98329 3.51796C6.03495 3.65194 6.05669 3.79548 6.04701 3.93863V4.66006H8.96746V3.8352C8.96746 1.30373 6.67691 0.905518 5.02146 0.905518C2.93915 0.905518 1.23945 1.59075 0.929709 3.49129C0.834639 4.01024 0.843484 4.54272 0.955738 5.05827C1.4633 7.43459 5.62273 8.11982 6.224 9.62475C6.31634 9.90244 6.32448 10.201 6.24743 10.4832C6.15372 10.8711 5.88823 11.259 5.10736 11.259C4.37595 11.259 3.93345 10.8401 3.93345 10.2065V9.08432H0.781343V9.98158C0.781343 12.5725 2.84544 13.356 5.04489 13.356Z" fill="white"/>
<path d="M41.9722 4.30055C41.9267 4.10268 41.9223 3.89768 41.9591 3.69806C42.0424 3.3283 42.2949 2.92233 43.0159 2.92233C43.1576 2.90902 43.3006 2.92633 43.4349 2.97309C43.5693 3.01985 43.6919 3.09493 43.7942 3.1932C43.8966 3.29147 43.9764 3.41058 44.028 3.54236C44.0797 3.67414 44.102 3.81547 44.0935 3.95664V4.66773H46.9853V3.87131C46.9853 1.36311 44.7182 0.972656 43.081 0.972656C41.0221 0.972656 39.338 1.64754 39.0309 3.52481C38.9367 4.03873 38.9464 4.56614 39.0595 5.07628C39.5593 7.43192 43.6771 8.10939 44.2653 9.60138C44.3549 9.87698 44.3622 10.1725 44.2861 10.4521C44.1924 10.8348 43.9295 11.2278 43.1591 11.2278C42.4329 11.2278 41.993 10.8115 41.993 10.1935V9.06613H38.8929V9.94788C38.8903 12.5336 40.9258 13.3094 43.1018 13.3094C45.1997 13.3094 46.9229 12.6009 47.1988 10.6771C47.3015 10.0525 47.2971 9.41515 47.1858 8.79203C46.6964 6.36658 42.3001 5.65032 41.9722 4.30055Z" fill="white"/>
<path d="M58.209 1.27515H55.2469V9.87543C55.2511 10.0242 55.2416 10.1731 55.2183 10.3202C55.1713 10.5746 55.03 10.8023 54.8223 10.9583C54.6147 11.1144 54.3557 11.1874 54.0965 11.1631C53.8372 11.1874 53.5782 11.1144 53.3706 10.9583C53.1629 10.8023 53.0216 10.5746 52.9746 10.3202C52.9501 10.1733 52.9405 10.0243 52.946 9.87543V1.27515H49.9761V9.61168C49.9761 9.82371 49.9917 10.2607 50.0021 10.3745C50.2077 12.5439 51.9335 13.2473 54.086 13.2473C56.2386 13.2473 57.9644 12.5439 58.1674 10.3745C58.1804 10.2607 58.2012 9.82371 58.1986 9.61168L58.209 1.27515Z" fill="white"/>
<path d="M78.5299 6.37442V8.0681H79.7298V9.75661C79.7326 9.90367 79.723 10.0507 79.7012 10.1962C79.6465 10.5091 79.3524 11.0417 78.5039 11.0417C77.6579 11.0417 77.3638 10.5091 77.3065 10.1988C77.287 10.0522 77.2783 9.90443 77.2805 9.75661V4.44284C77.2776 4.25816 77.2933 4.07365 77.3274 3.89207C77.3924 3.60505 77.6423 3.04911 78.4935 3.04911C79.3888 3.04911 79.6101 3.63608 79.6648 3.89207C79.6876 4.0384 79.6998 4.18617 79.7012 4.33424V4.98586H82.6529V4.59799C82.6567 4.3391 82.6471 4.08018 82.6242 3.82226C82.4082 1.64245 80.5914 0.949463 78.5169 0.949463C76.4424 0.949463 74.6698 1.67348 74.4095 3.8326C74.3861 4.02653 74.36 4.39113 74.36 4.60833V9.49027C74.3598 9.74934 74.3728 10.0083 74.3991 10.266C74.5943 12.3838 76.4424 13.1388 78.5169 13.1388C80.5914 13.1388 82.4368 12.3838 82.6321 10.266C82.6685 9.87814 82.6711 9.71782 82.6737 9.49027V6.38734L78.5299 6.37442Z" fill="white"/>
</g>
<defs>
<clipPath id="clip0_4841_14348">
<rect width="81.8846" height="36.524" fill="white" transform="translate(0.791748 0.905518)"/>
</clipPath>
</defs>
</svg>
