<svg width="92" height="61" viewBox="0 0 92 61" fill="none" xmlns="http://www.w3.org/2000/svg">
<path d="M44.1226 29.8525V37.9228H41.5456V17.9928H48.3801C49.1959 17.9759 50.007 18.1196 50.7666 18.4157C51.5262 18.7119 52.2193 19.1545 52.8058 19.7182C53.3982 20.2476 53.8697 20.8968 54.1885 21.6223C54.5074 22.3478 54.6663 23.1327 54.6545 23.9242C54.6714 24.72 54.515 25.51 54.1959 26.2401C53.8768 26.9702 53.4026 27.6232 52.8058 28.1542C51.6107 29.2864 50.1354 29.852 48.3801 29.8509H44.1226V29.8525ZM44.1226 20.4465V27.4036H48.4442C48.9179 27.4176 49.3894 27.3331 49.8285 27.1557C50.2675 26.9782 50.6645 26.7117 50.9939 26.3731C51.3216 26.0566 51.5821 25.678 51.76 25.2597C51.9379 24.8414 52.0295 24.3919 52.0295 23.9378C52.0295 23.4836 51.9379 23.0342 51.76 22.6158C51.5821 22.1975 51.3216 21.8189 50.9939 21.5024C50.6686 21.1567 50.273 20.8836 49.8335 20.7013C49.3939 20.519 48.9203 20.4316 48.4442 20.4449H44.1226V20.4465ZM60.5927 23.8416C62.4974 23.8416 64.0009 24.3472 65.1031 25.3586C66.2054 26.37 66.756 27.7566 66.7549 29.5186V37.9228H64.29V36.0304H64.178C63.1109 37.5888 61.6917 38.368 59.9204 38.368C58.4084 38.368 57.1434 37.9228 56.1254 37.0323C55.6369 36.6235 55.2463 36.1117 54.9821 35.534C54.718 34.9563 54.5869 34.3273 54.5984 33.6928C54.5984 32.2818 55.1352 31.1597 56.2086 30.3264C57.2821 29.4931 58.7152 29.0754 60.5078 29.0733C62.038 29.0733 63.2982 29.3516 64.2884 29.9082V29.323C64.2913 28.8905 64.1973 28.4627 64.0132 28.0708C63.8291 27.6789 63.5596 27.3325 63.224 27.0569C62.5426 26.4461 61.6545 26.1128 60.7367 26.1235C59.2972 26.1235 58.1582 26.7267 57.3194 27.9331L55.0498 26.5131C56.2983 24.7321 58.1459 23.8416 60.5927 23.8416ZM57.2586 33.7485C57.2569 34.0743 57.3336 34.3959 57.4822 34.6863C57.6309 34.9767 57.8473 35.2277 58.1133 35.4182C58.6833 35.8636 59.3907 36.0996 60.1157 36.0861C61.2031 36.0843 62.2455 35.6543 63.0144 34.8903C63.868 34.092 64.2948 33.1554 64.2948 32.0804C63.4913 31.4443 62.3709 31.1263 60.9336 31.1263C59.8868 31.1263 59.0139 31.377 58.315 31.8784C57.6092 32.3873 57.2586 33.0059 57.2586 33.7485ZM80.9042 24.2868L72.2994 43.9337H69.6392L72.8324 37.0593L67.1743 24.2868H69.9753L74.0649 34.0824H74.1209L78.0984 24.2868H80.9042Z" fill="white"/>
<path d="M33.7091 28.113C33.7101 27.3327 33.6437 26.5539 33.5106 25.7849H22.6426V30.1945H28.8673C28.7399 30.8988 28.4703 31.5702 28.0748 32.1682C27.6792 32.7661 27.1658 33.2783 26.5656 33.6739V36.5363H30.2806C32.4558 34.5437 33.7091 31.5971 33.7091 28.113Z" fill="#4285F4"/>
<path d="M22.6426 39.3016C25.7526 39.3016 28.3711 38.2871 30.2806 36.5378L26.5657 33.6755C25.5317 34.372 24.2 34.7695 22.6426 34.7695C19.6367 34.7695 17.0853 32.7563 16.173 30.0435H12.346V32.9933C13.3052 34.8896 14.776 36.4837 16.5942 37.5976C18.4124 38.7115 20.5065 39.3015 22.6426 39.3016Z" fill="#34A853"/>
<path d="M16.1729 30.0434C15.6906 28.6218 15.6906 27.0823 16.1729 25.6608V22.7109H12.3459C11.539 24.3062 11.1187 26.0667 11.1187 27.8521C11.1187 29.6374 11.539 31.398 12.3459 32.9932L16.1729 30.0434Z" fill="#FBBC04"/>
<path d="M22.6426 20.9347C24.2861 20.908 25.8741 21.5249 27.0634 22.6521L30.3527 19.3842C28.2669 17.4379 25.5038 16.3694 22.6426 16.4026C20.5065 16.4027 18.4124 16.9927 16.5942 18.1066C14.776 19.2206 13.3052 20.8147 12.346 22.7109L16.173 25.6608C17.0853 22.9479 19.6367 20.9347 22.6426 20.9347Z" fill="#EA4335"/>
</svg>
