<svg width="70" height="69" viewBox="0 0 70 69" fill="none" xmlns="http://www.w3.org/2000/svg">
<g clip-path="url(#clip0_4841_14335)">
<path d="M31.0989 43.1862H26.4062L29.339 25.1617H34.0322L31.0989 43.1862ZM22.4584 25.1617L17.9845 37.5591L17.4552 34.8894L17.4556 34.8904L15.8766 26.7846C15.8766 26.7846 15.6857 25.1617 13.6505 25.1617H6.25445L6.16766 25.4669C6.16766 25.4669 8.4294 25.9374 11.0764 27.5271L15.1534 43.1866H20.0428L27.5088 25.1617H22.4584ZM59.3689 43.1862H63.6779L59.921 25.1612H56.1487C54.4067 25.1612 53.9824 26.5044 53.9824 26.5044L46.9836 43.1862H51.8755L52.8537 40.5088H58.8193L59.3689 43.1862ZM54.2052 36.8103L56.6709 30.0651L58.058 36.8103H54.2052ZM47.3505 29.4962L48.0202 25.6255C48.0202 25.6255 45.9538 24.8396 43.7995 24.8396C41.4708 24.8396 35.9406 25.8574 35.9406 30.8066C35.9406 35.4632 42.4312 35.521 42.4312 37.967C42.4312 40.4129 36.6093 39.9746 34.688 38.4322L33.9903 42.4793C33.9903 42.4793 36.0857 43.4972 39.2871 43.4972C42.4895 43.4972 47.3206 41.8391 47.3206 37.3262C47.3206 32.6397 40.7717 32.2034 40.7717 30.1659C40.7721 28.1278 45.3424 28.3896 47.3505 29.4962Z" fill="white"/>
<path d="M17.4556 34.8898L15.8766 26.784C15.8766 26.784 15.6857 25.1611 13.6505 25.1611H6.25445L6.16766 25.4663C6.16766 25.4663 9.72252 26.203 13.1322 28.9633C16.3925 31.6016 17.4556 34.8898 17.4556 34.8898Z" fill="white"/>
</g>
<defs>
<clipPath id="clip0_4841_14335">
<rect width="68.3353" height="68.3353" fill="white" transform="translate(0.755066)"/>
</clipPath>
</defs>
</svg>
