<svg width="69" height="49" viewBox="0 0 69 49" fill="none" xmlns="http://www.w3.org/2000/svg">
<path d="M41.2108 11.5083H27.087V36.827H41.2108V11.5083Z" fill="#FF5F00"/>
<path d="M27.9839 24.1676C27.9816 21.7293 28.5355 19.3223 29.6037 17.1291C30.6718 14.9358 32.2261 13.0137 34.149 11.5083C31.7678 9.64119 28.908 8.48007 25.8966 8.15764C22.8851 7.83521 19.8435 8.36446 17.1193 9.68494C14.3952 11.0054 12.0984 13.0638 10.4915 15.6249C8.88466 18.1859 8.03253 21.1463 8.03253 24.1676C8.03253 27.189 8.88466 30.1493 10.4915 32.7104C12.0984 35.2715 14.3952 37.3299 17.1193 38.6504C19.8435 39.9708 22.8851 40.5001 25.8966 40.1777C28.908 39.8552 31.7678 38.6941 34.149 36.827C32.2261 35.3216 30.6718 33.3995 29.6037 31.2062C28.5356 29.0129 27.9817 26.606 27.9839 24.1676Z" fill="#EB001B"/>
<path d="M60.2645 24.1676C60.2646 27.1889 59.4126 30.1493 57.8058 32.7103C56.199 35.2714 53.9023 37.3298 51.1782 38.6503C48.4541 39.9708 45.4125 40.5001 42.4011 40.1777C39.3897 39.8552 36.53 38.6941 34.1489 36.827C36.07 35.32 37.6231 33.3976 38.6911 31.2047C39.759 29.0118 40.3139 26.6056 40.3139 24.1676C40.3139 21.7297 39.759 19.3235 38.6911 17.1306C37.6231 14.9377 36.07 13.0152 34.1489 11.5083C36.53 9.64118 39.3897 8.48006 42.4011 8.15763C45.4125 7.83521 48.4541 8.36449 51.1782 9.68498C53.9023 11.0055 56.199 13.0639 57.8058 15.6249C59.4126 18.186 60.2646 21.1464 60.2645 24.1676Z" fill="#F79E1B"/>
<path d="M58.7245 34.1452V33.6269H58.9341V33.5213H58.4005V33.6269H58.6101V34.1452H58.7245ZM59.7605 34.1452V33.5203H59.5969L59.4088 33.9501L59.2206 33.5203H59.057V34.1452H59.1725V33.6738L59.3489 34.0803H59.4687L59.6451 33.6728V34.1452H59.7605Z" fill="#F79E1B"/>
</svg>
