<svg width="92" height="61" viewBox="0 0 92 61" fill="none" xmlns="http://www.w3.org/2000/svg">
<path d="M23.7291 19.6042C22.9112 20.5658 21.6026 21.3242 20.2939 21.2159C20.1304 19.9157 20.771 18.5343 21.5208 17.6811C22.3387 16.6925 23.77 15.9883 24.9287 15.9341C25.065 17.2884 24.5333 18.6156 23.7291 19.6042ZM24.915 21.4732C23.0202 21.3648 21.3981 22.5431 20.4984 22.5431C19.5851 22.5431 18.2083 21.5273 16.7088 21.5544C14.7595 21.5815 12.9465 22.6785 11.9514 24.4256C9.90671 27.9197 11.4198 33.0931 13.3964 35.9371C14.3642 37.3456 15.5229 38.8895 17.0496 38.8353C18.4946 38.7811 19.0671 37.9009 20.8119 37.9009C22.5704 37.9009 23.0748 38.8353 24.6015 38.8082C26.1828 38.7811 27.1779 37.3998 28.1457 35.9913C29.2499 34.3932 29.6997 32.8358 29.727 32.7545C29.6997 32.7274 26.6735 31.5763 26.6462 28.1093C26.619 25.211 29.0317 23.8297 29.1408 23.7484C27.7776 21.744 25.6511 21.5273 24.915 21.4732ZM35.8611 17.5457V38.6593H39.16V31.4408H43.7265C47.8978 31.4408 50.8286 28.5968 50.8286 24.4797C50.8286 20.3626 47.9523 17.5457 43.8356 17.5457H35.8611ZM39.16 20.3085H42.9632C45.8258 20.3085 47.4616 21.8253 47.4616 24.4933C47.4616 27.1612 45.8258 28.6916 42.9495 28.6916H39.16V20.3085ZM56.8537 38.8218C58.9257 38.8218 60.8477 37.779 61.7202 36.1267H61.7883V38.6593H64.8418V28.1499C64.8418 25.1027 62.3881 23.139 58.6122 23.139C55.1089 23.139 52.5189 25.1298 52.4235 27.8655H55.3951C55.6405 26.5653 56.8537 25.7121 58.5168 25.7121C60.5342 25.7121 61.6656 26.6466 61.6656 28.3666V29.5313L57.5489 29.775C53.7185 30.0053 51.6465 31.5627 51.6465 34.2713C51.6465 37.007 53.7866 38.8218 56.8537 38.8218ZM57.7398 36.3163C55.9813 36.3163 54.8635 35.4767 54.8635 34.1901C54.8635 32.8629 55.9404 32.0909 57.9988 31.969L61.6656 31.7388V32.9306C61.6656 34.9078 59.9753 36.3163 57.7398 36.3163ZM68.9176 44.4015C72.1347 44.4015 73.6478 43.1826 74.97 39.4854L80.7634 23.3421H77.4101L73.5251 35.8152H73.4569L69.5719 23.3421H66.1231L71.7121 38.7134L71.4122 39.6479C70.9078 41.2324 70.0899 41.8419 68.6313 41.8419C68.3723 41.8419 67.868 41.8148 67.6635 41.7877V44.3202C67.8544 44.3744 68.6722 44.4015 68.9176 44.4015Z" fill="white"/>
</svg>
