<svg width="24" height="24" viewBox="0 0 24 24" fill="none" xmlns="http://www.w3.org/2000/svg">
<g clip-path="url(#clip0_3102_35351)">
<path d="M20.0831 15.1998L21.2851 15.9208C21.3593 15.9652 21.4206 16.0281 21.4633 16.1033C21.5059 16.1784 21.5283 16.2634 21.5283 16.3498C21.5283 16.4363 21.5059 16.5212 21.4633 16.5964C21.4206 16.6716 21.3593 16.7344 21.2851 16.7788L12.5151 22.0408C12.3596 22.1343 12.1815 22.1836 12.0001 22.1836C11.8187 22.1836 11.6406 22.1343 11.4851 22.0408L2.7151 16.7788C2.64095 16.7344 2.57956 16.6716 2.53695 16.5964C2.49433 16.5212 2.47192 16.4363 2.47192 16.3498C2.47192 16.2634 2.49433 16.1784 2.53695 16.1033C2.57956 16.0281 2.64095 15.9652 2.7151 15.9208L3.9171 15.1998L12.0001 20.0498L20.0831 15.1998ZM20.0831 10.4998L21.2851 11.2208C21.3593 11.2652 21.4206 11.3281 21.4633 11.4033C21.5059 11.4784 21.5283 11.5634 21.5283 11.6498C21.5283 11.7363 21.5059 11.8212 21.4633 11.8964C21.4206 11.9716 21.3593 12.0344 21.2851 12.0788L12.0001 17.6498L2.7151 12.0788C2.64095 12.0344 2.57956 11.9716 2.53695 11.8964C2.49433 11.8212 2.47192 11.7363 2.47192 11.6498C2.47192 11.5634 2.49433 11.4784 2.53695 11.4033C2.57956 11.3281 2.64095 11.2652 2.7151 11.2208L3.9171 10.4998L12.0001 15.3498L20.0831 10.4998ZM12.5141 1.30883L21.2851 6.57083C21.3593 6.61522 21.4206 6.67807 21.4633 6.75326C21.5059 6.82845 21.5283 6.9134 21.5283 6.99983C21.5283 7.08625 21.5059 7.1712 21.4633 7.24639C21.4206 7.32158 21.3593 7.38443 21.2851 7.42883L12.0001 12.9998L2.7151 7.42883C2.64095 7.38443 2.57956 7.32158 2.53695 7.24639C2.49433 7.1712 2.47192 7.08625 2.47192 6.99983C2.47192 6.9134 2.49433 6.82845 2.53695 6.75326C2.57956 6.67807 2.64095 6.61522 2.7151 6.57083L11.4851 1.30883C11.6406 1.21538 11.8187 1.16602 12.0001 1.16602C12.1815 1.16602 12.3596 1.21538 12.5151 1.30883H12.5141ZM12.0001 3.33183L5.8871 6.99983L12.0001 10.6678L18.1131 6.99983L12.0001 3.33183Z" fill="#8CA3B8"/>
</g>
<defs>
<clipPath id="clip0_3102_35351">
<rect width="24" height="24" fill="white"/>
</clipPath>
</defs>
</svg>
