<svg width="182" height="40" viewBox="0 0 182 40" fill="none" xmlns="http://www.w3.org/2000/svg">
<path fill-rule="evenodd" clip-rule="evenodd" d="M2.734 1.82607C1.38819 2.82873 0.223252 3.74921 0.145163 3.87138C0.0670734 3.99355 0.0019685 10.0862 0.000322586 17.4107C-0.0024206 30.4874 0.00416316 30.7345 0.363338 31.0916C0.692886 31.4192 0.972874 31.4552 3.19796 31.4552C5.42305 31.4552 5.70304 31.4192 6.03259 31.0916C6.23376 30.8916 6.39963 30.6256 6.40109 30.5007C6.40987 29.7957 6.71711 29.7967 7.82041 30.5056C9.68871 31.7061 11.2017 32.0929 13.9878 32.0829C16.101 32.0753 16.5277 32.0182 17.8265 31.5695C20.6181 30.6052 22.7885 28.8852 24.1881 26.5279C26.4763 22.6742 26.4763 17.17 24.1881 13.2832C22.2456 9.98347 18.69 7.90854 14.5937 7.68419C12.1685 7.55129 11.1035 7.77273 8.08998 9.03627C7.91076 9.11136 7.86138 8.1867 7.86138 4.75568C7.86138 -0.252501 7.95245 0.00293558 6.16737 0.00293558C5.20195 0.00293558 5.12789 0.0423872 2.734 1.82607ZM57.7806 1.82607C56.4348 2.82873 55.2699 3.74921 55.1918 3.87138C55.1137 3.99355 55.0486 10.0862 55.0469 17.4107C55.0442 30.4874 55.0508 30.7345 55.4099 31.0916C55.7486 31.4283 56.0195 31.4552 59.0675 31.4552C62.1156 31.4552 62.3864 31.4283 62.7251 31.0916C63.085 30.7338 63.0909 30.4856 63.0909 15.7696C63.0909 2.52512 63.0583 0.764698 62.8061 0.407088C62.5634 0.0625675 62.3524 0.00293558 61.3744 0.00293558H60.2273L57.7806 1.82607ZM85.3953 1.82607C84.0495 2.82873 82.8846 3.74921 82.8065 3.87138C82.7284 3.99355 82.6633 4.73022 82.6617 5.50817C82.6593 6.6979 82.7098 6.93879 82.979 7.02242C84.4416 7.4773 86.4769 8.74938 88.4842 10.4631L90.7056 12.3598V6.48228C90.7056 -0.343221 90.8 0.00293558 88.9394 0.00293558H87.8421L85.3953 1.82607ZM122.17 1.91116L119.6 3.8192V17.3364C119.6 30.2005 119.617 30.8679 119.935 31.1543C120.422 31.5923 126.738 31.6055 127.177 31.1696C127.434 30.9143 127.464 29.2637 127.464 15.7291C127.464 2.19441 127.434 0.543805 127.177 0.288551C126.981 0.093656 126.548 0.00293558 125.815 0.00293558H124.74L122.17 1.91116ZM37.2135 7.93617C35.1568 8.36632 32.7563 9.62623 31.2165 11.0836C29.0768 13.1087 27.9898 15.2867 27.5962 18.3372C26.7936 24.5597 30.5698 30.0905 36.7563 31.7535C38.4362 32.2051 42.6104 32.208 44.2543 31.7588C50.4786 30.058 54.2885 24.4531 53.4193 18.2761C52.9904 15.2282 51.9116 13.0878 49.7941 11.0836C48.2098 9.58423 45.8344 8.35832 43.6676 7.92235C41.9274 7.5722 38.9228 7.57856 37.2135 7.93617ZM74.8088 7.83636C69.862 8.8012 66.0678 12.288 64.9937 16.8561C64.8247 17.5749 64.7055 18.8725 64.7086 19.9555C64.719 23.3898 65.8542 26.2152 68.1233 28.4554C70.159 30.4649 72.365 31.5519 75.348 32.0149C76.9939 32.2706 79.9435 32.1371 81.4702 31.7382C83.2924 31.2621 85.3946 30.1258 86.7702 28.8737C87.9569 27.7933 89.4254 25.8489 89.4254 25.358C89.4254 25.2353 87.903 23.8154 86.0422 22.2026L82.6589 19.2702V20.0836C82.6589 21.9401 81.4256 23.8546 79.7457 24.6064C78.7095 25.07 76.6674 25.1105 75.6839 24.6868C72.3901 23.268 71.6511 18.4832 74.3445 16.015C75.7847 14.6955 78.0041 14.3986 79.8364 15.2804C80.2725 15.4902 84.1927 18.7377 88.5478 22.4969C92.9029 26.2561 96.7867 29.5639 97.1784 29.8473C98.1513 30.5516 99.9337 31.3688 101.336 31.7533C102.972 32.2022 107.161 32.2122 108.811 31.7711C113.534 30.5083 117.035 26.8819 117.889 22.3649C118.971 16.6519 116.353 11.3187 111.289 8.91574C109.251 7.9489 107.244 7.58547 104.513 7.68855C101.835 7.78982 100.437 8.13943 98.2951 9.24371C96.7609 10.0349 94.5161 12.1848 93.761 13.5863L93.2502 14.5342L93.9438 15.1535C94.3253 15.494 95.8308 16.8021 97.2892 18.0602C100.154 20.5316 100.143 20.528 100.199 19.0015C100.21 18.7016 100.411 18.0471 100.646 17.5471C102.076 14.5004 106.227 13.7799 108.624 16.1625C109.763 17.2948 110.168 18.4629 110.051 20.2782C109.791 24.3015 105.639 26.3554 102.308 24.1079C101.811 23.7723 97.9888 20.54 93.8145 16.925C89.6403 13.31 85.8136 10.0784 85.3107 9.74368C83.1957 8.33614 80.5377 7.62656 77.5003 7.65874C76.465 7.66965 75.254 7.74964 74.8088 7.83636ZM138.254 7.92072C137.6 8.05998 136.318 8.54085 135.405 8.98955C131.815 10.7536 129.638 13.9683 129.11 18.2872C128.617 22.3202 129.85 26.0539 132.564 28.7452C134.838 30.9996 137.809 32.1878 141.151 32.1793C143.412 32.1733 146.043 31.3826 147.515 30.2662C148.243 29.7148 148.246 29.7148 148.389 30.278C148.453 30.5305 148.667 30.8987 148.866 31.0961C149.191 31.4194 149.482 31.4552 151.787 31.4552C154.104 31.4552 154.382 31.4206 154.713 31.0916C155.071 30.7361 155.079 30.4856 155.079 19.8478C155.079 9.53823 155.061 8.95191 154.745 8.66685C154.466 8.4165 153.973 8.36596 151.81 8.36596H149.21L148.898 8.92501C148.234 10.1164 148.247 10.11 147.554 9.58423C145.366 7.9249 141.491 7.23168 138.254 7.92072ZM156.619 8.81738C156.389 9.16608 156.363 9.38316 156.504 9.77186C156.605 10.0486 158.636 14.5664 161.017 19.8115C165.821 30.3916 165.632 29.7697 164.537 31.3983C163.699 32.6449 162.787 33.0443 160.42 33.2014C158.881 33.3036 158.506 33.3856 158.363 33.6514C158.267 33.8303 158.188 35.2033 158.188 36.7026C158.188 38.9384 158.24 39.48 158.475 39.7144C158.703 39.9402 159.194 40 160.823 40C163.18 40 165.139 39.5891 166.653 38.7768C168.481 37.7956 170.393 35.5383 171.871 32.6155C172.18 32.0037 174.63 26.525 177.314 20.4407C181.95 9.93239 182.181 9.35534 181.934 8.91755L181.674 8.45686L178.01 8.40777C174.693 8.36323 174.318 8.38923 174.067 8.68048C173.914 8.85738 172.866 11.5754 171.738 14.7202C170.61 17.8649 169.623 20.5503 169.546 20.6876C169.457 20.845 168.542 18.6987 167.068 14.8789C165.783 11.5468 164.601 8.7183 164.442 8.59321C164.233 8.42868 163.153 8.36596 160.535 8.36596H156.916L156.619 8.81738ZM144.887 15.3329C145.849 15.8952 146.329 16.4077 146.878 17.4562C147.235 18.1372 147.307 18.5487 147.307 19.9106C147.307 21.3877 147.253 21.643 146.758 22.5356C145.854 24.1661 144.317 25.0538 142.356 25.0782C140.954 25.0956 139.783 24.7026 138.835 23.8957C136.12 21.5848 136.644 16.8524 139.794 15.2391C141.272 14.4821 143.502 14.5231 144.887 15.3329ZM14.9022 15.1631C16.7723 16.0436 17.7957 17.7315 17.797 19.9377C17.7988 22.9785 15.6116 25.1165 12.538 25.0782C10.5771 25.0538 9.04022 24.1661 8.1357 22.5356C7.64046 21.643 7.58706 21.3877 7.58706 19.9106C7.58706 18.415 7.63589 18.1887 8.1549 17.2789C9.17719 15.4871 10.4992 14.7497 12.7077 14.7389C13.6841 14.7342 14.2049 14.8348 14.9022 15.1631ZM42.3035 15.0971C43.4906 15.5385 44.5306 16.4943 45.055 17.6253C45.5846 18.7679 45.5826 21.0207 45.0509 22.1831C44.5775 23.2181 43.6643 24.1228 42.6084 24.6029C41.5565 25.0811 39.7125 25.11 38.5441 24.6664C37.4651 24.2566 36.1301 22.8542 35.8115 21.7955C35.4496 20.5931 35.5237 18.613 35.9675 17.6253C37.022 15.2784 39.8054 14.1679 42.3035 15.0971ZM92.2111 31.9551L92.2601 36.273L94.7289 38.134L97.1978 39.9951L98.2614 39.9975C100.098 40.0018 100.032 40.1416 100.032 36.2203V32.8169L98.9483 32.3989C97.4657 31.8275 96.0431 30.8741 94.0548 29.1197C93.1309 28.3043 92.327 27.6373 92.2685 27.6373C92.21 27.6373 92.184 29.5804 92.2111 31.9551Z" fill="white"/>
</svg>
