<svg width="16" height="16" viewBox="0 0 16 16" fill="none" xmlns="http://www.w3.org/2000/svg">
<path d="M0.611572 7.88932C0.611572 3.96326 3.80561 0.77002 7.73086 0.77002C11.6561 0.77002 14.8501 3.96326 14.8501 7.88932C14.8501 11.8146 11.6561 15.0078 7.73086 15.0078C3.80561 15.0078 0.611572 11.8146 0.611572 7.88932ZM1.94669 7.88932C1.94669 11.0786 4.54164 13.6735 7.73086 13.6735C10.9209 13.6735 13.5158 11.0786 13.5158 7.88932C13.5158 4.69929 10.9209 2.10434 7.73086 2.10434C4.54164 2.10434 1.94669 4.69929 1.94669 7.88932ZM7.0637 8.16564V4.32927H8.39802V7.61301L9.98221 9.19722L9.03872 10.1407L7.0637 8.16564Z" fill="white"/>
</svg>
