<svg width="21" height="20" viewBox="0 0 21 20" fill="none" xmlns="http://www.w3.org/2000/svg">
<g clip-path="url(#clip0_900_42029)">
<path d="M17.163 8.83978C17.1627 8.97911 17.1072 9.11265 17.0086 9.21107C16.91 9.3095 16.7763 9.36478 16.637 9.36478H15.175V10.3028H16.637C16.7078 10.2997 16.7785 10.311 16.8448 10.336C16.9112 10.3609 16.9718 10.3991 17.0229 10.4481C17.0741 10.4971 17.1149 10.556 17.1427 10.6211C17.1706 10.6863 17.1849 10.7564 17.1849 10.8273C17.1849 10.8982 17.1706 10.9683 17.1427 11.0335C17.1149 11.0987 17.0741 11.1576 17.0229 11.2066C16.9718 11.2556 16.9112 11.2937 16.8448 11.3187C16.7785 11.3436 16.7078 11.3549 16.637 11.3518H14.65C14.5115 11.3508 14.3791 11.2952 14.2813 11.1971C14.1836 11.099 14.1285 10.9663 14.128 10.8278V6.85178C14.128 6.56478 14.363 6.32678 14.653 6.32678H16.641C16.7802 6.32718 16.9136 6.38287 17.0118 6.48161C17.11 6.58035 17.1649 6.71404 17.1645 6.85328C17.1641 6.99252 17.1084 7.1259 17.0097 7.22407C16.9109 7.32225 16.7772 7.37718 16.638 7.37678H15.176V8.31478H16.638C16.929 8.31478 17.163 8.55178 17.163 8.83978ZM13.065 11.3248C13.0113 11.3418 12.9553 11.3502 12.899 11.3498C12.8167 11.3516 12.7351 11.3337 12.6612 11.2975C12.5872 11.2613 12.5231 11.2079 12.474 11.1418L10.438 8.37778V10.8278C10.428 10.9598 10.3685 11.0832 10.2714 11.1732C10.1744 11.2632 10.0469 11.3132 9.9145 11.3132C9.78213 11.3132 9.65464 11.2632 9.55757 11.1732C9.46049 11.0832 9.401 10.9598 9.391 10.8278V6.85178C9.39073 6.71351 9.44534 6.58078 9.54283 6.48273C9.64032 6.38468 9.77273 6.32931 9.911 6.32878C10.073 6.32878 10.223 6.41478 10.323 6.53978L12.375 9.31478V6.85178C12.375 6.56478 12.61 6.32678 12.9 6.32678C13.187 6.32678 13.425 6.56478 13.425 6.85178V10.8278C13.4249 10.938 13.39 11.0453 13.3254 11.1345C13.2607 11.2238 13.1696 11.2903 13.065 11.3248ZM8.115 11.3518C7.97636 11.351 7.84364 11.2955 7.7457 11.1974C7.64776 11.0993 7.59253 10.9665 7.592 10.8278V6.85178C7.592 6.56478 7.828 6.32678 8.117 6.32678C8.406 6.32678 8.641 6.56478 8.641 6.85178V10.8278C8.64021 10.9669 8.58447 11.1 8.48594 11.1982C8.38741 11.2963 8.25408 11.3516 8.115 11.3518ZM6.585 11.3518H4.598C4.45918 11.351 4.32625 11.2956 4.22799 11.1975C4.12973 11.0995 4.07405 10.9666 4.073 10.8278V6.85178C4.08447 6.72045 4.14475 6.59819 4.24194 6.50913C4.33913 6.42006 4.46617 6.37065 4.598 6.37065C4.72983 6.37065 4.85687 6.42006 4.95406 6.50913C5.05125 6.59819 5.11153 6.72045 5.123 6.85178V10.3018H6.587C6.72624 10.3018 6.85977 10.3571 6.95823 10.4556C7.05669 10.554 7.112 10.6876 7.112 10.8268C7.112 10.9661 7.05669 11.0996 6.95823 11.1981C6.85977 11.2965 6.72624 11.3518 6.587 11.3518H6.585ZM10.5 0.571777C4.987 0.571777 0.5 4.21478 0.5 8.68978C0.5 12.6998 4.058 16.0588 8.863 16.6968C9.188 16.7648 9.632 16.9118 9.744 17.1888C9.844 17.4388 9.81 17.8268 9.776 18.0888L9.639 18.9388C9.602 19.1888 9.439 19.9268 10.513 19.4758C11.589 19.0268 16.277 16.0778 18.377 13.6638C19.813 12.0888 20.5 10.4768 20.5 8.68978C20.5 4.21478 16.012 0.571777 10.5 0.571777Z" fill="white"/>
</g>
<defs>
<clipPath id="clip0_900_42029">
<rect width="21" height="20" fill="white"/>
</clipPath>
</defs>
</svg>
