<svg width="16" height="16" viewBox="0 0 16 16" fill="none" xmlns="http://www.w3.org/2000/svg">
<g clip-path="url(#clip0_3102_35307)">
<path d="M7.08455 1.30045C7.40055 0.464953 8.59955 0.464953 8.91555 1.30045L10.4641 5.39545L15.0451 5.53495C15.9001 5.56095 16.3936 6.68045 15.6021 7.26645L12.0076 9.92845L13.2716 14.0855C13.4086 14.5355 13.1981 14.941 12.8981 15.149C12.6011 15.3545 12.1696 15.4055 11.7996 15.166L8.00105 12.7065L4.20255 15.166C3.83255 15.4055 3.40055 15.3545 3.10405 15.149C2.80405 14.941 2.59355 14.5355 2.73005 14.0855L3.99405 9.92845L0.399552 7.26645C-0.391948 6.67995 0.101552 5.56095 0.956552 5.53495L5.53755 5.39545L7.08605 1.30045H7.08455ZM8.00005 2.64545L6.69655 6.09395C6.55305 6.47445 6.19305 6.70845 5.81155 6.71995L2.05305 6.83445L4.99655 9.01445C5.31555 9.25045 5.46555 9.66445 5.34555 10.06L4.29355 13.52L7.46405 11.4675C7.78955 11.2565 8.21155 11.2565 8.53705 11.4675L11.7076 13.52L10.6556 10.06C10.5351 9.66445 10.6856 9.25045 11.0046 9.01445L13.9481 6.83445L10.1901 6.71995C9.80805 6.70845 9.44855 6.47395 9.30505 6.09395L8.00105 2.64545H8.00005Z" fill="white"/>
</g>
<defs>
<clipPath id="clip0_3102_35307">
<rect width="16" height="16" fill="white"/>
</clipPath>
</defs>
</svg>
