<svg width="16" height="16" viewBox="0 0 16 16" fill="none" xmlns="http://www.w3.org/2000/svg">
<g clip-path="url(#clip0_3102_35304)">
<path d="M14 2.99996H9.35L11.8241 0.879333C12.034 0.699645 12.0584 0.384333 11.8787 0.174645C11.6981 -0.0357921 11.3825 -0.0587609 11.1737 0.120458L8 2.84121L4.825 0.120552C4.617 -0.0586359 4.30156 -0.0356984 4.12 0.174739C3.94062 0.384333 3.96563 0.699645 4.175 0.879333L6.65 2.99996H2C0.895313 2.99996 0 3.89527 0 4.97183V13.9437C0 15.1031 0.895313 16 2 16H14C15.1047 16 16 15.1046 16 14.0281V4.99996C16 3.89683 15.1031 2.99996 14 2.99996ZM15 14C15 14.5512 14.5513 15 14 15H2C1.44875 15 1 14.5512 1 14V4.99996C1 4.44871 1.44875 3.99996 2 3.99996H14C14.5513 3.99996 15 4.44871 15 4.99996V14ZM10.0031 4.99996H4.00313C2.89844 4.99996 2.00312 5.89527 2.00312 6.99996V12C2.00312 13.1046 2.89844 14 4.00313 14L9.975 14C11.0797 14 11.9753 13.1047 11.9753 12V6.99996C12.0031 5.89683 11.1062 4.99996 10.0031 4.99996ZM11 12C11 12.5512 10.5513 13 10 13H4C3.44875 13 3 12.5512 3 12V6.99996C3 6.44871 3.44875 5.99996 4 5.99996H10C10.5513 5.99996 11 6.44871 11 6.99996V12ZM13.5 5.74996C13.0859 5.74996 12.75 6.08558 12.75 6.49996C12.75 6.91402 13.0859 7.24996 13.5 7.24996C13.9144 7.24996 14.25 6.91402 14.25 6.49996C14.25 6.08433 13.9156 5.74996 13.5 5.74996ZM13.5 7.74996C13.0859 7.74996 12.75 8.08558 12.75 8.49996C12.75 8.91402 13.0859 9.24996 13.5 9.24996C13.9144 9.24996 14.25 8.91402 14.25 8.49996C14.25 8.08433 13.9156 7.74996 13.5 7.74996Z" fill="white"/>
</g>
<defs>
<clipPath id="clip0_3102_35304">
<rect width="16" height="16" fill="white"/>
</clipPath>
</defs>
</svg>
