<svg width="16" height="16" viewBox="0 0 16 16" fill="none" xmlns="http://www.w3.org/2000/svg">
<g clip-path="url(#clip0_4911_3008)">
<g clip-path="url(#clip1_4911_3008)">
<path d="M15.0688 6.23403C15.0241 6.10267 14.9393 5.98862 14.8264 5.9079C14.7135 5.82717 14.5782 5.78383 14.4394 5.78394H10.0442L8.63808 1.36565C8.59536 1.23093 8.51085 1.11331 8.39681 1.02984C8.28277 0.946364 8.14512 0.901367 8.00379 0.901367C7.86246 0.901367 7.7248 0.946364 7.61076 1.02984C7.49672 1.11331 7.41222 1.23093 7.3695 1.36565L5.96332 5.78397H1.56724C1.42859 5.78415 1.29345 5.82758 1.18065 5.90822C1.06786 5.98885 0.983029 6.10266 0.937988 6.23379C0.892948 6.36492 0.889941 6.50684 0.929386 6.63976C0.96883 6.77268 1.04876 6.88998 1.15804 6.97532L4.80304 9.8107L3.58862 14.2645C3.55146 14.4008 3.55862 14.5454 3.60906 14.6774C3.6595 14.8094 3.7506 14.9219 3.86919 14.9987C3.98779 15.0755 4.12773 15.1126 4.2688 15.1046C4.40986 15.0966 4.54473 15.044 4.65391 14.9543L8.00333 12.1952L11.3537 14.9543C11.4628 15.044 11.5977 15.0966 11.7388 15.1046C11.8798 15.1126 12.0198 15.0755 12.1384 14.9987C12.257 14.9219 12.3481 14.8094 12.3985 14.6774C12.4489 14.5454 12.4561 14.4008 12.4189 14.2645L11.2045 9.8107L14.8487 6.97529C14.9581 6.89015 15.0382 6.77291 15.0777 6.63998C15.1172 6.50706 15.1141 6.36511 15.0688 6.23403ZM10.0354 9.03217C9.93181 9.11293 9.85447 9.22254 9.81308 9.34719C9.77169 9.47183 9.76811 9.60594 9.80279 9.73261L10.5831 12.5938L8.42679 10.8183C8.30766 10.7202 8.15813 10.6665 8.00379 10.6665C7.84945 10.6665 7.69991 10.7202 7.58078 10.8183L5.42448 12.5938L6.2048 9.73263C6.23953 9.60588 6.23589 9.47167 6.19433 9.34698C6.15277 9.2223 6.07516 9.11274 5.97132 9.03218L3.50784 7.11554H6.4498C6.59113 7.11584 6.72888 7.07107 6.84302 6.98774C6.95717 6.90441 7.04177 6.78685 7.08454 6.65215L8.00335 3.76344L8.92305 6.65215C8.96573 6.78673 9.05019 6.9042 9.16417 6.98753C9.27815 7.07085 9.41571 7.11569 9.5569 7.11554H12.4997L10.0354 9.03217Z" fill="#8CA3B8"/>
</g>
</g>
<defs>
<clipPath id="clip0_4911_3008">
<rect width="16" height="16" fill="white"/>
</clipPath>
<clipPath id="clip1_4911_3008">
<rect width="16" height="16" fill="white"/>
</clipPath>
</defs>
</svg>
