<svg width="16" height="16" viewBox="0 0 16 16" fill="none" xmlns="http://www.w3.org/2000/svg">
<mask id="mask0_113_20" style="mask-type:alpha" maskUnits="userSpaceOnUse" x="0" y="0" width="16" height="16">
<rect width="16" height="16" fill="#D9D9D9"/>
</mask>
<g mask="url(#mask0_113_20)">
<path fill-rule="evenodd" clip-rule="evenodd" d="M9.43571 1.33342C8.89622 0.888861 8.10378 0.888861 7.56432 1.33342L2.50877 5.49957C2.186 5.76555 2 6.15546 2 6.56607V13.6001C2 14.3733 2.6467 15 3.44444 15H13.5556C14.3533 15 15 14.3733 15 13.6001V6.56607C15 6.15546 14.814 5.76555 14.4913 5.49957L9.43571 1.33342ZM8.5 2.39991L13.5556 6.56607V13.6001H10.6688V10.952C10.6688 10.1788 10.0221 9.55204 9.22432 9.55204H7.77778C6.98003 9.55204 6.33333 10.1788 6.33333 10.952V13.6001H3.44444V6.56607L8.5 2.39991ZM7.77778 13.6001H9.22432V10.952H7.77778V13.6001Z" fill="#8CA3B8"/>
</g>
</svg>
