<svg width="16" height="16" viewBox="0 0 16 16" fill="none" xmlns="http://www.w3.org/2000/svg">
<g clip-path="url(#clip0_4911_4169)">
<path d="M1.33325 10.6668V5.3335C1.33325 3.12436 3.12411 1.3335 5.33325 1.3335H10.6666C12.8757 1.3335 14.6666 3.12436 14.6666 5.3335V10.6668C14.6666 12.876 12.8757 14.6668 10.6666 14.6668H5.33325C3.12411 14.6668 1.33325 12.876 1.33325 10.6668Z" stroke="#8CA3B8" stroke-width="1.5"/>
<path d="M4 8.66667V7.33333C4 6.59695 4.59695 6 5.33333 6H7.33333C8.06973 6 8.66667 6.59695 8.66667 7.33333V8.66667C8.66667 9.40307 8.06973 10 7.33333 10H5.33333C4.59695 10 4 9.40307 4 8.66667Z" stroke="#8CA3B8" stroke-width="1.5"/>
<path d="M11.3599 6.14665L9.31552 7.67998C9.10218 7.83998 9.10218 8.15998 9.31552 8.31998L11.3599 9.85331C11.6237 10.0511 11.9999 9.86291 11.9999 9.53331V6.46665C11.9999 6.13703 11.6237 5.94887 11.3599 6.14665Z" stroke="#8CA3B8" stroke-width="1.5" stroke-linecap="round" stroke-linejoin="round"/>
</g>
<defs>
<clipPath id="clip0_4911_4169">
<rect width="16" height="16" fill="white"/>
</clipPath>
</defs>
</svg>
