<svg width="32" height="32" viewBox="0 0 32 32" fill="none" xmlns="http://www.w3.org/2000/svg">
<g clip-path="url(#clip0_99_30)">
<path d="M31.5 16C31.5 24.5604 24.5604 31.5 16 31.5C7.43959 31.5 0.5 24.5604 0.5 16C0.5 7.43959 7.43959 0.5 16 0.5C24.5604 0.5 31.5 7.43959 31.5 16Z" fill="#072537" stroke="white"/>
<path d="M10.8011 20.2607C10.6107 20.2607 10.4834 20.3881 10.4834 20.5661C10.4834 20.7571 10.6107 20.876 10.8011 20.876C10.9791 20.876 11.1059 20.7571 11.1059 20.5661C11.1059 20.3875 10.9785 20.2607 10.8011 20.2607Z" fill="white"/>
<path d="M13.0733 20.3356C12.4908 20.3356 12.0722 19.9458 12.0722 19.3906C12.0722 18.8354 12.4866 18.4369 13.0733 18.4369C13.4922 18.4369 13.8159 18.6261 13.9723 18.9423H14.5798C14.3993 18.2967 13.8126 17.8862 13.0736 17.8862C12.1707 17.8862 11.4978 18.5234 11.4978 19.39C11.4978 20.2566 12.1746 20.8859 13.0736 20.8859C13.8123 20.8859 14.4038 20.4755 14.5798 19.8305H13.9723C13.8126 20.1428 13.4877 20.3356 13.0733 20.3356Z" fill="white"/>
<path d="M7.06716 15.8993C5.93316 15.8993 5.11823 15.1196 5.11823 14.0091C5.11823 12.8986 5.92498 12.1015 7.06716 12.1015C7.88267 12.1015 8.51285 12.4799 8.81733 13.1124H10C9.6486 11.8211 8.50642 11 7.06775 11C5.30999 11 4 12.2745 4 14.0079C4 15.7413 5.31759 17 7.06775 17C8.50584 17 9.65737 16.1791 10 14.889H8.81733C8.50642 15.5136 7.87391 15.8993 7.06716 15.8993Z" fill="white"/>
<path d="M16.3384 17.8965C15.4415 17.8965 14.7725 18.5292 14.7725 19.3903C14.7725 20.2515 15.4454 20.8758 16.3384 20.8758C17.2314 20.8758 17.9004 20.2716 17.9004 19.3903C17.9004 18.509 17.232 17.8965 16.3384 17.8965ZM16.3384 20.3293C15.7595 20.3293 15.3433 19.9416 15.3433 19.3906C15.3433 18.8396 15.755 18.4436 16.3384 18.4436C16.9218 18.4436 17.329 18.8276 17.329 19.3906C17.329 19.9536 16.929 20.3293 16.3384 20.3293Z" fill="white"/>
<path d="M20.7618 17.9004L19.8075 20.1635L18.8493 17.9004H18.0945V20.8734H18.6881V18.9579L19.5072 20.8734H20.1048L20.9239 18.9664V20.8734H21.5176V17.9004H20.7618Z" fill="white"/>
<path d="M13.7864 11.1143H12.4607L9.53849 16.9479L9.47754 17.0693H10.7942L11.5001 15.6649L12.0439 14.5761L13.1228 12.4325L14.2023 14.5761L14.7539 15.6649L15.4598 17.0693H16.7855L13.7864 11.1143Z" fill="white"/>
<path d="M20.1681 14.0918L22.9891 11.1143H21.3749L19.0547 13.5474H18.3752V11.1143H17.1858V17.0693H18.3752V14.6355H19.0301L21.5535 17.0687H23.2111L20.1681 14.0918Z" fill="white"/>
<path d="M28.5085 12.2115V11.1143H23.5967V17.0693H28.5085V15.9637H24.7866V14.6364H28.3722V13.5387H24.7866V12.2118L28.5085 12.2115Z" fill="white"/>
<path d="M12.4177 17.0795H13.8473L13.1327 16.3643L12.4177 17.0795Z" fill="white"/>
<path d="M13.8473 15.2212L13.1326 14.5054L12.4183 15.2212L11.7036 15.9365L12.4183 16.6523L13.1326 15.9365L13.8473 16.6523L14.5616 15.9365L13.8473 15.2212Z" fill="white"/>
</g>
<defs>
<clipPath id="clip0_99_30">
<rect width="32" height="32" fill="white"/>
</clipPath>
</defs>
</svg>
