<svg width="160" height="20" viewBox="0 0 160 20" fill="none" xmlns="http://www.w3.org/2000/svg">
<g clip-path="url(#clip0_47_2)">
<path d="M34.392 0.0922852H29.9634L20.2035 19.5088L20 19.9115H24.3999L26.7557 15.2374L28.571 11.6128L32.1761 4.47789L35.7813 11.6128L37.6252 15.2374L39.9809 19.9115H44.4095L34.392 0.0922852Z" fill="white"/>
<path d="M55.711 10.0019L65.1372 0.0922852H59.7422L51.9914 8.19122H49.7215V0.0922852H45.7476V19.9115H49.7215V11.8126H51.9088L60.3399 19.9115H65.8779L55.7142 10.0019H55.711Z" fill="white"/>
<path d="M83.5765 3.7422V0.0922852H67.1689V19.9115H83.5765V16.2299H71.1429V11.8126H83.1219V8.15951H71.1429V3.7422H83.5765Z" fill="white"/>
<path d="M88.288 15.8301C87.0131 15.8301 86.1611 16.6799 86.1611 17.8691C86.1611 19.1407 87.0131 19.9335 88.288 19.9335C89.4802 19.9335 90.3322 19.1407 90.3322 17.8691C90.3322 16.6799 89.4802 15.8301 88.288 15.8301Z" fill="white"/>
<path d="M103.494 16.3279C99.5929 16.3279 96.7921 13.7276 96.7921 10.027C96.7921 6.3263 99.5643 3.67211 103.494 3.67211C106.295 3.67211 108.463 4.93103 109.509 7.04297H113.575C112.367 2.73981 108.441 0 103.497 0C97.4534 0 92.9517 4.24608 92.9517 10.027C92.9517 15.8078 97.482 20 103.497 20C108.441 20 112.396 17.2602 113.575 12.9602H109.509C108.438 15.0436 106.269 16.3279 103.494 16.3279Z" fill="white"/>
<path d="M125.344 0.0664062C119.342 0.0664062 114.866 4.28711 114.866 10.0268C114.866 15.7664 119.367 19.9332 125.344 19.9332C131.321 19.9332 135.794 15.9059 135.794 10.0268C135.794 4.14759 131.321 0.0664062 125.344 0.0664062ZM125.344 16.2865C121.469 16.2865 118.687 13.702 118.687 10.0268C118.687 6.35149 121.443 3.71315 125.344 3.71315C129.245 3.71315 131.976 6.27221 131.976 10.0268C131.976 13.7813 129.302 16.2865 125.344 16.2865Z" fill="white"/>
<path d="M154.945 0.0922852L148.558 15.1835L142.143 0.0922852H137.091V19.9115H141.065V7.13842L146.546 19.9084H150.548L156.029 7.1955V19.9115H160.003V0.0922852H154.951H154.945Z" fill="white"/>
<path d="M29.8203 19.9464H34.5954L32.2078 17.5649L29.8203 19.9464Z" fill="white"/>
<path d="M34.5957 13.7594L32.2081 11.3779L29.8206 13.7594L27.4331 16.1409L29.8206 18.5224L32.2081 16.1409L34.5957 18.5224L36.9832 16.1409L34.5957 13.7594Z" fill="white"/>
<path d="M10.5421 16.3279C6.64121 16.3279 3.8404 13.7276 3.8404 10.027C3.8404 6.3263 6.61261 3.67211 10.5421 3.67211C13.3431 3.67211 15.5111 4.93103 16.5571 7.04297H20.6231C19.4151 2.73981 15.4891 0 10.5451 0C4.50171 0 0 4.24608 0 10.027C0 15.8078 4.5303 20 10.5451 20C15.4891 20 19.4441 17.2602 20.6231 12.9602H16.5571C15.4861 15.0436 13.3171 16.3279 10.5421 16.3279Z" fill="white"/>
</g>
<defs>
<clipPath id="clip0_47_2">
<rect width="160" height="20" fill="white"/>
</clipPath>
</defs>
</svg>
