<svg width="18" height="18" viewBox="0 0 18 18" fill="none" xmlns="http://www.w3.org/2000/svg">
<path fill-rule="evenodd" clip-rule="evenodd" d="M6.23306 2.7607L3.46828 5.5267L4.47476 6.53336C5.02833 7.08703 5.49261 7.54003 5.50651 7.54003C5.5204 7.54003 6.3121 6.75933 7.26582 5.80514L8.99987 4.07025L10.7342 5.80514C11.6881 6.75933 12.4799 7.54003 12.4938 7.54003C12.5078 7.54003 12.9725 7.08647 13.5265 6.53214L14.5337 5.52424L11.7729 2.76478C10.2545 1.24707 9.00889 0.00291769 9.00496 5.11098e-06C9.00104 -0.00290747 7.7537 1.2394 6.23306 2.7607ZM7.96823 7.96438L6.93671 8.99654L7.96848 10.0285L9.00023 11.0605L10.038 10.0221L11.0757 8.98365L10.0506 7.95792C9.48684 7.39376 9.01975 6.93218 9.01266 6.93218C9.00557 6.93218 8.53557 7.39668 7.96823 7.96438ZM1.01886 7.97704L0 8.99654L1.00646 10.0032C1.56 10.5568 2.02428 11.0098 2.0382 11.0098C2.05213 11.0098 2.51633 10.5567 3.06975 10.0029L4.07595 8.99609L3.05684 7.97679L2.03775 6.95751L1.01886 7.97704ZM14.9556 7.96438C14.4022 8.51815 13.9494 8.98261 13.9494 8.99654C13.9494 9.02965 15.9292 11.0098 15.9623 11.0098C15.9762 11.0098 16.4404 10.5567 16.9938 10.0029L18 8.99609L16.9809 7.97679L15.9618 6.95751L14.9556 7.96438ZM4.48732 11.4467L3.46843 12.4662L6.23425 15.2331L9.00008 18L11.7676 15.2312L14.5352 12.4625L13.5144 11.4457L12.4937 10.429L10.7468 12.1756L8.9999 13.9223L7.25304 12.1748L5.50618 10.4272L4.48732 11.4467Z" fill="#F3BA2D"/>
</svg>
