<svg width="19" height="18" viewBox="0 0 19 18" fill="none" xmlns="http://www.w3.org/2000/svg">
<path d="M18.2297 11.1771C17.0277 15.9986 12.1443 18.9329 7.32228 17.7306C2.50226 16.5285 -0.431999 11.6449 0.770544 6.82378C1.97203 2.00177 6.8554 -0.932704 11.676 0.269311C16.4977 1.47133 19.4317 6.35553 18.2296 11.1772L18.2297 11.1771H18.2297Z" fill="#F7931A"/>
<path d="M13.4686 7.71772C13.6477 6.52002 12.7359 5.87621 11.489 5.44672L11.8935 3.82433L10.9059 3.57824L10.5121 5.15792C10.2525 5.09316 9.98585 5.03215 9.72084 4.97166L10.1175 3.38155L9.13048 3.13547L8.72576 4.75733C8.51091 4.70842 8.29989 4.66007 8.09515 4.60913L8.09629 4.60402L6.73437 4.26393L6.47166 5.31875C6.47166 5.31875 7.20437 5.48671 7.18893 5.49705C7.58886 5.59686 7.66118 5.8616 7.64917 6.07144L7.18841 7.91973C7.21594 7.92672 7.25166 7.93684 7.29108 7.95268C7.25813 7.94449 7.22307 7.93556 7.18669 7.92685L6.54085 10.516C6.49198 10.6375 6.36793 10.8199 6.08832 10.7506C6.09822 10.765 5.37051 10.5715 5.37051 10.5715L4.88019 11.702L6.16539 12.0224C6.40448 12.0823 6.63878 12.1451 6.86951 12.2041L6.46083 13.8451L7.44729 14.0912L7.85201 12.4676C8.1215 12.5407 8.38303 12.6082 8.63906 12.6718L8.2357 14.2878L9.22335 14.5338L9.63198 12.8959C11.3161 13.2146 12.5823 13.0861 13.1153 11.5629C13.5448 10.3365 13.094 9.62914 12.208 9.16784C12.8533 9.01902 13.3393 8.5946 13.4689 7.71785L13.4686 7.71763L13.4686 7.71772ZM11.2121 10.8818C10.9069 12.1082 8.84208 11.4453 8.17262 11.279L8.71494 9.10498C9.38436 9.2721 11.5311 9.60283 11.2122 10.8818H11.2121ZM11.5176 7.69995C11.2392 8.81548 9.52055 8.24874 8.96305 8.10977L9.45474 6.13804C10.0122 6.27701 11.8076 6.53638 11.5177 7.69995H11.5176Z" fill="white"/>
</svg>
