<svg width="18" height="18" viewBox="0 0 18 18" fill="none" xmlns="http://www.w3.org/2000/svg">
<path d="M8.87885 0C7.12278 0 5.40615 0.52784 3.94603 1.51677C2.48591 2.50571 1.34788 3.91131 0.675866 5.55585C0.00384703 7.20038 -0.171984 9.00998 0.170609 10.7558C0.513201 12.5016 1.35883 14.1053 2.60056 15.364C3.84229 16.6226 5.42435 17.4798 7.14667 17.8271C8.869 18.1743 10.6542 17.9961 12.2766 17.3149C13.899 16.6337 15.2857 15.4802 16.2613 14.0001C17.237 12.5201 17.7577 10.78 17.7577 9C17.7577 6.61305 16.8222 4.32387 15.1571 2.63604C13.492 0.948212 11.2337 0 8.87885 0ZM9.15684 14.3841H5.59954V9.59175H4.3456V8.4163H5.59954V3.62496H8.65844C9.38221 3.62496 14.1617 3.4579 14.1617 9.08755C14.1617 14.8098 9.15684 14.3841 9.15684 14.3841Z" fill="#EABA3E"/>
<path d="M8.99787 5.59766H7.60791V8.4155H9.83184V9.58793H7.60791V12.4058H9.08126V12.3917C9.45953 12.3917 12.1789 12.4289 12.1739 9.11896C12.169 5.80899 9.52307 5.59766 8.99787 5.59766Z" fill="#EABA3E"/>
</svg>
