<svg width="18" height="18" viewBox="0 0 18 18" fill="none" xmlns="http://www.w3.org/2000/svg">
<path d="M8.92977 5.59537e-08C10.6962 -0.000198392 12.4229 0.527474 13.8917 1.51629C15.3605 2.5051 16.5053 3.91064 17.1814 5.55515C17.8575 7.19967 18.0345 9.0093 17.6901 10.7552C17.3456 12.5011 16.4951 14.1048 15.2461 15.3636C13.9972 16.6224 12.4059 17.4796 10.6734 17.827C8.94101 18.1743 7.14528 17.9962 5.51334 17.315C3.8814 16.6339 2.48654 15.4803 1.50517 14.0002C0.523806 12.5202 1.09766e-08 10.7801 0 9C-1.47178e-08 6.61322 0.940781 4.32419 2.61541 2.63639C4.29004 0.948595 6.56136 0.00026614 8.92977 5.59537e-08ZM7.51399 3.46455L6.12509 8.75418L5.1683 9.12742L4.70832 10.8632L5.66511 10.499L4.86861 13.5251H13.4111L13.9975 11.2796H8.85709L9.44351 9.07926L10.3814 8.72408L10.8414 6.98829L9.9025 7.35251L10.922 3.46154H7.51399V3.46455Z" fill="#4582BB"/>
</svg>
