<svg width="30" height="30" viewBox="0 0 30 30" fill="none" xmlns="http://www.w3.org/2000/svg">
<path d="M0 4C0 1.79086 1.79086 0 4 0H26C28.2091 0 30 1.79086 30 4V26C30 28.2091 28.2091 30 26 30H4C1.79086 30 0 28.2091 0 26V4Z" fill="#223E51"/>
<g clip-path="url(#clip0_4918_4403)">
<path d="M22.5001 20.0001V21.6668H7.50008V20.0001H22.5001ZM10.4967 8.25342L11.6751 9.43175L9.02341 12.0834L11.6751 14.7351L10.4967 15.9134L6.66675 12.0834L10.4967 8.25342ZM22.5001 14.1668V15.8334H15.0001V14.1668H22.5001ZM22.5001 8.33342V10.0001H15.0001V8.33342H22.5001Z" fill="#8CA3B8"/>
</g>
<defs>
<clipPath id="clip0_4918_4403">
<rect width="20" height="20" fill="white" transform="translate(5 5)"/>
</clipPath>
</defs>
</svg>
