<svg width="18" height="16" viewBox="0 0 18 16" fill="none" xmlns="http://www.w3.org/2000/svg">
<path fill-rule="evenodd" clip-rule="evenodd" d="M3.92017 0.585938H14.288C14.5354 0.585938 14.7639 0.717933 14.8873 0.932075L17.9079 6.17493C18.0645 6.4468 18.018 6.78999 17.7945 7.01047L9.48035 15.2148C9.21103 15.4806 8.77777 15.4806 8.5084 15.2148L0.20546 7.02153C-0.023161 6.79593 -0.0659714 6.44276 0.102146 6.16921L3.3309 0.915255C3.45664 0.710638 3.67978 0.585938 3.92017 0.585938ZM12.9493 2.92668V4.39774H9.99596V5.41768C12.0702 5.52667 13.6264 5.9743 13.638 6.51087L13.6379 7.62946C13.6264 8.16603 12.0702 8.61368 9.99596 8.72269V11.2257H8.03485V8.72269C5.96065 8.61368 4.40438 8.16603 4.39284 7.62946L4.39291 6.51087C4.40445 5.9743 5.96065 5.52667 8.03485 5.41768V4.39774H5.0815V2.92668H12.9493ZM9.0154 7.95418C11.229 7.95418 13.0792 7.57566 13.532 7.07017C13.148 6.64148 11.7592 6.30413 9.99596 6.21151V7.27938C9.67991 7.29598 9.35187 7.30473 9.0154 7.30473C8.67899 7.30473 8.3509 7.29598 8.03485 7.27938V6.21151C6.27165 6.30413 4.8828 6.64148 4.49883 7.07017C4.95163 7.57566 6.80185 7.95418 9.0154 7.95418Z" fill="#4A9B77"/>
</svg>
