<svg width="14" height="14" viewBox="0 0 14 14" fill="none" xmlns="http://www.w3.org/2000/svg">
<path fill-rule="evenodd" clip-rule="evenodd" d="M5.25008 4.08342C5.25008 3.47095 5.43142 3.0497 5.69889 2.78223C5.96637 2.51475 6.38762 2.33341 7.00008 2.33341C7.61255 2.33341 8.0338 2.51475 8.30127 2.78223C8.56874 3.0497 8.75008 3.47095 8.75008 4.08342V4.08821V4.093V4.09778V4.10256V4.10733V4.1121V4.11686V4.12162V4.12636V4.13111V4.13584V4.14057V4.1453V4.15002V4.15473V4.15944V4.16414V4.16884V4.17353V4.17821V4.18289V4.18757V4.19223V4.1969V4.20155V4.2062V4.21085V4.21548V4.22012V4.22474V4.22936V4.23398V4.23859V4.24319V4.24779V4.25238V4.25697V4.26155V4.26613V4.2707V4.27526V4.27982V4.28437V4.28892V4.29346V4.29799V4.30252V4.30704V4.31156V4.31607V4.32058V4.32508V4.32958V4.33406V4.33855V4.34303V4.3475V4.35196V4.35643V4.36088V4.36533V4.36977V4.37421V4.37864V4.38307V4.38749V4.39191V4.39632V4.40072V4.40512V4.40951V4.4139V4.41828V4.42265V4.42702V4.43139V4.43575V4.4401V4.44445V4.44879V4.45313V4.45746V4.46178V4.4661V4.47042V4.47472V4.47903V4.48332V4.48761V4.4919V4.49618V4.50045V4.50472V4.50899V4.51324V4.51749V4.52174V4.52598V4.53022V4.53445V4.53867V4.54289V4.5471V4.55131V4.55551V4.55971V4.5639V4.56808V4.57226V4.57644V4.58061V4.58477V4.58893V4.59308V4.59722V4.60136V4.6055V4.60963V4.61375V4.61787V4.62198V4.62609V4.63019V4.63429V4.63838V4.64247V4.64655V4.65062V4.65469V4.65875V4.66281V4.66686V4.67091V4.67495V4.67899V4.68302V4.68704V4.69106V4.69508V4.69909V4.70309V4.70709V4.71108V4.71507V4.71905V4.72302V4.72699V4.73096V4.73492V4.73887V4.74282V4.74676V4.7507V4.75463V4.75856V4.76248V4.7664V4.77031V4.77421V4.77811V4.78201V4.78589V4.78978V4.79365V4.79753V4.80139V4.80526V4.80911V4.81296V4.81681V4.82065V4.82448V4.82831V4.83214V4.83596V4.83977V4.84358V4.84738V4.85118V4.85497V4.85875V4.86254V4.86631V4.87008V4.87385V4.87761V4.88136V4.88511V4.88885V4.89259V4.89632V4.90005V4.90377V4.90749V4.9112V4.91491V4.91861V4.9223V4.92599V4.92968V4.93336V4.93703V4.9407V4.94437V4.94802V4.95168V4.95532V4.95897V4.9626V4.96624V4.96986V4.97348V4.9771V4.98071V4.98432V4.98792V4.99151V4.9951V4.99869V5.00226V5.00584V5.00941V5.01297V5.01653V5.02008V5.02363V5.02717V5.03071V5.03424V5.03777V5.04129V5.0448V5.04832V5.05182V5.05532V5.05882V5.06231V5.06579V5.06927V5.07275V5.07622V5.07968V5.08314V5.08659V5.09004V5.09348V5.09692V5.10036V5.10378V5.10721V5.11062V5.11404V5.11744V5.12084V5.12424V5.12763V5.13102V5.1344V5.13778V5.14115V5.14451V5.14787V5.15123V5.15458V5.15792V5.16126V5.1646V5.16793V5.17125V5.17457V5.17789V5.1812V5.1845V5.1878V5.19109V5.19438V5.19766V5.20094V5.20422V5.20749V5.21075V5.21401V5.21726V5.22051V5.22375V5.22699V5.23022V5.23345V5.23667V5.23989V5.2431V5.24631V5.24951V5.25271V5.2559V5.25909V5.26227V5.26545V5.26862V5.27178V5.27495V5.2781V5.28125V5.2844V5.28754V5.29068V5.29381V5.29694V5.30006V5.30318V5.30629V5.30939V5.3125V5.31559V5.31868V5.32177V5.32485V5.32793V5.331V5.33407V5.33713V5.34018V5.34324V5.34628V5.34932V5.35236V5.35539V5.35842V5.36144V5.36446V5.36747V5.37047V5.37348V5.37647V5.37946V5.38245V5.38543V5.38841V5.39138V5.39435V5.39731V5.40027V5.40322V5.40617V5.40911V5.41205V5.41498V5.41791V5.42083V5.42375V5.42666V5.42957V5.43247V5.43537V5.43826V5.44115V5.44404V5.44692V5.44979V5.45266V5.45552V5.45838V5.46124V5.46408V5.46693V5.46977V5.4726V5.47543V5.47826V5.48108V5.48389V5.4867V5.48951V5.49231V5.49511V5.4979V5.50068V5.50346V5.50624V5.50901V5.51178V5.51454V5.5173V5.52005V5.5228V5.52554V5.52828V5.53101V5.53374V5.53646V5.53918V5.5419V5.54461V5.54731V5.55001V5.5527V5.55539V5.55808V5.56076V5.56344V5.56611V5.56877V5.57143V5.57409V5.57674V5.57939V5.58203V5.58467V5.5873V5.58993V5.59255V5.59517V5.59778V5.60039V5.603V5.6056V5.60819V5.61078V5.61337V5.61595V5.61852V5.62109V5.62366V5.62622V5.62878V5.63133V5.63388V5.63642V5.63896V5.64149V5.64402V5.64654V5.64906V5.65158V5.65409V5.65659V5.65909V5.66159V5.66408V5.66657V5.66905V5.67153V5.674V5.67647V5.67893V5.68139V5.68384V5.68629V5.68874V5.69117V5.69361V5.69604V5.69847V5.70089V5.7033V5.70572V5.70812V5.71053V5.71292V5.71532V5.71771V5.72009V5.72247V5.72485V5.72722V5.72958V5.73194V5.7343V5.73665V5.739V5.74134V5.74368V5.74602V5.74834V5.75067V5.75299V5.7553V5.75762V5.75992V5.76222V5.76452V5.76681V5.7691V5.77138V5.77366V5.77594V5.77821V5.78047V5.78273V5.78499V5.78724V5.78949V5.79173V5.79397V5.7962V5.79843V5.80066V5.80288V5.80509V5.8073V5.80951V5.81171V5.81391V5.8161V5.81829V5.82047V5.82265V5.82483V5.827V5.82916V5.83133V5.83342H5.25008L5.25008 4.08342ZM4.08341 5.83341L4.08341 4.08342C4.08342 3.23721 4.33941 2.49179 4.87394 1.95727C5.40846 1.42274 6.15388 1.16675 7.00008 1.16675C7.84629 1.16675 8.59171 1.42274 9.12623 1.95727C9.66075 2.4918 9.91675 3.23721 9.91675 4.08342V4.08821V4.093V4.09778V4.10256V4.10733V4.1121V4.11686V4.12162V4.12636V4.13111V4.13584V4.14057V4.1453V4.15002V4.15473V4.15944V4.16414V4.16884V4.17353V4.17821V4.18289V4.18757V4.19223V4.1969V4.20155V4.2062V4.21085V4.21548V4.22012V4.22474V4.22936V4.23398V4.23859V4.24319V4.24779V4.25238V4.25697V4.26155V4.26613V4.2707V4.27526V4.27982V4.28437V4.28892V4.29346V4.29799V4.30252V4.30704V4.31156V4.31607V4.32058V4.32508V4.32958V4.33406V4.33855V4.34303V4.3475V4.35196V4.35643V4.36088V4.36533V4.36977V4.37421V4.37864V4.38307V4.38749V4.39191V4.39632V4.40072V4.40512V4.40951V4.4139V4.41828V4.42265V4.42702V4.43139V4.43575V4.4401V4.44445V4.44879V4.45313V4.45746V4.46178V4.4661V4.47042V4.47472V4.47903V4.48332V4.48761V4.4919V4.49618V4.50045V4.50472V4.50899V4.51324V4.51749V4.52174V4.52598V4.53022V4.53445V4.53867V4.54289V4.5471V4.55131V4.55551V4.55971V4.5639V4.56808V4.57226V4.57644V4.58061V4.58477V4.58893V4.59308V4.59722V4.60136V4.6055V4.60963V4.61375V4.61787V4.62198V4.62609V4.63019V4.63429V4.63838V4.64247V4.64655V4.65062V4.65469V4.65875V4.66281V4.66686V4.67091V4.67495V4.67899V4.68302V4.68704V4.69106V4.69508V4.69909V4.70309V4.70709V4.71108V4.71507V4.71905V4.72302V4.72699V4.73096V4.73492V4.73887V4.74282V4.74676V4.7507V4.75463V4.75856V4.76248V4.7664V4.77031V4.77421V4.77811V4.78201V4.78589V4.78978V4.79365V4.79753V4.80139V4.80526V4.80911V4.81296V4.81681V4.82065V4.82448V4.82831V4.83214V4.83596V4.83977V4.84358V4.84738V4.85118V4.85497V4.85875V4.86254V4.86631V4.87008V4.87385V4.87761V4.88136V4.88511V4.88885V4.89259V4.89632V4.90005V4.90377V4.90749V4.9112V4.91491V4.91861V4.9223V4.92599V4.92968V4.93336V4.93703V4.9407V4.94437V4.94802V4.95168V4.95532V4.95897V4.9626V4.96624V4.96986V4.97348V4.9771V4.98071V4.98432V4.98792V4.99151V4.9951V4.99869V5.00226V5.00584V5.00941V5.01297V5.01653V5.02008V5.02363V5.02717V5.03071V5.03424V5.03777V5.04129V5.0448V5.04832V5.05182V5.05532V5.05882V5.06231V5.06579V5.06927V5.07275V5.07622V5.07968V5.08314V5.08659V5.09004V5.09348V5.09692V5.10036V5.10378V5.10721V5.11062V5.11404V5.11744V5.12084V5.12424V5.12763V5.13102V5.1344V5.13778V5.14115V5.14451V5.14787V5.15123V5.15458V5.15792V5.16126V5.1646V5.16793V5.17125V5.17457V5.17789V5.1812V5.1845V5.1878V5.19109V5.19438V5.19766V5.20094V5.20422V5.20749V5.21075V5.21401V5.21726V5.22051V5.22375V5.22699V5.23022V5.23345V5.23667V5.23989V5.2431V5.24631V5.24951V5.25271V5.2559V5.25909V5.26227V5.26545V5.26862V5.27178V5.27495V5.2781V5.28125V5.2844V5.28754V5.29068V5.29381V5.29694V5.30006V5.30318V5.30629V5.30939V5.3125V5.31559V5.31868V5.32177V5.32485V5.32793V5.331V5.33407V5.33713V5.34018V5.34324V5.34628V5.34932V5.35236V5.35539V5.35842V5.36144V5.36446V5.36747V5.37047V5.37348V5.37647V5.37946V5.38245V5.38543V5.38841V5.39138V5.39435V5.39731V5.40027V5.40322V5.40617V5.40911V5.41205V5.41498V5.41791V5.42083V5.42375V5.42666V5.42957V5.43247V5.43537V5.43826V5.44115V5.44404V5.44692V5.44979V5.45266V5.45552V5.45838V5.46124V5.46408V5.46693V5.46977V5.4726V5.47543V5.47826V5.48108V5.48389V5.4867V5.48951V5.49231V5.49511V5.4979V5.50068V5.50346V5.50624V5.50901V5.51178V5.51454V5.5173V5.52005V5.5228V5.52554V5.52828V5.53101V5.53374V5.53646V5.53918V5.5419V5.54461V5.54731V5.55001V5.5527V5.55539V5.55808V5.56076V5.56344V5.56611V5.56877V5.57143V5.57409V5.57674V5.57939V5.58203V5.58467V5.5873V5.58993V5.59255V5.59517V5.59778V5.60039V5.603V5.6056V5.60819V5.61078V5.61337V5.61595V5.61852V5.62109V5.62366V5.62622V5.62878V5.63133V5.63388V5.63642V5.63896V5.64149V5.64402V5.64654V5.64906V5.65158V5.65409V5.65659V5.65909V5.66159V5.66408V5.66657V5.66905V5.67153V5.674V5.67647V5.67893V5.68139V5.68384V5.68629V5.68874V5.69117V5.69361V5.69604V5.69847V5.70089V5.7033V5.70572V5.70812V5.71053V5.71292V5.71532V5.71771V5.72009V5.72247V5.72485V5.72722V5.72958V5.73194V5.7343V5.73665V5.739V5.74134V5.74368V5.74602V5.74834V5.75067V5.75299V5.7553V5.75762V5.75992V5.76222V5.76452V5.76681V5.7691V5.77138V5.77366V5.77594V5.77821V5.78047V5.78273V5.78499V5.78724V5.78949V5.79173V5.79397V5.7962V5.79843V5.80066V5.80288V5.80509V5.8073V5.80951V5.81171V5.81391V5.8161V5.81829V5.82047V5.82265V5.82483V5.827V5.82916V5.83133V5.83341H11.0834C12.0499 5.83341 12.8334 6.61692 12.8334 7.58341V11.0834C12.8334 12.0499 12.0499 12.8334 11.0834 12.8334H2.91675C1.95025 12.8334 1.16675 12.0499 1.16675 11.0834V7.58341C1.16675 6.61692 1.95025 5.83341 2.91675 5.83341H4.08341ZM5.24778 7.00008H2.91675C2.59458 7.00008 2.33341 7.26125 2.33341 7.58341V11.0834C2.33341 11.4056 2.59458 11.6667 2.91675 11.6667H11.0834C11.4056 11.6667 11.6667 11.4056 11.6667 11.0834V7.58341C11.6667 7.26125 11.4056 7.00008 11.0834 7.00008H8.75238C8.75162 7.00008 8.75085 7.00008 8.75008 7.00008H5.25008C5.24931 7.00008 5.24854 7.00008 5.24778 7.00008Z" fill="#8CA3B8"/>
</svg>
