<svg width="139" height="28" viewBox="0 0 139 28" fill="none" xmlns="http://www.w3.org/2000/svg">
<g clip-path="url(#clip0_4865_273)">
<path d="M6.58497 26.6251V4.71886L2.37283 9.16453L0.400146 7.15698L6.98337 0.397461H9.86518V26.6251H6.58497Z" fill="#557086"/>
<path d="M15.0022 19.9793C15.0022 16.4787 17.9981 14.0774 21.2695 13.0972C18.2333 12.2221 15.4322 10.2653 15.4322 6.80853C15.4164 2.08281 20.0357 0 24.4093 0C28.7829 0 33.4356 2.08807 33.4356 6.80853C33.4356 10.2653 30.6029 12.2343 27.5684 13.0972C30.8153 14.0774 33.834 16.4822 33.834 19.9793C33.834 24.4232 29.5727 27.0941 24.4093 27.0941C19.246 27.0941 15.0022 24.4634 15.0022 19.9793ZM30.538 19.6292C30.538 16.2127 26.0415 14.7722 24.4269 14.5534C22.8035 14.7477 18.2737 16.1724 18.2737 19.6292C18.2737 22.4629 21.1555 24.1956 24.4269 24.1956C27.6983 24.1956 30.5222 22.4629 30.5222 19.6292H30.538ZM30.1414 7.24609C30.1414 4.53318 27.5842 2.92294 24.4585 2.92294C21.3327 2.92294 18.7774 4.53318 18.7774 7.24609C18.7774 10.4351 22.9246 11.4957 24.4989 11.7705C26.0258 11.4957 30.115 10.4351 30.115 7.24609H30.1414Z" fill="#557086"/>
<path d="M44.224 15.1223V20.5289H41.4651V15.1223H36.7159V12.6125H41.4809V7.39844H44.224V12.6125H48.989V15.1223H44.224Z" fill="#557086"/>
<path d="M68.3961 23.9429C67.9484 24.3459 67.4242 24.6543 66.8549 24.8499C66.2855 25.0454 65.6826 25.124 65.0822 25.0811C62.6404 24.881 60.924 23.1842 60.5775 20.6349C60.2702 18.3066 60.8143 16.2594 62.8067 14.8321C63.8423 14.0993 65.1261 13.8083 66.3758 14.0231C67.6255 14.2378 68.739 14.9406 69.4714 15.9771C69.6032 16.1655 69.722 16.3626 69.8272 16.567C70.0305 16.9799 70.0166 17.202 69.5523 17.3165C69.4864 17.3165 69.4298 17.364 69.3675 17.3825C68.999 17.5155 68.6432 17.8231 68.2644 17.7526C67.8855 17.682 67.8763 17.165 67.6684 16.8712C67.4226 16.5192 67.093 16.2342 66.7094 16.042C66.3258 15.8498 65.9003 15.7566 65.4716 15.7707C65.0429 15.7849 64.6246 15.9059 64.2544 16.1229C63.8843 16.3399 63.5741 16.6461 63.3519 17.0135C62.8975 17.7315 62.6466 18.5598 62.6263 19.4096C62.6059 20.2595 62.8168 21.0989 63.2364 21.8378C63.814 22.8858 64.9032 23.3311 66.1807 23.1472C66.6592 23.0722 67.1038 22.8535 67.4555 22.5199C67.8072 22.1863 68.0494 21.7537 68.15 21.2792C68.2655 20.8478 68.15 20.7437 67.7284 20.7668C67.2318 20.7957 66.7247 20.7668 66.2269 20.7668C65.729 20.7668 65.6112 20.6245 65.6066 20.1653C65.6066 19.0272 65.5835 19.0272 66.682 19.0272H69.6354C69.982 19.0272 70.109 19.1371 70.0801 19.5014V24.2437C70.0801 24.7179 69.8768 24.8833 69.4368 24.8509C69.3498 24.8463 69.2627 24.8463 69.1757 24.8509C68.6559 24.844 68.0784 24.9434 68.3961 23.9429Z" fill="#557086"/>
<path d="M60.5902 5.28615V0.543922C60.5902 0.291774 60.529 0.00839731 60.9783 0.00839731C62.5307 0.0604462 64.0889 -0.0922302 65.6367 0.102085C66.3045 0.173377 66.931 0.460128 67.4219 0.919109C67.9127 1.37809 68.2413 1.98442 68.358 2.6467C68.6421 4.20122 68.0981 5.42263 66.749 6.11662C66.4175 6.2878 66.4221 6.41503 66.5781 6.69494C67.2076 7.82266 67.814 8.9608 68.4723 10.0839C68.6849 10.4633 68.6756 10.6055 68.179 10.6009C66.0906 10.5627 66.5884 10.7999 65.6702 9.15049C65.2717 8.44378 64.9125 7.72782 64.5244 7.00839C64.358 6.70419 62.8819 6.496 62.6832 6.75624C62.621 6.89258 62.5978 7.04354 62.6162 7.19229V9.88958C62.6162 10.402 62.4083 10.5836 61.9116 10.5963C60.633 10.6345 60.633 10.6437 60.633 9.34018L60.5902 5.28615ZM62.5689 3.38926V4.63149C62.5689 4.8501 62.5689 5.02475 62.8726 5.0155C63.6142 5.05016 64.3574 5.02502 65.095 4.94032C65.4756 4.89564 65.8231 4.70171 66.0612 4.40102C66.2993 4.10033 66.4088 3.71738 66.3655 3.33605V3.30945C66.3617 2.93468 66.2169 2.57514 65.96 2.30263C65.703 2.03011 65.3529 1.86468 64.9795 1.83936C64.7189 1.80736 64.4566 1.79153 64.194 1.79194C62.5689 1.75377 62.5689 1.75377 62.5689 3.38001V3.38926Z" fill="#557086"/>
<path d="M81.655 17.9653C83.4915 16.7335 84.6697 16.7855 86.0292 18.1504C86.4162 17.7153 86.9162 17.3964 87.4736 17.2289C88.0309 17.0615 88.6236 17.0521 89.1859 17.2019C89.6768 17.2925 90.1199 17.5539 90.437 17.9399C90.754 18.326 90.9246 18.8118 90.9185 19.3116C90.952 20.9517 90.9185 22.5965 90.9474 24.2412C90.9474 24.6449 90.8007 24.8288 90.3699 24.8438C89.1247 24.9005 89.1247 24.9144 89.1247 23.6722V20.1884C89.1247 19.3498 88.8591 19.004 88.2295 18.8571C87.9162 18.7949 87.5913 18.8344 87.302 18.9698C87.0126 19.1052 86.7739 19.3295 86.6205 19.61C86.3769 20.0805 86.2625 20.6075 86.289 21.1368V24.2887C86.289 24.7201 86.1666 24.8531 85.7312 24.8485C84.4768 24.8485 84.4768 24.8485 84.4768 23.6247V20.407C84.4768 19.4585 84.1071 18.9276 83.4106 18.8328C83.0358 18.8175 82.6671 18.9323 82.367 19.1578C82.0669 19.3833 81.8537 19.7057 81.7635 20.0704C81.5904 20.8637 81.5347 21.6782 81.5984 22.4878V24.1927C81.5984 24.6669 81.3997 24.8566 80.9215 24.8427C79.5008 24.8045 79.7895 25.0081 79.7757 23.7184V18.1978C79.7757 17.8855 79.7526 17.52 80.0933 17.402C80.5559 17.2598 81.0504 17.2598 81.5129 17.402C81.6977 17.4298 81.5556 17.7432 81.655 17.9653Z" fill="#557086"/>
<path d="M120.035 23.71C119.368 24.1865 118.562 24.4282 117.744 24.3971C117.284 24.3831 116.832 24.2769 116.414 24.0848C114.871 23.3642 114.185 21.1851 114.889 19.2639C115.178 18.4972 115.739 17.8644 116.465 17.4872C117.192 17.1101 118.032 17.0154 118.824 17.2213C119.257 17.3687 119.658 17.6007 120.002 17.9037C120.187 17.4295 121.479 17.0941 121.838 17.3913C121.976 17.507 121.919 17.6759 121.919 17.8181C121.919 20.0088 121.947 22.2029 121.919 24.3925C121.886 26.1563 121.111 26.9718 119.378 27.2366C118.471 27.3997 117.539 27.3546 116.652 27.1048C116.25 26.992 115.884 26.7747 115.593 26.4749C115.302 26.175 115.095 25.8034 114.993 25.3976C114.878 25.0425 114.993 24.9234 115.34 24.9234H116.518C116.607 24.9122 116.697 24.9242 116.78 24.9583C116.863 24.9923 116.936 25.0472 116.992 25.1177C117.254 25.4659 117.629 25.7127 118.052 25.8164C118.476 25.9201 118.922 25.8743 119.316 25.6867C119.95 25.3976 120.182 24.8146 120.035 23.71ZM116.527 20.7953C116.527 21.9994 117.227 22.7477 118.335 22.7431C119.443 22.7385 120.148 21.9994 120.148 20.7664C120.148 19.5334 119.472 18.7469 118.345 18.7469C117.219 18.7469 116.518 19.5149 116.527 20.771V20.7953Z" fill="#557086"/>
<path d="M94.2797 17.8312C94.6381 17.5429 95.0525 17.3323 95.4965 17.2128C95.9405 17.0934 96.4045 17.0676 96.859 17.1372C98.7244 17.4842 99.9268 19.3221 99.6992 21.4793C99.6558 21.8492 99.5785 22.2143 99.4682 22.57C98.8202 24.7167 96.4651 25.8872 94.4125 24.3512C94.1145 25.2048 93.3996 24.7826 92.8798 24.7977C92.36 24.8127 92.4859 24.2575 92.4859 23.9256V14.9789C92.4859 14.4434 92.6141 14.2595 93.1685 14.285C94.4749 14.3463 94.3086 14.086 94.3236 15.4416C94.2843 16.1934 94.2797 16.951 94.2797 17.8312ZM97.8488 20.9542C97.8119 20.6602 97.7564 20.3689 97.6825 20.082C97.5947 19.7276 97.3938 19.4116 97.1102 19.182C96.8267 18.9524 96.4761 18.8217 96.1116 18.8097C95.736 18.8006 95.3676 18.9141 95.062 19.1329C94.7563 19.3518 94.53 19.6642 94.4172 20.0231C94.1493 20.7518 94.1779 21.5568 94.4969 22.2646C94.6108 22.565 94.8139 22.8233 95.0789 23.0047C95.3438 23.186 95.6579 23.2818 95.9788 23.279C96.3084 23.2932 96.635 23.2112 96.919 23.043C97.203 22.8749 97.4321 22.6278 97.5786 22.3317C97.7664 21.8949 97.8586 21.4228 97.8488 20.9472V20.9542Z" fill="#557086"/>
<path d="M122.634 10.0816C122.43 10.5177 121.28 10.845 120.859 10.5894C120.692 10.4899 120.73 10.3233 120.73 10.1765V0.597173C120.73 0.202758 120.873 0.0604914 121.265 0.0373586C122.515 -0.0331965 122.515 -0.0436063 122.515 1.2553V3.02612C122.515 3.35807 122.558 3.54314 122.951 3.32453C125.317 2.03025 127.528 3.70391 127.869 6.0357C127.963 6.68562 127.941 7.34719 127.803 7.98926C127.395 9.96596 125.076 11.9218 122.634 10.0816ZM126.051 6.76322C126.045 6.52394 126.024 6.28523 125.989 6.04842C125.926 5.64386 125.725 5.27357 125.421 4.99976C125.117 4.72594 124.728 4.56529 124.319 4.54479C123.931 4.51489 123.545 4.62617 123.233 4.85818C122.92 5.09019 122.701 5.42738 122.617 5.80784C122.374 6.59289 122.442 7.44144 122.806 8.1778C122.947 8.4658 123.172 8.70424 123.451 8.8616C123.73 9.01897 124.05 9.08785 124.369 9.05916C124.666 9.05592 124.955 8.96391 125.2 8.79493C125.444 8.62594 125.633 8.38769 125.741 8.11071C125.944 7.69652 126.05 7.24094 126.048 6.77942L126.051 6.76322Z" fill="#557086"/>
<path d="M87.2454 3.66432C87.6344 3.3277 88.0998 3.09165 88.601 2.97683C89.1021 2.862 89.6238 2.8719 90.1202 3.00566C90.6167 3.13942 91.0728 3.39295 91.4488 3.74409C91.8248 4.09523 92.1091 4.53328 92.2768 5.01991C92.7196 6.12772 92.7581 7.35642 92.3854 8.48983C91.8079 10.3104 89.5832 11.6798 87.2316 10.101C87.2316 10.8737 87.1981 11.5804 87.2316 12.2825C87.2639 12.8457 87.0941 13.0551 86.5016 13.0354C85.3996 12.9926 85.3939 13.0354 85.3939 11.9216V4.36178C85.3939 2.93911 85.2148 3.1473 86.7383 3.11492C87.1218 3.10566 87.2789 3.2329 87.2454 3.66432ZM87.2119 6.78725C87.1738 8.08616 87.7894 8.97677 88.7839 9.07624C89.9864 9.19191 90.7764 8.33252 90.7857 6.87863C90.7857 5.56584 90.0707 4.65094 89.0011 4.61277C87.9315 4.5746 87.2454 5.46521 87.2119 6.78378V6.78725Z" fill="#557086"/>
<path d="M78.4936 24.8242H76.7795C76.694 24.8242 76.5485 24.8242 76.5288 24.7918C76.1823 24.1232 75.785 24.6206 75.4257 24.7536C74.6685 25.0462 73.8353 25.0763 73.059 24.8392C72.598 24.7115 72.1889 24.4416 71.8897 24.0679C71.5905 23.6942 71.4165 23.2356 71.3923 22.7572C71.3776 22.2833 71.5051 21.8159 71.7583 21.4153C72.0116 21.0147 72.3789 20.6993 72.813 20.5099C73.467 20.2644 74.1443 20.0866 74.8343 19.979C75.1508 19.898 75.4777 19.8506 75.7803 19.7558C75.994 19.6945 76.3151 19.7187 76.3198 19.3868C76.3238 19.2434 76.2885 19.1017 76.2176 18.9771C76.1467 18.8525 76.043 18.7497 75.9178 18.6801C75.5279 18.465 75.0687 18.4137 74.641 18.5373C74.2133 18.6609 73.8521 18.9493 73.6366 19.3394C73.6079 19.4317 73.5458 19.5101 73.4625 19.5591C73.3792 19.608 73.2806 19.6241 73.1861 19.6042L72.5335 19.5672C71.6903 19.5094 71.5863 19.3775 71.9363 18.6188C72.0654 18.3153 72.2596 18.0441 72.5052 17.8242C72.7507 17.6043 73.0415 17.4412 73.357 17.3465C74.3792 17.0043 75.4802 16.9761 76.5184 17.2655C77.6839 17.5639 78.1563 18.1712 78.1805 19.3845C78.2036 20.7401 78.1805 22.1003 78.1805 23.4558C78.128 23.9342 78.2383 24.4164 78.4936 24.8242ZM74.5606 23.4026C75.8531 23.4026 76.4826 22.7249 76.359 21.5069C76.359 21.3265 76.359 21.1657 76.0749 21.2409C75.4073 21.4213 74.7165 21.5347 74.0489 21.7151C73.9122 21.7344 73.7826 21.7876 73.6716 21.8698C73.5607 21.952 73.4721 22.0607 73.4138 22.186C73.3555 22.3112 73.3294 22.4491 73.3378 22.5871C73.3463 22.725 73.389 22.8586 73.4621 22.9758C73.5867 23.1382 73.7526 23.2639 73.9424 23.3398C74.1323 23.4157 74.339 23.439 74.541 23.4073L74.5606 23.4026Z" fill="#557086"/>
<path d="M73.8918 7.22472C73.1676 7.22472 72.448 7.25826 71.7238 7.22472C71.189 7.1958 71.2075 7.40978 71.3645 7.80304C71.5109 8.11441 71.7283 8.38701 71.9991 8.59887C72.27 8.81073 72.5867 8.95593 72.9239 9.02278C73.261 9.08962 73.6091 9.07624 73.9401 8.98372C74.2712 8.89119 74.5759 8.72211 74.8297 8.49008C74.9903 8.34319 75.085 7.99273 75.383 8.13499C75.8307 8.3586 76.2612 8.61531 76.6709 8.903C76.761 8.95968 76.6328 9.09153 76.5715 9.17713C75.7953 10.3719 73.8398 11.0729 72.2308 10.7513C70.6218 10.4298 69.6227 9.32865 69.3143 7.59947C69.0059 5.87029 69.6793 4.21976 70.9141 3.42746C71.4373 3.07694 72.0417 2.86712 72.6693 2.81821C73.2969 2.76929 73.9265 2.88292 74.4976 3.14816C75.0687 3.4134 75.5619 3.82133 75.93 4.33271C76.2981 4.84408 76.5286 5.4417 76.5993 6.06807C76.7933 7.45604 76.8545 7.20621 75.5909 7.22472C75.0284 7.23397 74.4601 7.22472 73.8918 7.22472ZM72.9493 5.89227H74.251C74.6819 5.89227 74.7246 5.72224 74.5918 5.3764C74.4764 5.04478 74.2522 4.76206 73.9559 4.57429C73.6595 4.38652 73.3084 4.30478 72.9597 4.34237C72.5971 4.35622 72.2476 4.48156 71.9587 4.70134C71.6698 4.92112 71.4555 5.22467 71.3449 5.57072C71.2698 5.86913 71.3969 5.90152 71.6337 5.89689C72.0691 5.88764 72.5046 5.89689 72.94 5.89689L72.9493 5.89227Z" fill="#557086"/>
<path d="M135.987 7.22459H133.753C133.322 7.22459 133.279 7.38073 133.398 7.73583C133.616 8.2632 134.034 8.68238 134.56 8.90123C135.087 9.12007 135.678 9.12067 136.205 8.90287C136.454 8.79913 136.682 8.64969 136.877 8.4622C136.98 8.31348 137.138 8.2117 137.315 8.17918C137.493 8.14666 137.677 8.18604 137.825 8.2887C137.857 8.31044 137.886 8.33481 137.913 8.36156C138.941 8.99771 138.953 8.99771 138.029 9.78424C135.719 11.7702 132.168 10.8079 131.468 8.01111C130.994 6.02978 131.723 4.05308 133.262 3.26888C135.936 1.92255 138.806 3.77085 138.767 6.79548C138.767 7.11354 138.663 7.21765 138.354 7.21302C137.559 7.21533 136.773 7.22459 135.987 7.22459ZM135.041 5.89214H136.347C136.693 5.89214 136.758 5.79267 136.654 5.47112C136.557 5.1314 136.348 4.8346 136.061 4.62886C135.773 4.42311 135.425 4.32047 135.073 4.3376C134.702 4.33811 134.342 4.45566 134.042 4.67351C133.742 4.89136 133.518 5.19842 133.403 5.55093C133.322 5.83546 133.436 5.89791 133.687 5.89791C134.149 5.88866 134.605 5.89791 135.064 5.89791L135.041 5.89214Z" fill="#557086"/>
<path d="M97.276 10.8123C96.7787 10.8181 96.2852 10.7257 95.8236 10.5404C95.362 10.3551 94.9414 10.0806 94.5858 9.7324C94.2302 9.38426 93.9466 8.96937 93.7512 8.51144C93.5558 8.0535 93.4524 7.5615 93.447 7.06354C93.4447 6.94 93.4493 6.81643 93.4609 6.69342C93.5406 4.34659 95.1934 2.81636 97.5602 2.90079C99.6901 2.96788 101.242 4.73522 101.177 7.01034C101.111 9.28545 99.4718 10.8736 97.276 10.8123ZM99.2396 6.81602C99.2497 6.43035 99.1707 6.04756 99.0086 5.69755C98.8664 5.33823 98.6122 5.03442 98.2839 4.83126C97.9555 4.6281 97.5705 4.53641 97.1859 4.56982C96.8139 4.57187 96.4524 4.69377 96.155 4.91749C95.8575 5.14121 95.6398 5.45486 95.5342 5.81206C95.2883 6.50104 95.3101 7.25743 95.5954 7.93102C95.7675 8.37623 96.1009 8.74009 96.5291 8.94998C96.9573 9.15987 97.4488 9.20036 97.9055 9.06337C98.7291 8.84477 99.235 8.01546 99.235 6.81602H99.2396Z" fill="#557086"/>
<path d="M103.922 3.75951C104.585 3.16077 105.456 2.84602 106.348 2.88277C106.904 2.88213 107.439 3.09603 107.842 3.48006C108.245 3.86409 108.484 4.38873 108.511 4.94506C108.586 6.66961 108.554 8.40458 108.577 10.1592C108.577 10.4807 108.455 10.6322 108.103 10.6322C106.731 10.7421 106.736 10.7479 106.736 9.39119V6.1017C106.736 5.26661 106.352 4.8028 105.718 4.71374C105.369 4.65283 105.01 4.71863 104.706 4.8993C104.401 5.07996 104.171 5.36361 104.056 5.69919C103.923 6.09438 103.864 6.51083 103.882 6.92755V9.95101C103.882 10.4252 103.772 10.6242 103.257 10.6195C102.002 10.6195 102.002 10.6438 102.002 9.38772V4.00124C102.002 3.11526 102.002 3.11526 102.864 3.11063C102.974 3.11757 103.084 3.11757 103.194 3.11063C103.623 3.05858 103.964 3.12451 103.922 3.75951Z" fill="#557086"/>
<path d="M112.897 10.8124C111.772 10.8116 110.678 10.4464 109.778 9.77143C109.489 9.55283 109.451 9.39668 109.778 9.19311C109.925 9.09668 110.059 8.98375 110.18 8.85653C110.536 8.47715 110.825 8.35339 111.308 8.78019C111.633 9.04685 112.022 9.22493 112.437 9.29726C112.851 9.36958 113.278 9.33372 113.674 9.19311C114.048 9.08786 114.385 8.88892 114.385 8.43898C114.385 7.98905 113.995 7.91271 113.65 7.82712C112.803 7.6143 111.917 7.56225 111.109 7.19212C109.593 6.49814 109.334 4.82217 110.55 3.69907C110.753 3.49569 110.994 3.33453 111.26 3.22484C111.994 2.90687 112.799 2.79277 113.592 2.89454C114.385 2.99632 115.135 3.3102 115.765 3.80316C116.125 4.07382 116.281 4.33869 115.812 4.65214C115.742 4.70331 115.678 4.76359 115.623 4.83142C115.244 5.24434 114.96 5.55201 114.44 4.88347C113.966 4.30515 113.218 4.24384 112.494 4.37223C112.11 4.43816 111.742 4.58968 111.708 5.03614C111.675 5.48261 112.073 5.6561 112.437 5.7417C113.119 5.89784 113.811 6.01235 114.492 6.15924C115.6 6.39057 116.238 6.99781 116.385 7.90346C116.44 8.38568 116.349 8.87335 116.122 9.30234C115.895 9.73133 115.544 10.0816 115.115 10.307C114.435 10.6734 113.668 10.8481 112.897 10.8124Z" fill="#557086"/>
<path d="M80.8037 10.8032C79.7973 10.758 78.8285 10.4075 78.0257 9.79812C77.722 9.57604 77.6423 9.3956 78.0257 9.177C78.1005 9.13108 78.1689 9.07547 78.229 9.0116C78.6645 8.56167 79.0191 8.28639 79.6486 8.86471C79.9728 9.11468 80.3572 9.27437 80.7629 9.32759C81.1686 9.38081 81.5812 9.32566 81.9587 9.16775C82.1347 9.13777 82.2943 9.04598 82.4088 8.90883C82.5233 8.77169 82.5853 8.59817 82.5836 8.4194C82.5836 7.99723 82.2244 7.91163 81.8975 7.84108C81.1964 7.67915 80.4768 7.56117 79.7907 7.36686C78.6356 7.03027 78.0154 6.31894 77.983 5.3809C77.9903 4.87506 78.159 4.38482 78.4646 3.98191C78.7701 3.57899 79.1963 3.28455 79.6809 3.14165C80.3809 2.8804 81.1356 2.80162 81.8743 2.9127C82.613 3.02377 83.3114 3.32106 83.9038 3.77664C84.3289 4.09009 84.471 4.37 83.965 4.72509C83.93 4.74955 83.8982 4.7783 83.8703 4.81068C83.4684 5.2849 83.1554 5.52664 82.5917 4.87661C82.028 4.22658 81.2333 4.22426 80.4571 4.46137C80.3058 4.48947 80.1688 4.56926 80.0696 4.68717C79.9704 4.80507 79.9151 4.95377 79.9131 5.10794C79.9129 5.25253 79.9652 5.39226 80.0601 5.50119C80.1551 5.61011 80.2863 5.6808 80.4294 5.70014C81.1721 5.88057 81.9252 6.01821 82.6679 6.17436C83.823 6.42535 84.4663 7.04184 84.5992 8.02498C84.6287 8.50805 84.5142 8.989 84.2703 9.40683C84.0264 9.82465 83.6641 10.1605 83.2293 10.3718C82.4755 10.7355 81.6364 10.8847 80.8037 10.8032Z" fill="#557086"/>
<path d="M108.92 18.0937C109.413 17.5962 110.048 17.2647 110.738 17.1452C111.075 17.0613 111.426 17.0543 111.766 17.1248C112.105 17.1954 112.425 17.3417 112.7 17.5528C112.976 17.7639 113.2 18.0345 113.357 18.3443C113.514 18.6542 113.599 18.9955 113.606 19.3428C113.682 21.0015 113.635 22.6601 113.654 24.3338C113.654 24.6946 113.517 24.808 113.148 24.8461C111.827 24.9213 111.827 24.9306 111.827 23.6328V20.348C111.827 19.551 111.438 19.034 110.824 18.9253C110.475 18.8646 110.116 18.9293 109.81 19.1079C109.504 19.2865 109.271 19.5676 109.152 19.9015C109.008 20.3158 108.937 20.7524 108.944 21.1912V24.2771C108.944 24.7085 108.793 24.8461 108.367 24.8554C107.096 24.8554 107.096 24.8878 107.096 23.656V18.0624C107.096 17.4656 107.305 17.2667 107.859 17.328C107.989 17.3419 108.121 17.3419 108.251 17.328C108.721 17.2354 109.048 17.3546 108.92 18.0937Z" fill="#557086"/>
<path d="M130.524 5.36149V9.96608C130.524 10.497 130.391 10.6959 129.831 10.6866C128.647 10.6624 128.647 10.6866 128.647 9.51962V0.960475C128.647 0.0131862 128.647 0.0131862 129.594 0.0131862C129.725 0.0224406 129.856 0.0224406 129.987 0.0131862C130.4 -0.0400193 130.503 0.14967 130.499 0.544084V5.33952L130.524 5.36149Z" fill="#557086"/>
<path d="M102.526 19.5198V24.1799C102.526 24.6541 102.431 24.8438 101.91 24.8392C100.698 24.8392 100.698 24.8392 100.698 23.6247V15.0933C100.698 14.8041 100.561 14.382 100.906 14.2686C101.393 14.1331 101.907 14.1331 102.393 14.2686C102.596 14.3207 102.508 14.6156 102.508 14.8041C102.523 16.371 102.529 17.9429 102.526 19.5198Z" fill="#557086"/>
<path d="M103.898 21.0083V17.7952C103.898 17.4251 103.993 17.321 104.371 17.321C105.739 17.321 105.739 17.2782 105.739 18.6337V24.1463C105.739 24.6922 105.569 24.8669 105.024 24.853C103.893 24.853 103.893 24.853 103.893 23.7149L103.898 21.0083Z" fill="#557086"/>
<path d="M117.436 6.84281V3.55563C117.436 3.21905 117.522 3.11495 117.872 3.08141C119.267 3.03861 119.267 3.02589 119.267 4.43237V9.81769C119.267 10.396 119.13 10.6378 118.495 10.6088C117.44 10.5568 117.435 10.6088 117.435 9.51812L117.436 6.84281Z" fill="#557086"/>
<path d="M105.166 14.5151H104.315C104.158 14.5151 104.031 14.6425 104.031 14.7997V15.6521C104.031 15.8093 104.158 15.9366 104.315 15.9366H105.166C105.323 15.9366 105.45 15.8093 105.45 15.6521V14.7997C105.45 14.6425 105.323 14.5151 105.166 14.5151Z" fill="#557086"/>
<path d="M118.775 0.293945H117.924C117.767 0.293945 117.64 0.421335 117.64 0.578479V1.43092C117.64 1.58807 117.767 1.71546 117.924 1.71546H118.775C118.932 1.71546 119.059 1.58807 119.059 1.43092V0.578479C119.059 0.421335 118.932 0.293945 118.775 0.293945Z" fill="#557086"/>
</g>
<defs>
<clipPath id="clip0_4865_273">
<rect width="139" height="28" fill="white"/>
</clipPath>
</defs>
</svg>
