<svg width="97" height="38" viewBox="0 0 97 38" fill="none" xmlns="http://www.w3.org/2000/svg">
<g clip-path="url(#clip0_95_69)">
<mask id="mask0_95_69" style="mask-type:luminance" maskUnits="userSpaceOnUse" x="4" y="2" width="93" height="36">
<path d="M97 2H4V38H97V2Z" fill="white"/>
</mask>
<g mask="url(#mask0_95_69)">
<path d="M30.9281 35.6968C30.2263 35.6968 29.7573 36.1664 29.7573 36.8223C29.7573 37.5249 30.2263 37.9646 30.9281 37.9646C31.5851 37.9646 32.0523 37.5267 32.0523 36.8223C32.0523 36.1645 31.5832 35.6968 30.9281 35.6968Z" fill="white"/>
<path d="M39.2987 35.9725C37.1526 35.9725 35.6095 34.5358 35.6095 32.4916C35.6095 30.4474 37.1358 28.979 39.2987 28.979C40.8417 28.979 42.0348 29.6759 42.61 30.8406H44.8473C44.1828 28.4628 42.0199 26.9497 39.2987 26.9497C35.9725 26.9497 33.4932 29.2958 33.4932 32.4897C33.4932 35.6837 35.9874 38 39.2987 38C42.0199 38 44.1977 36.4869 44.8473 34.111H42.61C42.0218 35.2607 40.825 35.9725 39.2987 35.9725Z" fill="white"/>
<path d="M51.3263 26.9868C48.0225 26.9868 45.5581 29.318 45.5581 32.4896C45.5581 35.6612 48.0374 37.9626 51.3263 37.9626C54.6153 37.9626 57.0797 35.7376 57.0797 32.4896C57.0797 29.2416 54.6172 26.9868 51.3263 26.9868ZM51.3263 35.95C49.1933 35.95 47.6614 34.5226 47.6614 32.4915C47.6614 30.4603 49.1784 29.0031 51.3263 29.0031C53.4743 29.0031 54.9764 30.4175 54.9764 32.4915C54.9764 34.5655 53.5041 35.95 51.3263 35.95Z" fill="white"/>
<path d="M67.6222 27L64.1062 35.3371L60.5752 27H57.7944V37.9515H59.9815V30.8946L62.9987 37.9515H65.2006L68.2179 30.9263V37.9515H70.4049V27H67.6241H67.6222Z" fill="white"/>
<path d="M41.9248 2H37.0406L26.2765 23.4912L26.0532 23.9366H30.9038L33.5041 18.7636L35.5069 14.7516L39.4808 6.85429L43.4566 14.7516L45.4892 18.7636L48.0895 23.9366H52.9736L41.9248 2Z" fill="white"/>
<path d="M65.4353 12.9683L75.827 2H69.8801L61.3329 10.9632H58.8294V2H54.4478V23.9366H58.8294V14.9734H61.2417L70.5372 23.9366H76.6423L65.4353 12.9683Z" fill="white"/>
<path d="M96.1604 6.04183V2H78.0664V23.9366H96.1604V19.8631H82.4499V14.9734H95.6597V10.9297H82.4499V6.04183H96.1604Z" fill="white"/>
<path d="M36.8843 23.9757H42.15L39.5163 21.3408L36.8843 23.9757Z" fill="white"/>
<path d="M42.15 17.1295L39.5162 14.4927L36.8842 17.1295L34.2505 19.7644L36.8842 22.4012L39.5162 19.7644L42.15 22.4012L44.7819 19.7644L42.15 17.1295Z" fill="white"/>
</g>
<mask id="mask1_95_69" style="mask-type:luminance" maskUnits="userSpaceOnUse" x="4" y="2" width="93" height="36">
<path d="M97 2H4V38H97V2Z" fill="white"/>
</mask>
<g mask="url(#mask1_95_69)">
<path d="M30.9281 35.6968C30.2263 35.6968 29.7573 36.1664 29.7573 36.8223C29.7573 37.5249 30.2263 37.9646 30.9281 37.9646C31.5851 37.9646 32.0523 37.5267 32.0523 36.8223C32.0523 36.1645 31.5832 35.6968 30.9281 35.6968Z" fill="white"/>
<path d="M39.2987 35.9725C37.1526 35.9725 35.6095 34.5358 35.6095 32.4916C35.6095 30.4474 37.1358 28.979 39.2987 28.979C40.8417 28.979 42.0348 29.6759 42.61 30.8406H44.8473C44.1828 28.4628 42.0199 26.9497 39.2987 26.9497C35.9725 26.9497 33.4932 29.2958 33.4932 32.4897C33.4932 35.6837 35.9874 38 39.2987 38C42.0199 38 44.1977 36.4869 44.8473 34.111H42.61C42.0218 35.2607 40.825 35.9725 39.2987 35.9725Z" fill="white"/>
<path d="M51.3263 26.9868C48.0225 26.9868 45.5581 29.318 45.5581 32.4896C45.5581 35.6612 48.0374 37.9626 51.3263 37.9626C54.6153 37.9626 57.0797 35.7376 57.0797 32.4896C57.0797 29.2416 54.6172 26.9868 51.3263 26.9868ZM51.3263 35.95C49.1933 35.95 47.6614 34.5226 47.6614 32.4915C47.6614 30.4603 49.1784 29.0031 51.3263 29.0031C53.4743 29.0031 54.9764 30.4175 54.9764 32.4915C54.9764 34.5655 53.5041 35.95 51.3263 35.95Z" fill="white"/>
<path d="M67.6222 27L64.1062 35.3371L60.5752 27H57.7944V37.9515H59.9815V30.8946L62.9987 37.9515H65.2006L68.2179 30.9263V37.9515H70.4049V27H67.6241H67.6222Z" fill="white"/>
<path d="M41.9248 2H37.0406L26.2765 23.4912L26.0532 23.9366H30.9038L33.5041 18.7636L35.5069 14.7516L39.4808 6.85429L43.4566 14.7516L45.4892 18.7636L48.0895 23.9366H52.9736L41.9248 2Z" fill="white"/>
<path d="M65.4353 12.9683L75.827 2H69.8801L61.3329 10.9632H58.8294V2H54.4478V23.9366H58.8294V14.9734H61.2417L70.5372 23.9366H76.6423L65.4353 12.9683Z" fill="white"/>
<path d="M96.1604 6.04183V2H78.0664V23.9366H96.1604V19.8631H82.4499V14.9734H95.6597V10.9297H82.4499V6.04183H96.1604Z" fill="white"/>
<path d="M36.8843 23.9757H42.15L39.5163 21.3408L36.8843 23.9757Z" fill="white"/>
<path d="M42.15 17.1295L39.5162 14.4927L36.8842 17.1295L34.2505 19.7644L36.8842 22.4012L39.5162 19.7644L42.15 22.4012L44.7819 19.7644L42.15 17.1295Z" fill="white"/>
</g>
</g>
<path d="M41.8716 2H36.9874L26.2233 23.4912L26 23.9366H30.8506L33.4509 18.7636L35.4537 14.7516L39.4276 6.85429L43.4034 14.7516L45.436 18.7636L48.0363 23.9366H52.9204L41.8716 2Z" fill="white"/>
<path d="M41.8716 2H36.9874L26.2233 23.4912L26 23.9366H30.8506L33.4509 18.7636L35.4537 14.7516L39.4276 6.85429L43.4034 14.7516L45.436 18.7636L48.0363 23.9366H52.9204L41.8716 2Z" fill="white"/>
<path d="M13.2941 20.413C8.37973 20.413 4.84616 17.1627 4.84616 12.5379C4.84616 7.91313 8.34126 4.59105 13.2941 4.59105C16.8275 4.59105 19.5596 6.1677 20.8768 8.8027H26C24.4783 3.42321 19.5255 0 13.2941 0C5.6774 0 0 5.30778 0 12.5336C0 19.7596 5.71152 25 13.2941 25C19.5255 25 24.5125 21.5768 26 16.2016H20.8768C19.5298 18.8027 16.7892 20.413 13.2941 20.413Z" fill="white"/>
<path d="M13.2941 20.413C8.37973 20.413 4.84616 17.1627 4.84616 12.5379C4.84616 7.91313 8.34126 4.59105 13.2941 4.59105C16.8275 4.59105 19.5596 6.1677 20.8768 8.8027H26C24.4783 3.42321 19.5255 0 13.2941 0C5.6774 0 0 5.30778 0 12.5336C0 19.7596 5.71152 25 13.2941 25C19.5255 25 24.5125 21.5768 26 16.2016H20.8768C19.5298 18.8027 16.7892 20.413 13.2941 20.413Z" fill="white"/>
<path d="M41.8716 2H36.9874L26.2233 23.4912L26 23.9366H30.8506L33.4509 18.7636L35.4537 14.7516L39.4276 6.85429L43.4034 14.7516L45.436 18.7636L48.0363 23.9366H52.9204L41.8716 2Z" fill="white"/>
<path d="M13.2941 20.413C8.37973 20.413 4.84616 17.1627 4.84616 12.5379C4.84616 7.91313 8.34126 4.59105 13.2941 4.59105C16.8275 4.59105 19.5596 6.1677 20.8768 8.8027H26C24.4783 3.42321 19.5255 0 13.2941 0C5.6774 0 0 5.30778 0 12.5336C0 19.7596 5.71152 25 13.2941 25C19.5255 25 24.5125 21.5768 26 16.2016H20.8768C19.5298 18.8027 16.7892 20.413 13.2941 20.413Z" fill="white"/>
<defs>
<clipPath id="clip0_95_69">
<rect width="93" height="36" fill="white" transform="translate(4 2)"/>
</clipPath>
</defs>
</svg>
