<svg width="100" height="24" viewBox="0 0 100 24" fill="none" xmlns="http://www.w3.org/2000/svg">
<path d="M23.8432 9.81055L23.4722 11.3193C23.8929 11.4249 25.1904 11.8593 25.4004 11.0057C25.6197 10.1153 24.2646 9.92012 23.8432 9.81055Z" fill="#8CA3B8"/>
<path d="M23.2852 12.0801L22.8756 13.7441C23.3807 13.8713 24.9394 14.3785 25.1699 13.4401C25.4106 12.4617 23.7903 12.2081 23.2852 12.0801Z" fill="#8CA3B8"/>
<path d="M25.5203 5.31828C24.2166 4.98884 22.8457 5.05862 21.5811 5.51891C20.3165 5.97916 19.2149 6.80919 18.4157 7.90405C17.6165 8.99891 17.1555 10.3094 17.091 11.6698C17.0266 13.0302 17.3616 14.3795 18.0536 15.5469C18.7456 16.7144 19.7636 17.6476 20.9789 18.2286C22.1942 18.8096 23.5521 19.0122 24.881 18.8109C26.2099 18.6096 27.4501 18.0134 28.4447 17.0977C29.4393 16.1819 30.1437 14.9878 30.4688 13.6663C30.6846 12.7888 30.7278 11.8768 30.596 10.9824C30.4641 10.0879 30.1597 9.22857 29.7002 8.45342C29.2407 7.67822 28.6351 7.00234 27.9179 6.46442C27.2007 5.9265 26.386 5.53705 25.5203 5.31828ZM26.8738 11.0191C26.776 11.6895 26.409 12.0143 25.922 12.1287C26.5905 12.4815 26.9306 13.0231 26.607 13.9615C26.2045 15.1263 25.2488 15.2247 23.9773 14.9815L23.6688 16.2343L22.923 16.0463L23.2276 14.8095C23.0342 14.7607 22.8369 14.7095 22.6333 14.6495L22.3278 15.8919L21.5836 15.7031L21.8922 14.4479C21.7178 14.4023 21.541 14.3543 21.3603 14.3087L20.3903 14.0639L20.7605 13.1999C20.7605 13.1999 21.3129 13.3479 21.3018 13.3367C21.336 13.3479 21.3719 13.3521 21.4076 13.3491C21.4433 13.3461 21.4781 13.336 21.51 13.3194C21.5418 13.3027 21.57 13.2799 21.5931 13.252C21.6162 13.2242 21.6336 13.1921 21.6444 13.1575L22.1313 11.1759L22.2102 11.1959C22.1846 11.1856 22.1582 11.1773 22.1313 11.1711L22.481 9.7599C22.4897 9.59988 22.4352 9.39667 22.1329 9.31987C22.1448 9.31267 21.5915 9.1839 21.5915 9.1839L21.7904 8.37667L22.8164 8.6367C22.9742 8.67588 23.1321 8.71668 23.2899 8.75028L23.5946 7.50948L24.3404 7.69747L24.0405 8.91427C24.2404 8.96014 24.4396 9.00764 24.6379 9.0567L24.9355 7.84788L25.6805 8.03587L25.379 9.2799C26.3206 9.60948 27.0088 10.1023 26.8738 11.0191Z" fill="#8CA3B8"/>
<path d="M36.9973 9.28009C37.4889 9.26809 37.9768 9.3693 38.4242 9.57607C38.8124 9.7635 39.1541 10.0369 39.4241 10.3761C39.6943 10.7282 39.8928 11.1312 40.0082 11.5617C40.1366 12.0387 40.1998 12.5313 40.196 13.0257C40.2004 14.568 39.6151 16.0521 38.5631 17.1665C38.0528 17.6983 37.4451 18.1241 36.7739 18.4201C36.0695 18.7319 35.3082 18.8895 34.5396 18.8825C34.4362 18.8825 34.2539 18.8825 33.9966 18.8737C33.7007 18.8638 33.4056 18.8371 33.1127 18.7937C32.7566 18.7417 32.4033 18.6712 32.0543 18.5825C31.6892 18.4934 31.3344 18.3652 30.9959 18.2001L33.9713 5.52727L36.6366 5.10889L35.5711 9.6057C35.7929 9.50546 36.0229 9.42515 36.2585 9.3657C36.5004 9.30681 36.7485 9.27806 36.9973 9.28009ZM34.7622 16.7417C35.1591 16.742 35.5496 16.6401 35.8971 16.4457C36.2542 16.2475 36.5676 15.9774 36.8181 15.6521C37.08 15.313 37.2861 14.9331 37.4282 14.5273C37.5772 14.1078 37.6531 13.6652 37.6523 13.2193C37.6523 12.6593 37.56 12.2265 37.3769 11.9121C37.1938 11.5977 36.8529 11.4401 36.3604 11.4401C36.1494 11.4481 35.9397 11.4776 35.7345 11.5281C35.4749 11.5884 35.2348 11.7147 35.0368 11.8953L33.9019 16.6705C33.9706 16.6833 34.0313 16.6945 34.0827 16.7057C34.136 16.7177 34.19 16.7263 34.2444 16.7313C34.3133 16.7389 34.3827 16.7424 34.452 16.7417H34.7622ZM42.9583 18.6401H40.4131L42.5621 9.47209H45.1264L42.9583 18.6401ZM44.1966 8.35447C43.8497 8.35798 43.5113 8.2455 43.2338 8.03449C42.9457 7.82089 42.8028 7.49209 42.8028 7.04887C42.8014 6.81182 42.851 6.57736 42.9481 6.36169C43.0418 6.15206 43.1735 5.96209 43.3364 5.8017C43.499 5.64413 43.6879 5.51712 43.8944 5.42647C44.1093 5.33435 44.3405 5.28783 44.5739 5.28967C44.9208 5.28621 45.2592 5.39864 45.5368 5.6097C45.8224 5.82302 45.9656 6.15127 45.9661 6.59449C45.9674 6.83246 45.9172 7.06784 45.8193 7.28407C45.7268 7.49389 45.5959 7.6839 45.4334 7.8441C45.2708 8.00186 45.0815 8.12864 44.8746 8.2185C44.6604 8.31219 44.4292 8.35932 44.1958 8.35687L44.1966 8.35447ZM47.3536 7.18729L50.0196 6.7713L49.3645 9.4737H52.22L51.7062 11.6001H48.8689L48.1128 14.8065C48.0471 15.0514 48.0069 15.3027 47.9928 15.5561C47.9758 15.7614 48.0049 15.9679 48.0781 16.1601C48.1491 16.3323 48.2807 16.4718 48.4474 16.5513C48.625 16.6449 48.8791 16.6921 49.2122 16.6921C49.4812 16.6924 49.7495 16.6657 50.0133 16.6121C50.2786 16.5588 50.5397 16.4861 50.7946 16.3945L50.9848 18.3825C50.6194 18.5161 50.2462 18.6264 49.8673 18.7129C49.3984 18.8119 48.92 18.8578 48.4411 18.8497C47.6519 18.8497 47.0384 18.7313 46.6006 18.4945C46.1911 18.2848 45.8631 17.9416 45.6694 17.5201C45.4819 17.0721 45.4008 16.5857 45.4326 16.1001C45.4592 15.5301 45.5385 14.9639 45.6694 14.4089L47.3559 7.19287L47.3536 7.18729ZM52.1079 14.9793C52.103 14.2185 52.231 13.4628 52.4859 12.7473C52.7264 12.0717 53.095 11.4504 53.5711 10.9185C54.0507 10.3893 54.634 9.96746 55.2838 9.6801C55.9915 9.37018 56.7557 9.21561 57.527 9.2265C57.9922 9.22078 58.457 9.27072 58.9111 9.3753C59.2937 9.46604 59.6657 9.59744 60.0216 9.76729L59.1437 11.7921C58.9093 11.6972 58.6711 11.6129 58.4297 11.5393C58.1362 11.4564 57.832 11.4178 57.5274 11.4249C56.6777 11.4249 56.0059 11.7225 55.5063 12.3137C55.0067 12.9049 54.755 13.7033 54.755 14.7025C54.755 15.295 54.8815 15.775 55.1346 16.1425C55.3864 16.5089 55.852 16.6913 56.5268 16.6913C56.8508 16.6921 57.1739 16.6572 57.4905 16.5873C57.773 16.5259 58.0494 16.4383 58.3162 16.3257L58.5087 18.4001C58.1607 18.5352 57.8048 18.649 57.443 18.7409C56.986 18.8457 56.518 18.8951 56.0493 18.8881C55.3385 18.8881 54.7366 18.7835 54.2435 18.5745C53.7809 18.386 53.3645 18.0975 53.0234 17.7289C52.7001 17.372 52.4617 16.9448 52.3265 16.4801C52.1817 15.9942 52.1088 15.4893 52.1103 14.9817L52.1079 14.9793ZM63.4144 18.8833C62.8753 18.8944 62.3394 18.7993 61.8359 18.6033C61.4108 18.4333 61.0314 18.1648 60.7273 17.8193C60.4287 17.4711 60.2034 17.065 60.065 16.6257C59.9113 16.1343 59.8365 15.6211 59.843 15.1057C59.8448 14.3946 59.9574 13.6882 60.1771 13.0129C60.3922 12.3301 60.7277 11.6924 61.1667 11.1305C61.6037 10.5705 62.1465 10.1045 62.7631 9.76009C63.3945 9.4065 64.1159 9.2289 64.9291 9.2289C65.4677 9.21815 66.004 9.31295 66.5076 9.50809C66.9331 9.67826 67.3139 9.94669 67.6194 10.2921C67.9171 10.6407 68.1419 11.0471 68.2799 11.4865C68.4345 11.9793 68.5102 12.4941 68.5033 13.0113C68.501 13.7216 68.3911 14.4274 68.1784 15.1041C67.9688 15.7839 67.6425 16.4209 67.2147 16.9857C66.7845 17.5491 66.2427 18.015 65.6242 18.3537C64.9891 18.7083 64.2525 18.8857 63.4144 18.8857V18.8833ZM64.6868 11.4233C64.3273 11.4173 63.9765 11.5334 63.6899 11.7529C63.3977 11.9817 63.1527 12.2662 62.9685 12.5905C62.77 12.9362 62.6219 13.3091 62.5287 13.6977C62.435 14.0706 62.3865 14.4537 62.3837 14.8385C62.3837 15.4209 62.4751 15.8742 62.6584 16.1985C62.842 16.5225 63.1739 16.6857 63.6557 16.6857C64.0157 16.6918 64.3674 16.5748 64.6536 16.3537C64.9462 16.1266 65.1922 15.8433 65.3773 15.5201C65.5757 15.1744 65.7244 14.8015 65.8176 14.4129C65.9099 14.04 65.9584 13.6573 65.962 13.2729C65.962 12.6929 65.8697 12.2385 65.6856 11.9129C65.5019 11.5873 65.1696 11.4249 64.6882 11.4249L64.6868 11.4233ZM71.2799 18.6401H68.7322L70.882 9.47209H73.4454L71.2799 18.6401ZM72.5168 8.35447C72.1697 8.35835 71.8314 8.24583 71.5545 8.03449C71.2674 7.82116 71.1234 7.49259 71.123 7.04887C71.122 6.81173 71.1719 6.57722 71.2697 6.36169C71.3625 6.15173 71.494 5.96167 71.657 5.8017C71.8199 5.64395 72.0091 5.51689 72.2159 5.42647C72.43 5.33343 72.6608 5.28607 72.8939 5.28727C73.241 5.28362 73.5797 5.3961 73.8576 5.6073C74.1442 5.8233 74.2882 6.15127 74.2882 6.59209C74.2887 6.83006 74.2384 7.06526 74.141 7.28167C74.0487 7.49144 73.918 7.68146 73.7556 7.8417C73.5927 7.99913 73.4034 8.12592 73.1971 8.2161C72.982 8.30989 72.7504 8.35701 72.5168 8.35447ZM75.2791 9.8889C75.472 9.8313 75.6885 9.76249 75.923 9.6873C76.1833 9.6057 76.4464 9.53661 76.7122 9.48007C77.0357 9.40913 77.3625 9.35573 77.6916 9.3201C78.0996 9.27607 78.5094 9.25521 78.9197 9.2577C80.2619 9.2577 81.1882 9.65315 81.6987 10.4441C82.2087 11.235 82.2982 12.3158 81.9659 13.6865L80.7996 18.6401H78.2371L79.372 13.7937C79.4413 13.4913 79.4948 13.1985 79.5359 12.9137C79.5774 12.6653 79.5742 12.4113 79.5267 12.1641C79.4856 11.9574 79.3734 11.7721 79.211 11.6409C79.0434 11.5073 78.7896 11.4409 78.4453 11.4409C78.1047 11.442 77.765 11.4774 77.4313 11.5465L75.761 18.6401H73.1985L75.2796 9.89047L75.2791 9.8889Z" fill="#8CA3B8"/>
</svg>
