<svg width="100" height="24" viewBox="0 0 100 24" fill="none" xmlns="http://www.w3.org/2000/svg">
<path d="M30.873 12.0013L29.085 13.7882L27.2981 12.0013L29.085 10.2143L30.873 12.0013ZM35.2125 7.66178L38.2757 10.725L40.0616 8.94205L35.2114 4.08789L30.3613 8.94205L32.1482 10.729L35.2125 7.66178ZM41.3389 10.2143L39.5519 12.0013L41.3379 13.7882L43.1248 12.0013L41.3389 10.2143ZM35.2125 16.3407L32.1493 13.2775L30.3613 15.0625L35.2114 19.9117L40.0616 15.0625L38.2747 13.2755L35.2125 16.3407ZM35.2125 13.7882L36.9994 12.0013L35.2125 10.2143L33.4255 12.0013L35.2125 13.7882ZM46.7008 7.66081H50.7312C51.7235 7.66081 52.5051 7.9337 53.0008 8.42938C53.1961 8.62125 53.3497 8.85138 53.4521 9.1053C53.5544 9.35925 53.6034 9.63161 53.5958 9.90529V9.92938C53.5958 10.9097 53.075 11.4554 52.455 11.8026C53.4583 12.1869 54.0794 12.7698 54.0794 13.9357V13.9588C54.0794 15.5461 52.7901 16.3397 50.8305 16.3397H46.6998L46.7008 7.66081ZM50.3218 11.1725C51.1656 11.1725 51.6984 10.9006 51.6984 10.2554V10.2304C51.6984 9.66045 51.2519 9.33738 50.4462 9.33738H48.56V11.1695L50.3218 11.1725ZM50.8305 14.6702C51.6743 14.6702 52.182 14.3692 52.182 13.728V13.7029C52.182 13.12 51.7486 12.7608 50.7683 12.7608H48.561V14.6672L50.8305 14.6702ZM55.9636 7.66383H57.7255L61.7931 13.0086V7.66081H63.6774V16.3407H62.0519L57.8479 10.8224V16.3407H55.9626L55.9636 7.66383ZM66.0701 7.66383H70.1039C71.0959 7.66383 71.8777 7.93672 72.3732 8.43236C72.5688 8.62427 72.7221 8.85436 72.8248 9.10832C72.927 9.36227 72.9759 9.63458 72.9683 9.90827V9.93236C72.9683 10.9126 72.4474 11.4585 71.8274 11.8056C72.831 12.1899 73.4519 12.7729 73.4519 13.9387V13.9588C73.4519 15.5461 72.1626 16.3397 70.203 16.3397H66.0692L66.0701 7.66383ZM69.6914 11.1755C70.535 11.1755 71.0679 10.9036 71.0679 10.2585V10.2334C71.0679 9.66347 70.6217 9.34041 69.8159 9.34041H67.9297V11.1695L69.6914 11.1755ZM70.2039 14.6672C71.0479 14.6672 71.5554 14.3661 71.5554 13.725V13.6999C71.5554 13.117 71.1221 12.7578 70.1421 12.7578H67.9346V14.6641L70.2039 14.6672Z" fill="#8CA3B8"/>
</svg>
