<svg width="60" height="60" viewBox="0 0 60 60" fill="none" xmlns="http://www.w3.org/2000/svg">
<g clip-path="url(#clip0_4865_257)">
<mask id="mask0_4865_257" style="mask-type:luminance" maskUnits="userSpaceOnUse" x="-1" y="0" width="61" height="60">
<path d="M59.5983 0H-0.00335693V60H59.5983V0Z" fill="white"/>
</mask>
<g mask="url(#mask0_4865_257)">
<path d="M-0.00335693 30V60H29.7926H59.5983V30V0H29.7926H-0.00335693V30Z" fill="black"/>
<path d="M52.4772 17.2928V27.2798L51.1268 28.6302L49.7667 29.9903L51.1268 31.3504L52.4772 32.7008V42.6878V52.6652H29.7926H7.11777V42.7073V32.7105L8.46816 31.3601L9.82826 30L8.46816 28.6399L7.11777 27.2895V17.2928V7.31543H29.8023H52.4869V17.2928H52.4772ZM9.31337 17.9145V26.318L11.1495 28.1542L12.9954 30L11.1495 31.8459L9.31337 33.682V42.0855V50.489H29.7926H50.2719V42.0855V33.682L48.4358 31.8459L46.5899 30L48.4358 28.1542L50.2719 26.318V17.9145V9.51103H29.7926H9.31337V17.9145Z" fill="white"/>
<path d="M25.7512 16.1658L27.1793 17.5939V20.9942V24.3944L25.7609 25.8128L24.3328 27.2409H20.5342H16.7356V20.9844V14.728H20.5342H24.3328L25.7512 16.1658ZM18.9409 20.9942V25.0453H21.1657H23.3904L24.1191 24.2584L24.8477 23.4812V20.9942V18.4974L24.1093 17.7105L23.371 16.9236H21.1463H18.9409V20.9942Z" fill="white"/>
<path d="M41.3146 20.9847C42.733 24.4044 43.8891 27.2023 43.8891 27.2217C43.8891 27.2412 43.3548 27.2509 42.6942 27.2509H41.4992L41.1883 26.5125L40.8775 25.7742H37.7007H34.5238L34.2324 26.4931L33.9409 27.212L32.7266 27.2314C31.7648 27.2412 31.5122 27.2314 31.5413 27.1634C31.5608 27.1149 32.7071 24.3364 34.0964 20.9944C35.4856 17.6427 36.632 14.8739 36.6514 14.8254C36.6806 14.7671 36.9332 14.7476 37.7201 14.7573L38.7402 14.7768L41.3146 20.9847ZM36.6223 20.7709C36.0491 22.1602 35.5536 23.3454 35.5342 23.4134C35.4953 23.53 35.6216 23.5397 37.7104 23.5397C39.4882 23.5397 39.9157 23.5203 39.8963 23.4523C39.8477 23.258 37.7492 18.245 37.7104 18.245C37.6812 18.245 37.2052 19.3914 36.6223 20.7709Z" fill="white"/>
<path d="M26.2272 33.8376V34.9354L22.9533 38.9866L19.6987 43.028L22.9533 43.0475L26.2272 43.0572V44.1647V45.2625H21.4766H16.7356V44.1355L16.7453 43.028L20.029 39.006L23.3127 34.984L20.0193 34.9646L16.7356 34.9451V33.8473V32.7495H21.4766H26.2272V33.8376Z" fill="white"/>
<path d="M37.5064 37.199L40.6249 41.6679L40.6443 37.199L40.654 32.7495H41.7615H42.8593V39.006V45.2625H41.6061H40.3529L37.5647 41.2113L34.7764 37.1699L34.757 41.221L34.7473 45.2625H33.5815H32.406V39.006V32.7495H33.3969H34.3781L37.5064 37.199Z" fill="white"/>
</g>
</g>
<defs>
<clipPath id="clip0_4865_257">
<rect width="60" height="60" fill="white"/>
</clipPath>
</defs>
</svg>
