<svg width="100" height="24" viewBox="0 0 100 24" fill="none" xmlns="http://www.w3.org/2000/svg">
<path d="M82.0358 12.0281C81.841 12.6033 81.7422 13.2033 81.5955 13.788C81.4431 14.3976 81.2954 15.0089 81.1621 15.6233C81.1251 15.7953 81.055 15.8496 80.8861 15.8457C80.4559 15.8361 80.0244 15.8369 79.5933 15.8457C79.4188 15.8457 79.3741 15.8064 79.4179 15.6225C79.6815 14.5257 79.9344 13.4256 80.185 12.3264C80.2455 12.1026 80.2741 11.8712 80.2695 11.6393C80.2478 11.2185 80.0258 10.9913 79.6145 10.968C78.8807 10.9265 78.8428 10.9577 78.6739 11.6769C78.3651 12.9912 78.0495 14.3033 77.7467 15.6192C77.7084 15.7848 77.6493 15.8513 77.4758 15.8472C77.0447 15.8361 76.6141 15.8385 76.183 15.8472C76.0159 15.8472 75.9531 15.816 75.9993 15.6273C76.4442 13.7873 76.8808 11.94 77.3221 10.0968C77.3424 10.0113 77.3521 9.92086 77.4647 9.88325C78.4616 9.55048 79.4774 9.38086 80.5224 9.55445C81.3116 9.68645 81.8267 10.1472 81.9864 10.9665C81.991 10.9889 82.0187 11.0057 82.0358 11.0249V12.0281Z" fill="#8CA3B8"/>
<path d="M52.4477 15.1955C52.03 15.3957 51.5644 15.4706 51.106 15.4115C50.0658 15.2795 49.4313 14.5539 49.3697 13.4435C49.2576 11.325 50.5315 9.79145 52.6213 9.51466C53.5072 9.39729 54.408 9.51332 55.2369 9.85145C55.3821 9.90905 55.4602 9.96988 55.416 10.1547C54.9953 11.8995 54.5842 13.6467 54.1674 15.3923C54.1234 15.5624 54.0707 15.7301 54.0096 15.8946C53.5629 17.1642 52.6766 17.8875 51.3499 18.0227C50.4754 18.1115 49.6136 18.0587 48.7825 17.7027C48.571 17.6123 48.5308 17.5323 48.6373 17.3226C48.7766 17.0411 48.8976 16.7506 48.9995 16.4531C49.0722 16.2498 49.144 16.1907 49.3681 16.293C49.9892 16.5837 50.6846 16.6694 51.3562 16.5378C51.6623 16.4748 51.9378 16.307 52.1366 16.0626C52.3353 15.8183 52.4451 15.5121 52.4477 15.1955ZM51.0871 13.0467C51.1036 13.341 51.1036 13.7259 51.4817 13.9187C51.8952 14.1275 52.3025 14.0211 52.6908 13.8155C52.7395 13.7894 52.7819 13.7527 52.8149 13.708C52.8479 13.6633 52.8708 13.6118 52.8818 13.557C53.0673 12.7731 53.2511 11.9891 53.4421 11.2074C53.4879 11.0202 53.4248 10.9722 53.2448 10.9563C51.9994 10.8426 51.0958 11.6802 51.0871 13.0467Z" fill="#8CA3B8"/>
<path d="M36.4405 13.4561C36.4366 11.5457 37.6694 9.97775 39.468 9.60894C39.8714 9.51146 40.2906 9.50246 40.6976 9.58254C40.9265 9.63534 40.9928 9.54737 41.0386 9.34254C41.1964 8.62817 41.3788 7.92017 41.5342 7.20654C41.5721 7.03295 41.64 6.95454 41.8104 6.93054C42.284 6.86495 42.7549 6.79161 43.2232 6.71057C43.4386 6.67374 43.3732 6.80177 43.3486 6.90497C43.1308 7.8292 42.9109 8.75426 42.6889 9.68015C42.4102 10.8506 42.1285 12.0202 41.8554 13.1921C41.6856 13.9471 41.7214 14.7346 41.9588 15.4706C42.0244 15.6842 41.9857 15.7442 41.7686 15.7625C41.44 15.7923 41.1132 15.8409 40.79 15.9082C40.5651 15.9545 40.4119 15.9082 40.3575 15.673C40.292 15.3826 40.1736 15.433 39.9739 15.5698C39.09 16.1681 37.9519 16.1537 37.2242 15.5409C36.6505 15.061 36.4997 14.3842 36.4413 13.6762C36.435 13.6049 36.4405 13.5298 36.4405 13.4561ZM40.1697 10.9841C38.4554 10.9402 37.8138 13.1441 38.3449 14.1713C38.5146 14.4994 38.8256 14.5514 39.1492 14.5241C39.3185 14.5129 39.4832 14.4634 39.6312 14.379C39.7791 14.2947 39.9065 14.1778 40.0039 14.0369C40.0181 14.0177 40.0118 13.9834 40.015 13.957C40.1073 13.0706 40.3512 12.2162 40.554 11.353C40.6329 11.0162 40.625 11.0057 40.2802 10.9865C40.243 10.9826 40.2067 10.985 40.1697 10.9841Z" fill="#8CA3B8"/>
<path d="M69.2498 16.0001C67.6916 16.0001 66.8078 15.1641 66.7478 13.6249C66.6965 12.3033 67.1202 11.1401 68.1292 10.2481C68.9318 9.53766 69.8733 9.32568 70.903 9.54726C71.8501 9.75048 72.4413 10.4193 72.5701 11.5153C72.7436 12.9937 72.3333 14.2897 71.1878 15.2865C70.6547 15.7649 69.9615 16.0199 69.2498 16.0001ZM68.4707 13.1937C68.4795 13.4777 68.4795 13.6897 68.5362 13.8985C68.6655 14.3689 68.9821 14.5841 69.4602 14.5169C69.8936 14.4553 70.195 14.1969 70.4202 13.8417C70.8107 13.2293 70.9667 12.493 70.8582 11.7721C70.7793 11.1369 70.4059 10.8593 69.7879 10.9809C69.571 11.0277 69.3735 11.1392 69.2198 11.3009C68.6719 11.8401 68.4975 12.5201 68.4707 13.1913V13.1937Z" fill="#8CA3B8"/>
<path d="M45.3675 16.0002C43.9469 16.0002 43.0835 15.2722 42.9651 13.8042C42.8364 12.2042 43.3818 10.8442 44.7622 9.93219C45.5475 9.41222 46.4156 9.3386 47.2996 9.6002C48.0249 9.81699 48.466 10.3386 48.6831 11.0618C49.1282 12.549 48.4715 14.5066 47.2238 15.4106C46.6571 15.8242 46.1134 15.9954 45.3675 16.0002ZM47.0849 12.2122C47.0778 12.0866 47.0754 11.957 47.0636 11.8282C46.991 11.0514 46.3533 10.7138 45.6784 11.0978C45.5266 11.1843 45.3926 11.2998 45.2838 11.4378C44.7243 12.1506 44.5656 12.9658 44.7259 13.8378C44.8269 14.393 45.1883 14.6002 45.7377 14.4954C45.9731 14.4513 46.1892 14.3339 46.3556 14.1594C46.8828 13.621 47.0604 12.9466 47.0849 12.209V12.2122Z" fill="#8CA3B8"/>
<path d="M58.2665 15.9943C57.787 16.0063 57.3495 15.9695 56.9355 15.7951C56.0853 15.4367 55.6851 14.7551 55.5746 13.8623C55.356 12.0935 56.4041 10.0279 58.4295 9.55353C58.8933 9.4309 59.3798 9.42813 59.845 9.54554C60.4829 9.72231 60.9499 10.1055 61.0944 10.7791C61.2578 11.5599 61.0699 12.2543 60.4584 12.7911C59.9405 13.2447 59.3068 13.4255 58.6473 13.5303C58.2582 13.5961 57.8645 13.6301 57.4704 13.6319C57.2959 13.6319 57.2724 13.6991 57.3125 13.8487C57.4145 14.2559 57.7358 14.4983 58.2416 14.5311C58.7553 14.569 59.2713 14.5071 59.7624 14.3487C59.9447 14.2879 59.9881 14.3415 59.9992 14.5087C60.0195 14.8327 60.0379 15.1567 60.0781 15.4775C60.1007 15.6375 60.037 15.6887 59.9059 15.7295C59.377 15.9066 58.8236 15.996 58.2665 15.9943ZM57.7404 12.4111C57.8618 12.3967 58.0838 12.3831 58.2984 12.3407C58.6487 12.2711 59.0022 12.1967 59.2976 11.9727C59.4116 11.8859 59.4956 11.7648 59.5385 11.6267C59.581 11.4885 59.5792 11.3404 59.5344 11.2031C59.431 10.9191 59.1965 10.8615 58.9344 10.8599C58.255 10.8599 57.6615 11.3319 57.4016 12.0871C57.2858 12.4287 57.2858 12.4287 57.7404 12.4111Z" fill="#8CA3B8"/>
<path d="M64.1664 16.0071C63.7893 16.0151 63.4141 15.9586 63.0559 15.8399C62.1601 15.5119 61.6353 14.8623 61.5287 13.9135C61.3542 12.3935 61.7498 11.0631 63.0181 10.1375C64.1378 9.31989 65.3816 9.28629 66.6601 9.74548C66.8336 9.80709 66.829 9.88948 66.763 10.0319C66.6121 10.3591 66.4667 10.6895 66.3319 11.0231C66.2752 11.1639 66.211 11.2007 66.0675 11.1359C65.6608 10.9561 65.2099 10.904 64.7738 10.9863C63.9758 11.1199 63.421 11.7599 63.3148 12.6487C63.2752 12.9135 63.2687 13.1822 63.295 13.4487C63.3896 14.1903 63.7376 14.5191 64.4788 14.5167C64.8287 14.5208 65.1767 14.4595 65.5048 14.3359C65.6539 14.2783 65.7052 14.3239 65.7172 14.4679C65.7448 14.8183 65.7675 15.1703 65.8062 15.5199C65.8228 15.6735 65.7352 15.7143 65.6248 15.7455C65.3692 15.8175 65.1158 15.9055 64.855 15.9503C64.6265 15.9823 64.3967 16.0013 64.1664 16.0071Z" fill="#8CA3B8"/>
<path d="M73.6482 15.8455C73.4285 15.8455 73.2084 15.8383 72.9882 15.8455C72.817 15.8527 72.769 15.8143 72.8147 15.6254C73.1119 14.395 73.3953 13.1606 73.6829 11.9278C73.8407 11.2438 74.0078 10.5614 74.161 9.87583C74.2007 9.69823 74.2598 9.61423 74.4642 9.62466C74.8764 9.64626 75.2895 9.64626 75.7016 9.62466C75.9448 9.61183 75.9472 9.70866 75.9019 9.89665C75.4944 11.6033 75.0887 13.3118 74.6858 15.0223C74.6392 15.2198 74.5764 15.4159 74.5492 15.6159C74.5224 15.8158 74.4255 15.8558 74.2519 15.8455C74.0521 15.8398 73.8499 15.8455 73.6482 15.8455Z" fill="#8CA3B8"/>
<path d="M75.3213 8.8689C74.7435 8.8641 74.3742 8.5113 74.3858 7.97209C74.3987 7.3425 74.9535 6.8001 75.5872 6.79932C76.1516 6.79932 76.5342 7.15932 76.5342 7.69129C76.5315 7.8495 76.4978 8.00559 76.435 8.15056C76.3722 8.29549 76.2822 8.42647 76.1696 8.53595C76.0565 8.64538 75.9236 8.73113 75.7782 8.78827C75.6324 8.84546 75.4773 8.87282 75.3213 8.8689Z" fill="#8CA3B8"/>
<path d="M25.2729 4.8457C23.8769 4.8457 22.5124 5.26529 21.3516 6.05143C20.191 6.83756 19.2863 7.95495 18.7521 9.26221C18.2179 10.5695 18.0781 12.008 18.3504 13.3958C18.6228 14.7837 19.295 16.0585 20.2821 17.059C21.2692 18.0596 22.5268 18.741 23.896 19.017C25.2651 19.2931 26.6842 19.1514 27.9739 18.6099C29.2636 18.0684 30.3659 17.1514 31.1415 15.9749C31.917 14.7983 32.331 13.4151 32.331 12.0001C32.331 10.1026 31.5874 8.28287 30.2638 6.94118C28.9401 5.59944 27.1448 4.8457 25.2729 4.8457ZM25.4939 16.2801H22.6661V12.4705H21.6693V11.5361H22.6661V7.72727H25.0977C25.6731 7.72727 29.4724 7.59449 29.4724 12.0697C29.4724 16.6185 25.4939 16.2801 25.4939 16.2801Z" fill="#8CA3B8"/>
<path d="M25.3676 9.29541H24.2627V11.5354H26.0306V12.4674H24.2627V14.7074H25.4339V14.6962C25.7346 14.6962 27.8963 14.7258 27.8924 12.0946C27.8884 9.46341 25.7851 9.29541 25.3676 9.29541Z" fill="#8CA3B8"/>
</svg>
