<svg width="100" height="24" viewBox="0 0 100 24" fill="none" xmlns="http://www.w3.org/2000/svg">
<path d="M37.208 10.228H36.3738V8.80886C36.3745 8.70838 36.3536 8.60892 36.3127 8.51735C36.2719 8.42578 36.2119 8.34432 36.137 8.27846C36.0592 8.2114 35.9679 8.16234 35.8695 8.13474C35.7711 8.10709 35.6679 8.10155 35.5672 8.11845C35.4068 8.14697 35.2617 8.23245 35.1579 8.35951C35.0541 8.48661 34.9983 8.64705 35.0005 8.81205V10.2249H34.2168C34.0351 10.2274 33.8616 10.3017 33.7332 10.432C33.6048 10.5623 33.5317 10.7383 33.5294 10.9225C33.5285 11.0142 33.5456 11.1053 33.5798 11.1903C33.614 11.2752 33.6646 11.3524 33.7286 11.4173C33.7927 11.4822 33.8688 11.5335 33.9527 11.5682C34.0365 11.6029 34.1263 11.6202 34.2168 11.6193H35.0005V16.2664C35.0007 16.4513 35.0732 16.6285 35.2021 16.7592C35.3309 16.89 35.5057 16.9636 35.688 16.9641C35.8696 16.9616 36.0432 16.8873 36.1716 16.7569C36.3 16.6266 36.3731 16.4506 36.3754 16.2664V11.6224H37.2096C37.3002 11.6236 37.3901 11.6062 37.474 11.5716C37.5579 11.537 37.6342 11.4857 37.6983 11.4208C37.7624 11.3559 37.8131 11.2786 37.8474 11.1936C37.8816 11.1086 37.8988 11.0175 37.8978 10.9257C37.8977 10.834 37.8798 10.7432 37.8451 10.6585C37.8103 10.5738 37.7595 10.4968 37.6954 10.432C37.6314 10.3673 37.5554 10.3159 37.4718 10.2809C37.3881 10.2459 37.2985 10.228 37.208 10.228Z" fill="#8CA3B8"/>
<path d="M28.6315 10.1104H28.6259C26.858 10.1104 25.4201 11.6696 25.4201 13.5863C25.4201 15.5032 26.858 17.0624 28.6259 17.0624C29.8098 17.0624 30.8729 16.4888 31.3953 15.5656L31.4072 15.5423C31.4794 15.4055 31.505 15.2482 31.4798 15.0952C31.4612 14.9816 31.4146 14.8747 31.3446 14.7841C31.2746 14.6935 31.1832 14.6222 31.0789 14.5768C30.9302 14.5115 30.7636 14.5015 30.6084 14.5483C30.4531 14.5951 30.319 14.6958 30.2296 14.8328C29.835 15.4064 29.3394 15.6616 28.6291 15.6616C27.7657 15.6616 27.1627 15.0143 26.9212 14.2799H31.157C31.3413 14.2802 31.5182 14.2062 31.6489 14.0744C31.7795 13.9426 31.8533 13.7636 31.8539 13.5767C31.846 11.6632 30.4025 10.1104 28.6315 10.1104ZM26.9212 12.8864C27.1619 12.152 27.7633 11.504 28.6315 11.504C29.4791 11.504 30.1026 12.1439 30.3433 12.8864H26.9212Z" fill="#8CA3B8"/>
<path d="M42.8234 10.1264C42.2648 10.1264 41.7206 10.3062 41.2694 10.64V6.08404C41.2692 5.89928 41.1967 5.72219 41.0678 5.59153C40.939 5.46091 40.7642 5.38744 40.582 5.38721C40.4003 5.38951 40.2267 5.46364 40.0981 5.59379C39.9695 5.72395 39.8962 5.89984 39.8938 6.08404V16.24C39.8931 16.3407 39.9138 16.4402 39.9547 16.5319C39.9956 16.6236 40.0556 16.7053 40.1305 16.7712C40.2084 16.8382 40.2997 16.8871 40.3981 16.9147C40.4965 16.9423 40.5996 16.948 40.7003 16.9312C40.8609 16.9027 41.0061 16.8171 41.1099 16.6899C41.2138 16.5626 41.2695 16.402 41.267 16.2368V13.9168C41.267 13.9072 41.267 13.8608 41.2599 13.8064C41.2599 13.7688 41.252 13.7264 41.2512 13.7096V13.6808C41.2062 12.9776 41.3862 12.3512 41.7453 11.964C42.0136 11.6736 42.3767 11.5256 42.8249 11.5256C43.705 11.5256 44.1059 12.3704 44.1059 13.1552V16.24C44.1048 16.3319 44.1219 16.423 44.156 16.5081C44.1902 16.5931 44.2408 16.6704 44.3048 16.7354C44.3688 16.8004 44.445 16.8517 44.5289 16.8865C44.6128 16.9212 44.7027 16.9386 44.7933 16.9376C44.9756 16.9372 45.1504 16.8635 45.2792 16.7328C45.408 16.602 45.4805 16.4249 45.4807 16.24V13.1496C45.4823 11.684 44.551 10.1264 42.8234 10.1264Z" fill="#8CA3B8"/>
<path d="M75.0382 10.2928L75.0234 10.288C74.9214 10.2569 74.8134 10.2505 74.7091 10.2694C74.6044 10.2883 74.5051 10.3319 74.4202 10.3968C74.3339 10.4616 74.2633 10.546 74.2148 10.6432C74.1659 10.7404 74.1401 10.8477 74.1391 10.9568V12.936C74.1391 14.22 73.9642 15.6936 72.6013 15.6936C71.7211 15.6936 71.3201 14.8496 71.3201 14.0648V10.96C71.3201 10.7752 71.2476 10.5981 71.1184 10.4675C70.9896 10.3369 70.8151 10.2634 70.6328 10.2632C70.451 10.2657 70.2779 10.3399 70.1491 10.47C70.0208 10.6001 69.9479 10.7759 69.9451 10.96V14.068C69.9451 14.848 70.1819 15.58 70.6144 16.1304C70.823 16.3943 71.0814 16.6137 71.3741 16.7759C71.6667 16.9381 71.9884 17.0399 72.3202 17.0755C72.6516 17.1111 72.9871 17.0796 73.307 16.9831C73.6264 16.8865 73.9241 16.7266 74.1825 16.5128C74.2301 16.6479 74.3182 16.7645 74.4341 16.8465C74.5499 16.9286 74.6884 16.9719 74.8301 16.9704C75.0124 16.9701 75.1873 16.8966 75.3161 16.7658C75.4448 16.635 75.5173 16.4577 75.5173 16.2728V10.9696C75.5173 10.8201 75.4716 10.6743 75.3853 10.5529C75.2994 10.4314 75.1781 10.3404 75.0382 10.2928Z" fill="#8CA3B8"/>
<path d="M50.8404 10.1104H50.8349C49.067 10.1104 47.6282 11.6696 47.6282 13.5863C47.6282 15.5032 49.067 17.0624 50.8349 17.0624C52.0187 17.0624 53.0818 16.4888 53.6043 15.5656L53.6161 15.5423C53.6884 15.4055 53.7139 15.2482 53.6887 15.0952C53.6701 14.9816 53.6236 14.8747 53.5536 14.7841C53.4835 14.6935 53.3921 14.6222 53.2878 14.5768C53.1391 14.5115 52.9726 14.5015 52.8173 14.5483C52.6621 14.5951 52.528 14.6958 52.4386 14.8328C52.044 15.4064 51.5484 15.6616 50.8381 15.6616C49.9746 15.6616 49.3717 15.0143 49.1301 14.2799H53.3652C53.5496 14.2802 53.7265 14.2063 53.8573 14.0745C53.9881 13.9426 54.062 13.7637 54.0628 13.5767C54.0589 11.6632 52.6138 10.1104 50.8404 10.1104ZM49.1301 12.8864C49.3717 12.1511 49.9746 11.504 50.8381 11.504C51.6857 11.504 52.3092 12.1439 52.5499 12.8864H49.1301Z" fill="#8CA3B8"/>
<path d="M84.9668 10.1265C84.5547 10.1275 84.1485 10.2249 83.7793 10.4111C83.4105 10.5973 83.0888 10.8673 82.8396 11.2001C82.6056 10.8659 82.2955 10.5941 81.9355 10.4079C81.5755 10.2216 81.1762 10.1265 80.7719 10.1304C80.1941 10.1296 79.6315 10.3198 79.1699 10.672C79.1293 10.5676 79.0638 10.4747 78.9798 10.4016C78.9018 10.3346 78.8104 10.2856 78.7121 10.2579C78.6138 10.2303 78.5104 10.2247 78.4098 10.2417C78.2496 10.2701 78.1042 10.3556 78.0004 10.4827C77.8965 10.6098 77.8407 10.7702 77.843 10.9353V16.24C77.8425 16.3407 77.8633 16.4403 77.9039 16.532C77.945 16.6237 78.005 16.7053 78.0798 16.7712C78.2062 16.8796 78.3668 16.9385 78.5321 16.9377C78.5708 16.9376 78.6091 16.9344 78.6475 16.9281C78.809 16.9007 78.9553 16.8156 79.0605 16.6882C79.1653 16.5609 79.2216 16.3996 79.2198 16.2336V13.9521C79.2281 13.8902 79.2281 13.8275 79.2198 13.7657V13.7601C79.1911 12.9304 79.3642 12.2937 79.7201 11.92C79.9748 11.6529 80.3196 11.52 80.7738 11.52C81.7845 11.52 82.0545 12.5328 82.0545 13.1304V16.24C82.0536 16.3319 82.0707 16.423 82.1048 16.5081C82.139 16.5931 82.1893 16.6704 82.2535 16.7354C82.3176 16.8004 82.3938 16.8518 82.4778 16.8865C82.5613 16.9212 82.6513 16.9386 82.7418 16.9377C82.9241 16.9374 83.099 16.8638 83.2282 16.733C83.357 16.6022 83.4295 16.4249 83.4295 16.24V13.84C83.4295 13.0401 83.7511 11.52 84.9682 11.52C85.9785 11.52 86.2485 12.5328 86.2485 13.1304V16.24C86.2476 16.3319 86.2642 16.423 86.2988 16.5081C86.333 16.5931 86.3833 16.6704 86.4475 16.7354C86.5116 16.8004 86.5878 16.8518 86.6713 16.8865C86.7553 16.9212 86.8453 16.9386 86.9358 16.9377C87.1185 16.9374 87.2935 16.8639 87.4222 16.7331C87.5515 16.6023 87.6239 16.425 87.6239 16.24V13.1304C87.6258 11.6745 86.6935 10.1265 84.9668 10.1265Z" fill="#8CA3B8"/>
<path d="M64.577 10.1104H64.5705C62.8028 10.1104 61.3647 11.6696 61.3647 13.5863C61.3647 15.5032 62.8028 17.0624 64.5705 17.0624C65.7544 17.0624 66.8182 16.4888 67.3402 15.5656L67.3527 15.5423C67.4251 15.4055 67.4505 15.2482 67.4251 15.0952C67.4067 14.9816 67.3601 14.8747 67.2899 14.7841C67.2202 14.6935 67.1288 14.6222 67.0245 14.5768C66.8759 14.5115 66.7093 14.5015 66.5538 14.5483C66.3987 14.5951 66.2644 14.6958 66.1753 14.8328C65.7807 15.4064 65.285 15.6616 64.5738 15.6616C63.7111 15.6616 63.1084 15.0143 62.8665 14.2799H67.0984C67.283 14.2802 67.4598 14.2063 67.5908 14.0745C67.7215 13.9426 67.7953 13.7637 67.7962 13.5767C67.7921 11.6632 66.3479 10.1104 64.577 10.1104ZM62.8665 12.8864C63.1084 12.1511 63.7111 11.504 64.5738 11.504C65.4221 11.504 66.0456 12.1439 66.2865 12.8864H62.8665Z" fill="#8CA3B8"/>
<path d="M59.2245 10.2311C58.6481 10.2311 58.1095 10.4759 57.6682 10.8256C57.6442 10.6604 57.5625 10.5094 57.4384 10.3999C57.3604 10.333 57.2695 10.284 57.1707 10.2563C57.0724 10.2287 56.9695 10.2231 56.8684 10.24C56.7082 10.2684 56.5628 10.3539 56.459 10.4809C56.3552 10.608 56.2988 10.7685 56.3012 10.9336V16.2208C56.3002 16.3128 56.3178 16.4041 56.3524 16.4893C56.387 16.5745 56.4378 16.6519 56.5019 16.7168C56.5665 16.7818 56.6432 16.8331 56.7272 16.8677C56.8116 16.9023 56.9016 16.9195 56.9925 16.9183C57.0318 16.9183 57.071 16.9151 57.1102 16.9087C57.2704 16.8802 57.4158 16.7946 57.5196 16.6674C57.6235 16.5401 57.6793 16.3795 57.6765 16.2143V13.8943C57.6765 13.2839 57.8344 11.8399 59.3261 11.6207C59.4978 11.6017 59.6561 11.5179 59.7692 11.3859C59.8822 11.2539 59.9422 11.0836 59.9372 10.9087C59.9372 10.8205 59.9196 10.7333 59.8855 10.6521C59.8513 10.571 59.801 10.4977 59.7382 10.4368C59.6002 10.3025 59.4156 10.2287 59.2245 10.2311Z" fill="#8CA3B8"/>
<path d="M17.0306 16.7215L11.6243 13.5439L17.0306 21.1312L22.436 13.5439L17.0306 16.7256V16.7215Z" fill="#8CA3B8"/>
<path d="M22.436 12.525L17.0306 3.59619L11.6243 12.525L17.0306 15.7066L22.436 12.525Z" fill="#8CA3B8"/>
</svg>
