<svg width="100" height="24" viewBox="0 0 100 24" fill="none" xmlns="http://www.w3.org/2000/svg">
<path d="M24.9109 4.82422C26.3193 4.82408 27.6961 5.24482 28.8672 6.03322C30.0384 6.82162 30.9512 7.94233 31.4903 9.25356C32.0293 10.5648 32.1705 12.0076 31.8958 13.3997C31.6211 14.7918 30.943 16.0705 29.9472 17.0741C28.9513 18.0778 27.6825 18.7613 26.3012 19.0383C24.9199 19.3152 23.4881 19.1732 22.1869 18.6301C20.8857 18.0869 19.7735 17.1672 18.9911 15.9871C18.2086 14.807 17.7909 13.4195 17.7909 12.0002C17.7909 10.0972 18.541 8.27205 19.8762 6.9263C21.2115 5.58059 23.0225 4.82445 24.9109 4.82422ZM23.7821 7.58662L22.6746 11.8042L21.9118 12.1018L21.545 13.4858L22.3079 13.1954L21.6728 15.6082H28.484L28.9516 13.8178H24.853L25.3206 12.0634L26.0683 11.7802L26.4351 10.3962L25.6865 10.6866L26.4994 7.58422H23.7821V7.58662Z" fill="#8CA3B8"/>
<path d="M35.1198 16.3818L36.983 7.41699H38.8088L37.2616 14.8802H41.7865L41.4769 16.3786L35.1198 16.3818Z" fill="#8CA3B8"/>
<path d="M44.0005 9.88738H45.7391L44.3895 16.3818H42.651L44.0005 9.88738ZM44.5102 7.41699H46.2519L45.924 9.00658H44.1792L44.5102 7.41699Z" fill="#8CA3B8"/>
<path d="M46.5409 11.1895L46.8076 9.88713H47.657L47.8698 8.8471L49.8663 7.63672L49.3987 9.88713H50.4609L50.1926 11.1895H49.1248L48.5604 13.9095C48.4598 14.4034 48.4093 14.6847 48.4088 14.7535C48.4058 14.8123 48.4157 14.871 48.4377 14.9255C48.4598 14.98 48.4936 15.0289 48.5366 15.0687C48.6215 15.1439 48.7748 15.1815 48.9978 15.1815C49.0772 15.1815 49.2669 15.1679 49.5741 15.1391L49.301 16.4415C48.9974 16.503 48.6884 16.5338 48.3786 16.5335C47.7637 16.5335 47.3167 16.414 47.0378 16.1751C46.7589 15.9362 46.6197 15.6052 46.6202 15.1823C46.6202 14.9828 46.6952 14.5223 46.8449 13.8007L47.3847 11.1895H46.5409Z" fill="#8CA3B8"/>
<path d="M56.5156 13.6798H52.1494C52.1494 13.7494 52.143 13.8022 52.143 13.8398C52.143 14.2718 52.2655 14.6204 52.5106 14.8855C52.6225 15.0129 52.7603 15.1146 52.9146 15.1837C53.069 15.2527 53.2363 15.2874 53.4052 15.2854C53.9837 15.2854 54.4335 14.9836 54.7548 14.3798L56.3153 14.6398C56.0122 15.2719 55.6068 15.7457 55.0993 16.0615C54.5858 16.3792 53.9934 16.5437 53.391 16.5358C52.5246 16.5358 51.8207 16.2596 51.2793 15.707C50.7379 15.1545 50.467 14.4238 50.4664 13.5151C50.4542 12.6656 50.7111 11.8344 51.1999 11.1422C51.8678 10.2046 52.8204 9.73584 54.0578 9.73584C54.8458 9.73584 55.4727 9.98142 55.9384 10.4726C56.4039 10.9639 56.6365 11.6518 56.6361 12.5366C56.6407 12.9211 56.6001 13.3049 56.5156 13.6798ZM55.0477 12.6079C55.0517 12.5278 55.0533 12.4718 55.0533 12.431C55.0533 11.951 54.9461 11.5903 54.7318 11.3486C54.6232 11.2286 54.4897 11.1341 54.3409 11.0717C54.1921 11.0094 54.0315 10.9807 53.8705 10.9879C53.6902 10.9885 53.5118 11.025 53.3456 11.0953C53.1794 11.1656 53.0287 11.2682 52.902 11.3974C52.6167 11.67 52.4238 12.0734 52.3232 12.6079H55.0477Z" fill="#8CA3B8"/>
<path d="M61.5224 13.9352L63.2116 14.2103C62.9333 14.9687 62.5207 15.5456 61.9742 15.9407C61.4204 16.3385 60.7544 16.5466 60.0745 16.5344C59.2535 16.5344 58.6022 16.2877 58.1209 15.7943C57.639 15.301 57.3995 14.6229 57.4013 13.76C57.3985 13.0689 57.5476 12.3857 57.8389 11.7599C58.1199 11.1435 58.5792 10.6266 59.1561 10.2767C59.7358 9.91785 60.4045 9.73046 61.0849 9.73596C61.8455 9.73596 62.4524 9.93571 62.9052 10.3352C63.3584 10.7346 63.6132 11.2605 63.6704 11.9128L62.0139 12.0904C61.9733 11.7272 61.863 11.4605 61.6825 11.2904C61.4901 11.1142 61.2362 11.0219 60.9759 11.0336C60.6275 11.0381 60.2929 11.172 60.0362 11.4095C59.745 11.6624 59.5216 12.0405 59.3656 12.544C59.2175 13.0014 59.1385 13.4788 59.1321 13.96C59.1321 14.3434 59.2253 14.6389 59.4113 14.8463C59.4981 14.9468 59.6052 15.0268 59.7261 15.0807C59.8465 15.1346 59.9772 15.1611 60.1092 15.1583C60.405 15.152 60.6893 15.0442 60.9159 14.8528C61.1762 14.649 61.3784 14.3432 61.5224 13.9352Z" fill="#8CA3B8"/>
<path d="M64.323 13.6847C64.323 12.4816 64.6595 11.5216 65.3329 10.8047C66.0058 10.088 66.891 9.73037 67.9876 9.73194C68.9403 9.73194 69.6824 9.99571 70.215 10.5232C70.7472 11.0506 71.0144 11.761 71.0158 12.6544C71.0338 13.6581 70.6766 14.6318 70.0147 15.3824C69.3427 16.1504 68.4478 16.5344 67.3295 16.5344C66.7696 16.5454 66.2158 16.4194 65.7155 16.1672C65.265 15.941 64.8976 15.5769 64.665 15.1271C64.437 14.6814 64.3193 14.1864 64.323 13.6847ZM69.2859 12.4312C69.2859 12.0152 69.1659 11.6818 68.925 11.4311C68.8046 11.3064 68.6592 11.2084 68.499 11.1437C68.3384 11.0789 68.1663 11.0488 67.9936 11.0552C67.6295 11.0508 67.2755 11.1751 66.9926 11.4064C66.699 11.6421 66.4706 11.9826 66.3076 12.428C66.1558 12.8212 66.0736 13.2382 66.0649 13.66C66.0649 14.125 66.1899 14.4941 66.441 14.7671C66.5601 14.9 66.7064 15.0054 66.8698 15.0761C67.0332 15.1468 67.2095 15.1811 67.3872 15.1768C67.8635 15.1768 68.2641 14.9709 68.589 14.5592C69.0524 13.9757 69.2836 13.2664 69.2832 12.4312H69.2859Z" fill="#8CA3B8"/>
<path d="M73.0027 9.88738H74.7446L73.395 16.3818H71.6559L73.0027 9.88738ZM73.5127 7.41699H75.2541L74.9264 9.00658H73.1846L73.5127 7.41699Z" fill="#8CA3B8"/>
<path d="M76.4799 9.88722H78.1304L77.9606 10.7304C78.3049 10.4167 78.6944 10.158 79.1162 9.96323C79.4744 9.81051 79.8593 9.73269 80.2484 9.7344C80.7778 9.7344 81.195 9.88722 81.501 10.1928C81.807 10.4984 81.9598 10.904 81.9593 11.4096C81.9593 11.6373 81.8924 12.0696 81.759 12.7064L81.0007 16.3816H79.2593L80.0236 12.6936C80.1376 12.1432 80.1939 11.8152 80.1935 11.7096C80.199 11.6124 80.1838 11.5152 80.1501 11.424C80.1164 11.3329 80.0638 11.2498 79.9969 11.18C79.9221 11.1132 79.8353 11.0618 79.7412 11.0289C79.6466 10.996 79.5469 10.9821 79.4472 10.988C79.1924 10.988 78.909 11.096 78.5979 11.312C78.285 11.5296 78.0321 11.8243 77.8636 12.168C77.7339 12.4208 77.5881 12.9366 77.4261 13.7152L76.8745 16.3816H75.1327L76.4799 9.88722Z" fill="#8CA3B8"/>
</svg>
