<svg width="16" height="16" viewBox="0 0 16 16" fill="none" xmlns="http://www.w3.org/2000/svg">
<g clip-path="url(#clip0_4838_729)">
<path d="M7.99998 5.33333L10.5362 7.17593M7.99998 5.33333L5.46385 7.17593M7.99998 5.33333V3.33333M10.5362 7.17593L9.56745 10.1574M10.5362 7.17593L12.3333 6.33333M9.56745 10.1574H6.43257M9.56745 10.1574L10.6666 11.6667M6.43257 10.1574L5.46385 7.17593M6.43257 10.1574L5.33331 11.6667M5.46385 7.17593L3.66665 6.33333M3.66665 6.33333L1.36623 8.66666M3.66665 6.33333L2.99998 3.59029M12.3333 6.33333L14.6337 8.66666M12.3333 6.33333L13 3.59029M7.99998 3.33333L5.74954 1.72272M7.99998 3.33333L10.2504 1.72272M5.33331 11.6667L2.22519 11.3333M5.33331 11.6667L6.99998 14.5922M10.6666 11.6667L13.7748 11.3333M10.6666 11.6667L8.99998 14.5922M14.6666 7.99999C14.6666 11.6819 11.6818 14.6667 7.99998 14.6667C4.31808 14.6667 1.33331 11.6819 1.33331 7.99999C1.33331 4.31809 4.31808 1.33333 7.99998 1.33333C11.6818 1.33333 14.6666 4.31809 14.6666 7.99999Z" stroke="white" stroke-width="1.5" stroke-linecap="round" stroke-linejoin="round"/>
</g>
<defs>
<clipPath id="clip0_4838_729">
<rect width="16" height="16" fill="white"/>
</clipPath>
</defs>
</svg>
