<svg width="108" height="24" viewBox="0 0 108 24" fill="none" xmlns="http://www.w3.org/2000/svg">
<g clip-path="url(#clip0_4865_218)">
<mask id="mask0_4865_218" style="mask-type:luminance" maskUnits="userSpaceOnUse" x="1" y="0" width="107" height="24">
<path d="M107.125 0.333496H1.125V23.6668H107.125V0.333496Z" fill="white"/>
</mask>
<g mask="url(#mask0_4865_218)">
<path fill-rule="evenodd" clip-rule="evenodd" d="M7.82093 0.732422H23.7912C24.1723 0.732422 24.5243 0.935749 24.7143 1.26561L29.3671 9.34152C29.6085 9.76032 29.5367 10.289 29.1926 10.6286L16.3857 23.2664C15.9708 23.6757 15.3035 23.6757 14.8885 23.2664L2.09889 10.6457C1.74673 10.2981 1.68079 9.75412 1.93975 9.33272L6.91323 1.2397C7.10693 0.924509 7.45065 0.732422 7.82093 0.732422ZM21.7292 4.33804V6.60402H17.1799V8.17512C20.375 8.34299 22.7722 9.03252 22.7901 9.85905L22.7899 11.5821C22.7721 12.4086 20.375 13.0981 17.1799 13.2661V17.1216H14.1591V13.2661C10.964 13.0981 8.5668 12.4086 8.549 11.5821L8.54913 9.85905C8.56693 9.03252 10.964 8.34299 14.1591 8.17512V6.60402H9.6098V4.33804H21.7292ZM15.6695 12.0823C19.0793 12.0823 21.9293 11.4992 22.6267 10.7205C22.0353 10.0602 19.8959 9.54059 17.1799 9.39792V11.0428C16.6931 11.0684 16.1878 11.0819 15.6695 11.0819C15.1513 11.0819 14.6459 11.0684 14.1591 11.0428V9.39792C11.4431 9.54059 9.30373 10.0602 8.71227 10.7205C9.40973 11.4992 12.2598 12.0823 15.6695 12.0823Z" fill="#8CA3B8"/>
<path d="M35.6016 5.11488L39.2933 4.7002V8.27685H42.4979V11.387H39.2677V16.2076C39.2677 17.348 39.7462 17.9182 40.7033 17.9182C41.3186 17.9182 41.8313 17.8145 42.2415 17.6072L43.0876 20.7172C42.2501 21.0456 41.3613 21.2357 40.4213 21.2874C38.9343 21.3566 37.7551 21.0024 36.8834 20.2248C36.0289 19.43 35.6016 18.091 35.6016 16.2076V11.387H33.3455V8.27685H35.6016V5.11488Z" fill="#8CA3B8"/>
<path d="M56.3149 15.8191H47.0087C47.1111 16.4756 47.4615 17.0199 48.0597 17.4518C48.658 17.8666 49.4527 18.0739 50.444 18.0739C51.8626 18.0739 52.9563 17.7369 53.7255 17.0631L55.8021 19.3956C54.5374 20.657 52.7256 21.2876 50.3671 21.2876C48.1111 21.2876 46.3591 20.6743 45.1115 19.4475C43.8809 18.2208 43.2657 16.562 43.2657 14.4713C43.2657 12.5016 43.8723 10.912 45.0859 9.70251C46.2993 8.47571 47.9315 7.8623 49.9825 7.8623C52.2215 7.8623 53.9306 8.55344 55.1099 9.93571C56.3063 11.318 56.708 13.2791 56.3149 15.8191ZM47.0087 13.0978H53.0077C52.9735 12.4411 52.6659 11.94 52.0847 11.5944C51.5037 11.2316 50.8029 11.0502 49.9825 11.0502C49.2475 11.0502 48.6152 11.2316 48.0854 11.5944C47.5556 11.9574 47.1966 12.4584 47.0087 13.0978Z" fill="#8CA3B8"/>
<path d="M59.3926 5.11488L63.0844 4.7002V8.27685H66.289V11.387H63.0587V16.2076C63.0587 17.348 63.5373 17.9182 64.4943 17.9182C65.1097 17.9182 65.6224 17.8145 66.0327 17.6072L66.8787 20.7172C66.0412 21.0456 65.1524 21.2357 64.2125 21.2874C62.7255 21.3566 61.5461 21.0024 60.6745 20.2248C59.8199 19.43 59.3926 18.091 59.3926 16.2076V11.387H57.1366V8.27685H59.3926V5.11488Z" fill="#8CA3B8"/>
<path d="M68.263 2.85986H71.9803V9.77989C72.8863 8.58769 74.1677 7.99156 75.8257 7.99156C79.193 7.99156 80.8763 10.0391 80.8763 14.1341V21.0022H77.1843V14.16C77.1843 13.2788 76.9623 12.5962 76.5183 12.1124C76.091 11.6287 75.5097 11.3868 74.775 11.3868C73.9717 11.3868 73.2963 11.6632 72.7497 12.2162C72.2197 12.7691 71.9543 13.538 71.9543 14.5228V21.0022H68.263V2.85986Z" fill="#8CA3B8"/>
<path d="M95.355 15.8191H86.049C86.1517 16.4756 86.5017 17.0199 87.0997 17.4518C87.6977 17.8666 88.493 18.0739 89.4843 18.0739C90.903 18.0739 91.997 17.7369 92.7657 17.0631L94.843 19.3956C93.5777 20.657 91.7663 21.2876 89.4077 21.2876C87.151 21.2876 85.3997 20.6743 84.1517 19.4475C82.921 18.2208 82.3057 16.562 82.3057 14.4713C82.3057 12.5016 82.9123 10.912 84.1263 9.70251C85.3397 8.47571 86.971 7.8623 89.023 7.8623C91.2617 7.8623 92.9703 8.55344 94.1503 9.93571C95.3463 11.318 95.7477 13.2791 95.355 15.8191ZM86.049 13.0978H92.0483C92.0143 12.4411 91.7063 11.94 91.125 11.5944C90.5437 11.2316 89.843 11.0502 89.023 11.0502C88.2877 11.0502 87.655 11.2316 87.125 11.5944C86.5957 11.9574 86.237 12.4584 86.049 13.0978Z" fill="#8CA3B8"/>
<path d="M96.8857 8.22506H100.322L100.604 9.6246C101.407 8.48426 102.534 7.91406 103.988 7.91406C105.184 7.91406 106.218 8.3028 107.09 9.08033L105.551 12.0349C104.953 11.603 104.278 11.3871 103.526 11.3871C102.688 11.3871 101.988 11.6549 101.424 12.1905C100.86 12.7088 100.578 13.4259 100.578 14.3417V21.0025H96.8857V8.22506Z" fill="#8CA3B8"/>
</g>
</g>
<defs>
<clipPath id="clip0_4865_218">
<rect width="106.667" height="24" fill="white" transform="translate(0.791672)"/>
</clipPath>
</defs>
</svg>
