<svg width="53" height="34" viewBox="0 0 53 34" fill="none" xmlns="http://www.w3.org/2000/svg">
<g clip-path="url(#clip0_4865_242)">
<mask id="mask0_4865_242" style="mask-type:luminance" maskUnits="userSpaceOnUse" x="0" y="0" width="53" height="34">
<path d="M53 0H0V34H53V0Z" fill="white"/>
</mask>
<g mask="url(#mask0_4865_242)">
<path d="M29.9429 14.5951C30.2468 14.427 30.469 14.3129 30.6834 14.1854C31.429 13.7414 32.1694 13.2904 32.9157 12.8477C34.2878 12.0333 35.665 11.2278 37.0318 10.4032C37.2035 10.2999 37.3026 10.2929 37.4484 10.4261C38.3942 11.2906 39.349 12.1462 40.2987 13.0101C40.8338 13.4985 41.3605 13.997 41.8923 14.4886C41.9124 14.507 41.9519 14.5051 42.0679 14.533C42.0374 14.3053 42.0284 14.108 41.9824 13.9184C41.753 12.9746 41.5088 12.034 41.2795 11.0895C41.0728 10.2383 40.885 9.38269 40.6744 8.53213C40.6213 8.31711 40.6887 8.20865 40.8727 8.09893C42.1035 7.36698 43.3291 6.62425 44.5574 5.88723C44.8968 5.68363 45.2427 5.49017 45.5815 5.28467C45.6593 5.23774 45.7189 5.16162 45.8517 5.03921C45.7182 5.01515 45.5835 4.99863 45.4481 4.98974C43.6891 4.98974 41.9301 4.99439 40.1711 5.00369C39.8964 5.00369 39.7572 4.92821 39.7027 4.62313C39.5926 4.00091 39.4106 3.39074 39.2583 2.77614C39.1469 2.32517 39.0413 1.87357 38.9221 1.42451C38.8975 1.33191 38.8243 1.25135 38.7738 1.16573C38.7006 1.22915 38.6086 1.2856 38.5561 1.36425C37.7846 2.52116 37.0234 3.68441 36.2422 4.83497C36.1774 4.93012 35.9915 4.99037 35.8619 4.99101C33.098 4.99904 30.334 5.00094 27.57 4.99671C24.7629 4.99671 21.9557 4.99502 19.1486 4.99164C18.8111 4.99164 18.6304 5.10137 18.5189 5.44007C18.1076 6.70544 17.6561 7.95812 17.2279 9.21778C16.8813 10.2383 16.5503 11.2633 16.2056 12.2839C15.7152 13.7344 15.2151 15.1818 14.7254 16.633C14.3639 17.7031 14.0128 18.7775 13.6552 19.8481C13.3961 20.6194 13.1273 21.3875 12.8623 22.1569C12.3816 23.5561 11.8906 24.9534 11.4268 26.3577C11.3348 26.6342 11.1884 26.6951 10.9085 26.6945C7.37845 26.6881 3.84814 26.6881 0.317612 26.6945C-0.0198936 26.6945 -0.0542256 26.6507 0.0520141 26.3342C0.526854 24.9109 0.997806 23.487 1.47718 22.0662C1.96627 20.6258 2.47286 19.1917 2.96065 17.7532C3.3746 16.5328 3.76457 15.3042 4.17981 14.0845C4.73109 12.4646 5.30311 10.8498 5.85374 9.23173C6.21392 8.1725 6.55142 7.10503 6.90318 6.04326C6.97573 5.82317 7.06837 5.60942 7.15128 5.3925C7.25234 5.12864 7.19987 5.03858 6.91095 5.0316C6.45749 5.02082 6.00403 5.02399 5.55057 5.02526C3.82309 5.03033 2.09562 5.03625 0.368142 5.04302C0.0520144 5.04302 -0.0244295 4.90855 0.0895838 4.54131C0.219144 4.1284 0.348705 3.71676 0.478266 3.30448C0.778846 2.3239 1.0872 1.34586 1.36964 0.360204C1.45321 0.0671714 1.59054 -0.0114777 1.89696 0.00374483C2.53245 0.034824 3.17054 0.0132584 3.80733 0.0132584C18.1886 0.0132584 32.5698 0.0157952 46.951 0.0208694C47.6901 0.0208694 48.45 0.0418013 49.1658 0.200369C50.7692 0.556828 52.0311 1.40548 52.664 2.9569C53.0451 3.90131 53.0975 4.94244 52.813 5.91894C52.4165 7.33907 51.9061 8.72939 51.4345 10.1286C51.1669 10.9189 50.922 11.7219 50.5826 12.483C49.8959 14.0218 48.8374 15.2871 47.4537 16.2855C46.7102 16.8263 45.8875 17.254 45.0134 17.554C44.9305 17.5825 44.8379 17.7728 44.8567 17.8711C45.1216 19.2291 45.4118 20.5826 45.6833 21.9393C45.9858 23.4521 46.2766 24.9667 46.5714 26.4801C46.6122 26.6887 46.4794 26.7408 46.3071 26.7433C46.0266 26.7477 45.7461 26.7433 45.4649 26.7433C41.9992 26.7433 38.5335 26.7389 35.0677 26.7484C34.7574 26.7484 34.622 26.6526 34.5689 26.3564C34.28 24.7333 33.9768 23.1127 33.6795 21.4915C33.5324 20.6911 33.3821 19.8913 33.2448 19.0896C33.2066 18.8657 33.0809 18.78 32.871 18.7788C32.288 18.7788 31.705 18.7864 31.1219 18.7743C30.8317 18.768 30.6931 18.9107 30.6134 19.1593C30.3472 19.9947 30.079 20.8287 29.803 21.6609C29.5037 22.5635 29.1921 23.4616 28.8915 24.3641C28.6687 25.0352 28.4472 25.7069 28.2437 26.3837C28.1667 26.6374 28.0403 26.7331 27.7611 26.7325C24.4787 26.7325 21.1969 26.7382 17.9145 26.7427C17.5259 26.7427 17.4863 26.6748 17.6088 26.3082C17.9871 25.1747 18.3544 24.0381 18.734 22.9047C19.0313 22.0167 19.3501 21.1319 19.6409 20.2408C19.9409 19.328 20.2123 18.4065 20.5116 17.4937C20.8536 16.451 21.2164 15.4146 21.5643 14.3738C21.9154 13.3222 22.2587 12.268 22.6072 11.2151C22.9588 10.1529 23.3114 9.09071 23.6651 8.02852C23.838 7.50715 24.0227 6.98895 24.1762 6.46251C24.2533 6.19992 24.3977 6.12508 24.653 6.17582C26.038 6.44919 27.4223 6.72637 28.8086 6.99086C30.3329 7.28199 31.8598 7.5617 33.3847 7.84649C33.5642 7.8801 33.7417 7.92323 33.9198 7.96636C34.0979 8.00949 34.1096 8.08624 34.0092 8.23783C33.0707 9.65267 32.1362 11.0705 31.2055 12.4913C30.8039 13.1002 30.3977 13.7059 29.9974 14.3161C29.976 14.3617 29.9786 14.429 29.9429 14.5951Z" fill="white"/>
<path d="M24.7428 33.9734C24.4623 33.9734 24.1805 33.955 23.9007 33.9778C23.6014 34.0025 23.4913 33.8509 23.4472 33.601C23.3973 33.2985 23.3721 32.9902 23.2911 32.6959C23.2574 32.5729 23.0916 32.3832 23.0138 32.3953C22.9385 32.4149 22.8685 32.4503 22.8085 32.499C22.7486 32.5478 22.7001 32.6087 22.6666 32.6775C22.5438 32.9926 22.4426 33.3153 22.3634 33.6435C22.2987 33.8871 22.1587 33.9873 21.8983 33.9797C21.393 33.9638 20.8864 33.9657 20.3805 33.9702C20.1434 33.9702 20.1363 33.8509 20.1933 33.6822C20.433 32.9731 20.674 32.264 20.9162 31.5549C21.2097 30.6955 21.5103 29.8424 21.796 28.9779C21.8549 28.7984 21.9346 28.7241 22.1354 28.7241C23.4615 28.7356 24.7875 28.7279 26.1136 28.7406C27.0101 28.7495 27.3586 29.1979 27.0904 30.0231C26.9374 30.5243 26.7339 31.0094 26.4828 31.4712C26.3416 31.7211 26.043 31.8936 25.7968 32.0769C25.6368 32.1955 25.585 32.297 25.642 32.4999C25.7501 32.8849 25.8208 33.2807 25.8914 33.6746C25.9263 33.8725 25.8596 33.9968 25.6102 33.9797C25.3207 33.9607 25.0272 33.9753 24.7376 33.9753L24.7428 33.9734ZM23.7782 31.3697C24.1248 31.4077 24.4908 31.4109 24.6573 30.9777C24.7687 30.6828 24.8763 30.3853 24.9631 30.0827C25.0654 29.7244 24.976 29.6159 24.6048 29.6077C24.4228 29.6039 24.2388 29.6147 24.0574 29.6026C23.8249 29.5867 23.6953 29.6958 23.6254 29.8994C23.5256 30.1887 23.4254 30.4764 23.3248 30.7627C23.111 31.369 23.111 31.369 23.7782 31.3697Z" fill="white"/>
<path d="M9.59136 28.749C10.2068 28.749 10.8222 28.7382 11.437 28.7528C11.8354 28.7617 12.1457 29.0515 12.1249 29.4384C12.1052 29.794 12.0375 30.1455 11.9235 30.4837C11.63 31.3514 11.332 32.221 10.9757 33.0652C10.7095 33.6995 10.1252 33.9475 9.45727 33.9627C8.53091 33.9842 7.60326 33.9703 6.6769 33.969C6.4398 33.969 6.20336 33.9601 5.96432 33.9544C5.20768 33.9367 5.00038 33.4572 5.19084 32.7982C5.40461 32.0573 5.65337 31.326 5.90796 30.5979C5.94812 30.4824 6.08481 30.3442 6.19947 30.3182C6.76889 30.2015 7.34478 30.1146 7.92003 30.027C8.24004 29.9788 8.29705 30.0537 8.1947 30.3486C7.94508 31.0674 7.69568 31.7863 7.44649 32.5051C7.28324 32.977 7.36357 33.0988 7.87339 33.0887C8.7557 33.0715 8.78938 33.2409 9.11329 32.2641C9.35816 31.5214 9.62634 30.7863 9.88093 30.0442C9.96644 29.7943 9.88093 29.6522 9.59719 29.6427C9.09061 29.6262 8.58338 29.6427 8.07615 29.6427C7.56892 29.6427 7.06493 29.6503 6.55964 29.6427C6.49486 29.6427 6.3964 29.5983 6.3815 29.5532C6.3666 29.5082 6.40611 29.4118 6.44628 29.363C6.59855 29.1764 6.79063 29.0248 7.00906 28.9186C7.2275 28.8125 7.467 28.7543 7.71079 28.7483C8.33657 28.7281 8.96299 28.7433 9.58942 28.7433L9.59136 28.749Z" fill="white"/>
<path d="M42.8839 30.8756C42.9927 30.7869 43.1009 30.6962 43.2078 30.6086C43.9029 30.0568 44.6045 29.5126 45.2905 28.95C45.3823 28.8694 45.4899 28.808 45.6067 28.7695C45.7235 28.731 45.8472 28.7163 45.97 28.7261C46.1864 28.7388 46.4047 28.7261 46.6224 28.7261L46.6548 28.8162C46.5972 28.8802 46.5362 28.9411 46.4721 28.9988C46.0652 29.3287 45.6558 29.6547 45.2477 29.9826C45.0741 30.1221 45.0333 30.2731 45.0793 30.5084C45.2853 31.555 45.4563 32.6085 45.639 33.6595C45.6772 33.877 45.6345 33.9842 45.3578 33.9734C44.7664 33.95 44.1724 33.9607 43.5803 33.9772C43.3471 33.9836 43.2518 33.9043 43.222 33.6804C43.1527 33.1571 43.0653 32.6364 42.9817 32.115C42.9428 31.8727 42.8347 31.8328 42.6397 31.9882C42.4116 32.1664 42.2134 32.351 42.1454 32.6598C42.0703 32.9979 41.9245 33.3208 41.8163 33.6518C41.7457 33.8675 41.622 33.9855 41.3719 33.9804C40.7928 33.9677 40.213 33.976 39.5503 33.976C39.628 33.7032 39.6844 33.4685 39.7608 33.2427C40.2376 31.834 40.7248 30.4279 41.1944 29.0166C41.2741 28.7775 41.403 28.7153 41.6446 28.7242C42.1298 28.742 42.6163 28.7306 43.1016 28.7306C43.406 28.7306 43.465 28.8067 43.3607 29.0946C43.1877 29.5817 43.0057 30.0651 42.8327 30.5534C42.8098 30.6406 42.7942 30.7295 42.7861 30.8192L42.8839 30.8756Z" fill="white"/>
<path d="M15.7455 28.7372C16.3933 28.7372 17.0411 28.7277 17.6889 28.7372C18.5459 28.7531 18.8756 29.2161 18.5997 30.0058C18.4274 30.5024 18.3023 31.0288 18.0426 31.4792C17.5749 32.2891 16.7541 32.4198 15.8821 32.3843C15.4624 32.3672 15.04 32.3843 14.6222 32.3748C14.389 32.371 14.2387 32.4471 14.1687 32.6856C14.0728 33.0186 13.9368 33.3401 13.839 33.6725C13.7787 33.8786 13.6634 33.9725 13.4503 33.9719C12.9554 33.9719 12.4598 33.9719 11.9649 33.9769C11.6831 33.9769 11.641 33.8437 11.7207 33.6078C12.0854 32.5384 12.443 31.4665 12.8038 30.3958C12.9593 29.9354 13.1348 29.4806 13.267 29.0144C13.324 28.8133 13.4062 28.7303 13.6148 28.7315C14.3274 28.7372 15.04 28.7315 15.7526 28.7315L15.7455 28.7372ZM15.2214 31.4602C15.9145 31.469 16.0026 31.4113 16.23 30.7802C16.3259 30.5132 16.4159 30.2436 16.506 29.9741C16.5837 29.7432 16.482 29.6303 16.2469 29.6195C16.0117 29.6087 15.7934 29.6271 15.5699 29.5986C15.2803 29.5612 15.1579 29.7032 15.0854 29.9449C14.983 30.2874 14.891 30.635 14.7576 30.9673C14.5742 31.4297 14.5937 31.4747 15.0912 31.4595C15.1352 31.4602 15.178 31.4602 15.2214 31.4602Z" fill="white"/>
<path d="M26.4019 33.9056C26.5573 33.6621 26.6875 33.4534 26.8229 33.2479C27.781 31.7979 28.7378 30.3474 29.7057 28.9038C29.7432 28.8562 29.7905 28.8169 29.8445 28.7883C29.8985 28.7597 29.958 28.7424 30.0192 28.7376C30.7091 28.723 31.399 28.7376 32.0922 28.73C32.3467 28.73 32.4666 28.8162 32.4575 29.0839C32.4076 30.5078 32.3746 31.9318 32.3215 33.3557C32.2995 33.9487 32.2826 33.9538 31.6737 33.9697C31.2111 33.9817 30.7473 33.9697 30.2841 33.9824C30.0587 33.9874 30.0023 33.8707 30.014 33.6849C30.0328 33.3678 30.0483 33.0506 30.0788 32.7373C30.1028 32.4665 29.992 32.344 29.7102 32.3567C29.3986 32.3694 29.0838 32.3459 28.7754 32.3808C28.6135 32.398 28.4631 32.4706 28.3504 32.5857C28.1181 32.876 27.9018 33.1784 27.7026 33.4914C27.3321 34.0299 27.1753 34.0902 26.4019 33.9056ZM30.1481 29.9731L30.0833 29.9509C29.786 30.3823 29.4809 30.8085 29.1958 31.248C29.1071 31.3844 29.1958 31.4637 29.3558 31.4599C29.5158 31.4561 29.6558 31.4561 29.8054 31.451C29.9939 31.4447 30.1092 31.3679 30.1099 31.163C30.1099 31.0584 30.1455 30.9537 30.1474 30.8459C30.152 30.5554 30.1481 30.2636 30.1481 29.9712V29.9731Z" fill="white"/>
<path d="M3.34974 28.7329C4.09471 28.7329 4.83968 28.7329 5.58401 28.7329C5.90791 28.7329 5.91309 28.7963 5.8496 29.0874C5.74077 29.5834 5.45315 29.7375 4.97637 29.6538C4.92249 29.6491 4.86829 29.6491 4.81442 29.6538C4.14718 29.6538 4.15172 29.6817 3.95867 30.2944C3.62894 31.3422 3.26163 32.3786 2.90923 33.4195C2.87479 33.4966 2.84747 33.5767 2.8276 33.6586C2.79392 33.8964 2.64881 33.9681 2.42079 33.9669C1.85979 33.9669 1.29879 33.9719 0.7365 33.9808C0.520134 33.984 0.464422 33.8774 0.525316 33.6986C0.803871 32.8791 1.0889 32.0621 1.36746 31.2439C1.5184 30.8044 1.6622 30.3629 1.81509 29.924C1.89412 29.697 1.78269 29.6354 1.57928 29.6392C1.29879 29.6443 1.01893 29.6519 0.737141 29.6526C0.538265 29.6526 0.459234 29.5606 0.527253 29.3671C0.579725 29.2181 0.598512 29.0449 0.689852 28.9231C0.73362 28.8707 0.787598 28.8272 0.848648 28.7953C0.909698 28.7634 0.976603 28.7437 1.0455 28.7373C1.8112 28.7208 2.5782 28.7291 3.34455 28.7291L3.34974 28.7329Z" fill="white"/>
<path d="M37.1528 28.7329C37.8317 28.7329 38.5132 28.7487 39.1908 28.7291C39.9436 28.7069 40.2098 29.2999 40.0129 29.8879C39.689 30.8475 39.3651 31.8059 39.0412 32.7649C38.9362 33.0744 38.8598 33.3992 38.7218 33.691C38.6635 33.8146 38.4854 33.9548 38.3539 33.9637C37.8291 33.9973 37.2999 33.996 36.7739 33.9783C36.5335 33.97 36.6029 33.7734 36.6482 33.6396C36.9306 32.81 37.2222 31.9829 37.5098 31.1551C37.6393 30.7864 37.767 30.4175 37.8926 30.0483C37.993 29.7547 37.9315 29.6507 37.6128 29.6456C36.9229 29.6354 36.233 29.6456 35.5398 29.6456C35.2606 29.6456 34.9814 29.6494 34.7028 29.6386C34.6258 29.6354 34.5189 29.6082 34.4806 29.5542C34.3511 29.3709 34.7145 28.7386 34.9497 28.7373C35.683 28.7335 36.4163 28.7373 37.1522 28.7373L37.1528 28.7329Z" fill="white"/>
<path d="M34.0732 33.9569C33.7719 33.9569 33.4714 33.9569 33.1701 33.9569C32.9842 33.9569 32.946 33.8631 32.9991 33.7096C33.2755 32.9142 33.553 32.1186 33.8315 31.3228C33.9112 31.0951 34.0116 30.8706 34.0596 30.6359C34.1075 30.4012 34.2403 30.3188 34.4528 30.2877C35.0254 30.2008 35.5975 30.1057 36.1708 30.0213C36.3994 29.9871 36.4435 30.0759 36.3651 30.2972C36.0412 31.2239 35.7335 32.1537 35.4187 33.0823C35.3442 33.3017 35.2988 33.5377 35.1848 33.735C35.1415 33.7953 35.0863 33.8467 35.0226 33.8861C34.9589 33.9255 34.8879 33.9521 34.8136 33.9646C34.572 34.0013 34.32 33.9747 34.0719 33.9747L34.0732 33.9569Z" fill="white"/>
</g>
</g>
<defs>
<clipPath id="clip0_4865_242">
<rect width="53" height="34" fill="white"/>
</clipPath>
</defs>
</svg>
