<svg width="100" height="24" viewBox="0 0 100 24" fill="none" xmlns="http://www.w3.org/2000/svg">
<path d="M44.4582 10.5503H43.5224V16.6993H44.4582V10.5503Z" fill="#8CA3B8"/>
<path d="M48.6504 7.9458H41.0227V8.88752H48.6504V7.9458Z" fill="#8CA3B8"/>
<path d="M46.1486 10.5503H45.2128V16.6993H46.1486V10.5503Z" fill="#8CA3B8"/>
<path d="M72.0016 16.7055H72.9459V13.0021L72.0016 11.9458V16.7055Z" fill="#8CA3B8"/>
<path d="M76.9738 7.94534V14.8113L70.2944 7.34082V16.7054H71.2364V9.83733L77.9199 17.3099V7.94534H76.9738Z" fill="#8CA3B8"/>
<path d="M64.1799 7.94141C61.7792 7.94141 59.8275 9.90553 59.8275 12.3214C59.8275 14.7373 61.7792 16.7015 64.1799 16.7015C66.5804 16.7015 68.5322 14.7373 68.5322 12.3214C68.5322 9.90765 66.5804 7.94141 64.1799 7.94141ZM64.1799 15.7576C62.2977 15.7576 60.7655 14.2177 60.7655 12.3214C60.7655 10.4252 62.2956 8.88525 64.1799 8.88525C66.0621 8.88525 67.5944 10.4252 67.5944 12.3214C67.5944 14.2156 66.0621 15.7576 64.1799 15.7576Z" fill="#8CA3B8"/>
<path d="M64.1799 11.6914C63.8342 11.6914 63.5539 11.9735 63.5539 12.3214C63.5539 12.6692 63.8342 12.9513 64.1799 12.9513C64.5256 12.9513 64.8058 12.6692 64.8058 12.3214C64.8058 11.9735 64.5256 11.6914 64.1799 11.6914Z" fill="#8CA3B8"/>
<path d="M58.1898 10.633C58.1898 9.15251 57.0011 7.94775 55.5405 7.94775H50.5621V16.7078H51.4916V8.89797H55.5405C56.4784 8.89797 57.2414 9.6764 57.2414 10.633C57.2414 11.5854 56.4889 12.3596 55.5594 12.3702L52.2567 12.368V16.7078H53.1862V13.3183H55.3634L57.1423 16.7057H58.2236L56.3667 13.1847C57.4395 12.8262 58.1898 11.7826 58.1898 10.633Z" fill="#8CA3B8"/>
<path d="M34.5879 6.21035L21.9038 3.8623L28.5789 20.7631L37.878 9.36012L34.5879 6.21035ZM34.3856 7.24544L36.3268 9.10138L31.0196 10.0686L34.3856 7.24544ZM29.8667 9.87556L24.2729 5.20706L33.4139 6.8997L29.8667 9.87556ZM29.4662 10.7028L28.5557 18.2899L23.6384 5.83489L29.4662 10.7028ZM30.3093 11.1037L36.1855 10.0325L29.4473 18.2962L30.3093 11.1037Z" fill="#8CA3B8"/>
</svg>
