<svg width="100" height="24" viewBox="0 0 100 24" fill="none" xmlns="http://www.w3.org/2000/svg">
<path fill-rule="evenodd" clip-rule="evenodd" d="M13.6382 0.318513C9.73222 0.731995 6.24271 3.16279 4.47886 6.69876C2.25015 11.1666 3.12902 16.5409 6.6708 20.1034C9.5941 23.0436 13.695 24.1849 17.6681 23.164C19.7972 22.6168 21.4277 21.6799 22.9952 20.1034C25.9184 17.163 27.0531 13.0382 26.038 9.04193C25.4941 6.90043 24.5626 5.26041 22.9952 3.68374C21.0226 1.69966 18.7112 0.600463 15.9089 0.313701C14.8905 0.209529 14.6627 0.209974 13.6382 0.318513ZM12.5675 3.74612C12.7249 3.90448 12.7599 4.67618 12.6217 4.93622C12.5749 5.02417 12.1642 5.28197 11.7092 5.50912C9.87394 6.42519 8.54468 7.99348 7.9215 9.97765C7.65713 10.8197 7.58351 12.5624 7.77425 13.4646C7.94914 14.2916 8.37413 15.309 8.83723 16.0093C9.55529 17.0951 10.8032 18.1557 11.9093 18.6206C12.581 18.9028 12.7067 19.0663 12.7067 19.6568C12.7067 20.0778 12.673 20.1946 12.5209 20.3018C12.3555 20.4184 12.2808 20.4139 11.8414 20.2619C11.57 20.168 11.0487 19.9288 10.6829 19.7303C8.42632 18.5061 6.74576 16.2098 6.27939 13.7137C6.07402 12.6144 6.13949 10.6123 6.41157 9.67172C7.20158 6.94124 9.26009 4.71201 11.8881 3.74113C12.3253 3.57957 12.4025 3.5802 12.5675 3.74612ZM17.9055 3.79799C20.4597 4.75924 22.4836 6.99391 23.2685 9.71965C23.4453 10.3336 23.471 10.6216 23.4706 11.9826C23.4702 13.2302 23.4367 13.6669 23.3029 14.1659C22.5499 16.9753 20.5529 19.2212 17.9238 20.2159C17.3927 20.4169 17.3202 20.4251 17.1486 20.3042C16.9916 20.1936 16.9593 20.0811 16.9593 19.6447C16.9593 19.0332 17.0641 18.8953 17.7297 18.6303C19.7457 17.8276 21.5338 15.5473 21.9266 13.278C22.0791 12.3971 21.9884 10.7605 21.7436 9.97765C21.1331 8.0249 19.7989 6.43348 18.0349 5.55394C17.6139 5.34399 17.1997 5.11435 17.1143 5.04369C16.9064 4.87134 16.8951 3.95072 17.0985 3.74612C17.2762 3.56745 17.2963 3.5687 17.9055 3.79799ZM44.8669 5.94799C43.6151 6.33456 42.8322 6.99131 42.4692 7.95953C42.3152 8.37035 42.2874 8.60181 42.3176 9.22017C42.3617 10.1254 42.5379 10.5244 43.1398 11.0824C43.6893 11.5919 44.383 11.8955 46.123 12.3877C48.2641 12.9935 48.8144 13.2848 49.1271 13.9773C49.4615 14.7181 49.2601 15.527 48.5996 16.0957C48.0841 16.5395 47.503 16.7056 46.466 16.7056C45.1983 16.7056 44.251 16.3592 43.2598 15.5332C43.0338 15.3448 42.8073 15.1907 42.7563 15.1907C42.6058 15.1907 42.0318 15.9508 42.0318 16.1502C42.0318 16.6347 43.7139 17.6511 44.9391 17.907C45.7624 18.0789 47.2268 18.0788 47.9522 17.9068C49.7568 17.4788 50.8028 16.2496 50.8028 14.5563C50.8028 13.2674 50.1411 12.2824 48.8765 11.6888C48.4985 11.5113 47.5513 11.1833 46.7717 10.96C44.3365 10.2619 43.754 9.84487 43.8231 8.84951C43.8997 7.74883 44.7011 7.15066 46.1739 7.09511C47.3638 7.05031 48.2807 7.34605 49.2208 8.07777C49.3983 8.21598 49.601 8.32906 49.6712 8.32906C49.7824 8.32906 50.1954 7.88224 50.3953 7.54539C50.587 7.22231 49.49 6.41075 48.3664 6.04441C47.3214 5.70374 45.794 5.66167 44.8669 5.94799ZM70.5809 5.92411C68.5369 6.46288 67.136 7.76944 66.4251 9.80033C66.1931 10.4633 66.176 10.6074 66.176 11.8936C66.176 13.1797 66.1931 13.3238 66.4251 13.9868C67.2908 16.4598 69.241 17.9048 71.8693 18.0208C73.523 18.0938 74.7858 17.6616 75.8708 16.6509C76.7404 15.8411 76.7545 15.7053 76.0084 15.3124L75.5341 15.0629L75.0625 15.5089C74.1258 16.3943 73.355 16.7056 72.1002 16.7056C71.4573 16.7056 71.1504 16.6596 70.7029 16.4962C69.1913 15.9443 68.2146 14.8536 67.8111 13.2672C67.4881 11.9965 67.654 10.4571 68.2312 9.36946C68.5397 8.78824 69.4225 7.88139 69.9368 7.61753C70.7232 7.21391 71.2603 7.08148 72.11 7.08148C73.3578 7.08148 74.1279 7.39927 75.1028 8.31657L75.5355 8.72386L76.0126 8.46424C76.7545 8.06083 76.7411 7.94668 75.8595 7.12532C75.2581 6.56563 74.3955 6.10474 73.5308 5.88134C72.7928 5.69046 71.3902 5.71087 70.5809 5.92411ZM30.7093 6.02997C30.6298 6.10991 30.603 7.13972 30.603 10.1149C30.603 13.7864 30.6165 14.146 30.7782 14.7821C31.3255 16.9343 32.9069 18.0423 35.4315 18.0423C36.415 18.0423 37.3971 17.8401 38.056 17.5019C39.0422 16.996 39.8669 15.8387 40.1294 14.5925C40.2996 13.7846 40.321 6.1984 40.1536 6.02997C40.0933 5.96938 39.8046 5.92304 39.4869 5.92304C38.9669 5.92304 38.9204 5.93953 38.8402 6.15161C38.7889 6.28742 38.7538 7.95014 38.7538 10.2467C38.7538 14.0628 38.7512 14.1206 38.5492 14.6802C38.048 16.0691 37.0686 16.7056 35.4329 16.7056C33.9289 16.7056 33.0128 16.1926 32.4447 15.0323L32.1534 14.4376L32.1092 10.2661C32.0711 6.68824 32.046 6.08256 31.9319 6.0102C31.7408 5.88883 30.8351 5.90344 30.7093 6.02997ZM52.681 6.02997C52.6004 6.11098 52.5747 7.5365 52.5747 11.9005C52.5747 16.8521 52.593 17.6792 52.7044 17.7723C52.9145 17.9476 57.6831 17.8487 58.3777 17.6545C59.3961 17.3698 60.3519 16.8229 61.0318 16.1358C62.1534 15.0024 62.6746 13.6567 62.6746 11.8936C62.6746 8.86659 60.9121 6.65973 58.0139 6.0576C57.1767 5.88365 52.8487 5.86129 52.681 6.02997ZM87.7811 6.06054C87.2743 6.31861 87.1508 6.97358 87.5249 7.42059C87.7882 7.7357 88.1341 7.82033 88.511 7.66207C89.1054 7.41205 89.2592 6.75196 88.8322 6.28065C88.5343 5.95156 88.1524 5.87154 87.7811 6.06054ZM15.5386 6.36272C15.5891 6.45753 15.6304 6.79108 15.6304 7.10393V7.67273L16.1158 7.82668C16.7962 8.0424 17.4188 8.66259 17.6293 9.33445C17.8387 10.0024 17.7519 10.1118 17.0149 10.11C16.3849 10.1084 16.3253 10.0783 16.1661 9.68259C15.9753 9.20831 15.5456 8.93979 14.8931 8.88706C14.127 8.82523 13.5579 9.06875 13.361 9.54275C13.1783 9.98273 13.2641 10.3987 13.5953 10.679C13.9105 10.9458 13.8824 10.9369 15.3047 11.2231C16.5941 11.4826 17.1736 11.7385 17.5723 12.2247C17.9125 12.6394 18.0216 13.0139 18.0211 13.7649C18.0206 14.5158 17.7503 15.1134 17.1844 15.6144C16.8246 15.9329 15.9927 16.3492 15.7156 16.3492C15.6687 16.3492 15.6304 16.627 15.6304 16.9666C15.6304 17.7556 15.534 17.864 14.833 17.864C14.1341 17.864 14.0357 17.7544 14.0357 16.9765V16.3691L13.7477 16.3137C13.2795 16.2238 12.5919 15.8635 12.2692 15.5389C12.1037 15.3725 11.8798 15.0356 11.7714 14.7902C11.3199 13.7674 11.4175 13.5642 12.3404 13.6051L12.9282 13.6312L13.1497 14.0921C13.5495 14.9243 13.8827 15.1239 14.8719 15.1239C15.853 15.1239 16.4277 14.6459 16.4277 13.8301C16.4277 13.0902 16.0612 12.856 14.4344 12.5561C12.4583 12.1918 11.7322 11.544 11.7322 10.1453C11.7322 9.41746 12.0058 8.75612 12.47 8.36188C12.816 8.06803 13.5676 7.70732 13.8363 7.70619C14.0227 7.70534 14.0357 7.6673 14.0357 7.12017C14.0357 6.25828 14.094 6.19038 14.833 6.19038C15.3493 6.19038 15.4615 6.21782 15.5386 6.36272ZM57.9167 7.39243C59.1648 7.71939 60.1573 8.52028 60.6787 9.62118C61.0443 10.3933 61.1684 10.9768 61.1684 11.9238C61.1684 14.0092 60.1122 15.601 58.2819 16.2738C57.8249 16.4418 57.5216 16.4717 55.9191 16.506L54.0808 16.5454V11.9025V7.25972H55.7455C56.9341 7.25972 57.5551 7.2977 57.9167 7.39243ZM81.191 9.05661C79.007 9.28701 77.531 11.0572 77.5254 13.453C77.5197 16.1992 79.223 18.0423 81.767 18.0423C82.9529 18.0423 83.8197 17.7092 84.6237 16.9444C86.0722 15.5663 86.4188 13.0414 85.4185 11.1482C84.6089 9.61525 83.0771 8.85748 81.191 9.05661ZM94.6381 9.05873C93.9675 9.14513 93.3188 9.43468 92.6418 9.95005L92.0884 10.3715V9.90275C92.0884 9.64497 92.0404 9.38591 91.9818 9.32711C91.8442 9.1884 91.0035 9.1884 90.8658 9.32711C90.7126 9.48113 90.7126 17.6032 90.8658 17.7571C91.0035 17.8959 91.8442 17.8959 91.9818 17.7571C92.0609 17.6781 92.0884 16.8448 92.0884 14.5604V11.4707L92.4936 11.0949C93.0583 10.5716 93.7677 10.2601 94.4948 10.2165C95.4512 10.1593 96.0435 10.4507 96.3498 11.1291C96.4995 11.4599 96.5143 11.7662 96.5164 14.5383C96.5178 17.1865 96.5362 17.6022 96.6569 17.7241C96.8242 17.8921 97.5837 17.9152 97.7404 17.7571C97.8195 17.6778 97.847 16.7935 97.847 14.3294C97.847 10.6806 97.8244 10.4922 97.3028 9.82871C96.8249 9.22003 95.7639 8.91353 94.6381 9.05873ZM87.5651 9.45565C87.5086 9.60438 87.4854 11.1656 87.5009 13.6917C87.5284 18.1751 87.4755 17.8603 88.2075 17.8627C88.9261 17.865 88.8985 18.0341 88.8985 13.5727C88.8985 11.2574 88.8639 9.58468 88.8124 9.44873C88.7327 9.23817 88.6839 9.22017 88.1898 9.22017C87.6922 9.22017 87.6477 9.23697 87.5651 9.45565ZM82.7016 10.372C83.3072 10.6038 83.6799 10.905 84.0216 11.4408C84.9286 12.8624 84.719 15.0659 83.5719 16.1685C83.0729 16.648 82.5583 16.8392 81.767 16.8392C80.5444 16.8392 79.7792 16.3213 79.2068 15.1058C78.9498 14.5605 78.9322 14.4583 78.9364 13.5421C78.9421 12.2655 79.1418 11.7111 79.8541 10.9991C80.627 10.2266 81.7013 9.99 82.7016 10.372Z" fill="#8CA3B8"/>
</svg>
